<?xml version="1.0" encoding="UTF-8"?>
<!DOCTYPE svg PUBLIC "-//W3C//DTD SVG 1.1//EN" "http://www.w3.org/Graphics/SVG/1.1/DTD/svg11.dtd">
<!-- Creator: CorelDRAW -->
<svg xmlns="http://www.w3.org/2000/svg" xml:space="preserve" width="25mm" height="25mm" style="shape-rendering:geometricPrecision; text-rendering:geometricPrecision; image-rendering:optimizeQuality; fill-rule:evenodd; clip-rule:evenodd"
viewBox="0 0 25 25"
 xmlns:xlink="http://www.w3.org/1999/xlink">
 <defs>
  <style type="text/css">
   <![CDATA[
    .fil0 {fill:none}
    .fil1 {fill:#8C959F}
   ]]>
  </style>
 </defs>
 <g id="Layer_x0020_1">
  <metadata id="CorelCorpID_0Corel-Layer"/>
  <rect class="fil0" width="25" height="25"/>
  <path id="_273710408" class="fil1" d="M24.6782 19.8437l-10.255 -17.0069c-0.404,-0.67 -1.141,-1.0863 -1.9232,-1.0863 -0.7825,0 -1.5195,0.4163 -1.9235,1.0863l-10.2547 17.0069c-0.4175,0.6925 -0.4298,1.56 -0.0323,2.264 0.3978,0.7043 1.147,1.1415 1.9558,1.1415l20.5094 0.0003c0.8085,0 1.558,-0.4375 1.9558,-1.1418 0.3975,-0.704 0.3852,-1.5717 -0.0323,-2.264zm-1.385 1.4638c-0.1095,0.1937 -0.316,0.3142 -0.5385,0.3142l-20.5094 0c-0.2228,0 -0.429,-0.1205 -0.5385,-0.3142 -0.1095,-0.1938 -0.106,-0.4328 0.009,-0.6233l10.2547 -17.0069c0.1113,-0.1843 0.3143,-0.299 0.5295,-0.299 0.2152,0 0.4182,0.1147 0.5295,0.299l10.2547 17.0069c0.115,0.1905 0.1183,0.4295 0.009,0.6233z"/>
  <path id="_273710672" class="fil1" d="M12.5075 8.4475c-0.619,0 -1.1022,0.3323 -1.1022,0.9213 0,1.797 0.2112,4.3792 0.2112,6.1762 0,0.4682 0.408,0.6645 0.891,0.6645 0.3625,0 0.876,-0.1963 0.876,-0.6645 0,-1.797 0.2112,-4.3792 0.2112,-6.1762 0,-0.589 -0.4982,-0.9213 -1.0872,-0.9213z"/>
  <path id="_273710888" class="fil1" d="M12.5227 17.2515c-0.6644,0 -1.1627,0.5285 -1.1627,1.1627 0,0.6193 0.4983,1.1628 1.1627,1.1628 0.6193,0 1.1478,-0.5435 1.1478,-1.1628 0,-0.6342 -0.5288,-1.1627 -1.1478,-1.1627z"/>
 </g>
</svg>
