<?xml version="1.0" encoding="UTF-8"?>
<!DOCTYPE svg PUBLIC "-//W3C//DTD SVG 1.1//EN" "http://www.w3.org/Graphics/SVG/1.1/DTD/svg11.dtd">
<!-- Creator: CorelDRAW -->
<svg xmlns="http://www.w3.org/2000/svg" xml:space="preserve" width="50.0456mm" height="50mm" style="shape-rendering:geometricPrecision; text-rendering:geometricPrecision; image-rendering:optimizeQuality; fill-rule:evenodd; clip-rule:evenodd"
viewBox="0 0 50.0456 50"
 xmlns:xlink="http://www.w3.org/1999/xlink">
 <defs>
  <style type="text/css">
   <![CDATA[
    .fil1 {fill:none}
    .fil0 {fill:black}
   ]]>
  </style>
 </defs>
 <g id="Layer_x0020_1">
  <metadata id="CorelCorpID_0Corel-Layer"/>
  <g id="_119949832">
   <path id="_119955736" class="fil0" d="M49.3008 42.2057l-2.4341 0 0 -26.4596c0,-2.5732 -2.0936,-4.6668 -4.6667,-4.6668l-0.644 0c0.3844,-2.8454 0.3921,-4.8106 0.3921,-4.9509 0,-0.3208 -0.2054,-0.606 -0.5102,-0.7068l-16.2297 -5.3836c-0.1522,-0.0507 -0.3167,-0.0506 -0.4689,0l-16.2294 5.3836c-0.3048,0.1008 -0.5105,0.386 -0.5105,0.7068 0,0.1403 0.008,2.1055 0.3921,4.9509l-0.644 0c-2.5728,0 -4.6668,2.0936 -4.6668,4.6668l0 26.4596 -2.4337 0c-0.2771,0 -0.5186,0.151 -0.647,0.3752l0 2.4968c0.5115,2.7962 2.9659,4.9223 5.9076,4.9223l38.1323 0c3.3114,0 6.0057,-2.6939 6.0057,-6.0053l0 -1.0442c0,-0.4113 -0.3336,-0.7448 -0.7448,-0.7448zm-19.8015 1.49c-0.118,0.8402 -0.8418,1.4892 -1.7142,1.4892l-5.6227 0c-0.8729,0 -1.5962,-0.649 -1.7142,-1.4892l9.0511 0zm-4.5254 -42.1663l15.4724 5.1322c-0.0556,1.5769 -0.3561,6.4232 -1.981,11.504 -1.1476,3.5897 -2.7215,6.5822 -4.6771,8.8936 -2.3796,2.8127 -5.3442,4.6231 -8.8143,5.3828 -3.464,-0.7586 -6.4251,-2.5643 -8.802,-5.3686 -1.9552,-2.306 -3.5291,-5.292 -4.6787,-8.8741 -1.6314,-5.085 -1.9354,-9.9557 -1.9913,-11.5377l15.472 -5.1322zm-20.4033 14.2167c0,-1.7522 1.4248,-3.1777 3.1769,-3.1777l0.8693 0c0.0802,0.4807 0.1706,0.9783 0.2734,1.49l-1.1427 0c-0.9307,0 -1.6877,0.7571 -1.6877,1.6877l0 24.2261c0,0.4109 0.333,0.7444 0.7448,0.7444l36.3387 0c0.4113,0 0.7444,-0.3335 0.7444,-0.7444l0 -4.2858c0,-0.4113 -0.3332,-0.7448 -0.7444,-0.7448 -0.4116,0 -0.7448,0.3335 -0.7448,0.7448l0 3.5406 -34.8495 0 0 -23.4809c0,-0.1092 0.0893,-0.1985 0.1985,-0.1985l1.4673 0c0.235,0.995 0.5144,2.0265 0.8491,3.0718 1.2077,3.7771 2.8763,6.9407 4.9585,9.4019 2.6341,3.1132 5.9305,5.1019 9.7989,5.9114 0.0503,0.0103 0.1016,0.0157 0.1526,0.0157 0.051,0 0.102,-0.0053 0.1526,-0.0157 3.868,-0.8095 7.1648,-2.7982 9.7986,-5.9114 2.0829,-2.4616 3.7511,-5.6248 4.9592,-9.4019 0.3339,-1.0453 0.6137,-2.0768 0.8488,-3.0718l1.4669 0c0.1092,0 0.1985,0.0893 0.1985,0.1985l0 17.4579c0,0.4113 0.3331,0.7444 0.7444,0.7444 0.4117,0 0.7448,-0.3331 0.7448,-0.7444l0 -17.4579c0,-0.9307 -0.7571,-1.6877 -1.6877,-1.6877l-1.1423 0c0.1023,-0.5117 0.1932,-1.0092 0.2732,-1.49l0.8691 0c1.752,0 3.1772,1.4255 3.1772,3.1777l0.0001 26.4596 -40.8067 0 0 -26.4596zm43.9854 28.2486c0,2.49 -2.0257,4.5161 -4.5161,4.5161l-38.1323 0c-2.49,0 -4.5162,-2.0261 -4.5162,-4.5161l0 -0.299 17.5603 0c0.1245,1.6628 1.5164,2.9784 3.2107,2.9784l5.6227 0c1.6947,0 3.0864,-1.3156 3.2106,-2.9784l17.5603 0 0 0.299z"/>
   <path id="_119952136" class="fil0" d="M14.6563 21.2999c0.1752,0.3722 0.6187,0.5313 0.9909,0.3562 0.3722,-0.1757 0.5312,-0.6195 0.3561,-0.9913 -0.5045,-1.0698 -0.9641,-2.2501 -1.3662,-3.5077 -0.9843,-3.078 -1.442,-6.0475 -1.6551,-8.1603l11.9919 -3.9777 11.9881 3.9765c-0.2192,2.1638 -0.6893,5.1985 -1.6961,8.2998 -2.0999,6.4684 -5.5623,10.4154 -10.292,11.7356 -3.2121,-0.8966 -5.857,-3.016 -7.8629,-6.3017 -0.2143,-0.3511 -0.673,-0.4619 -1.0238,-0.2473 -0.3511,0.2143 -0.4619,0.6724 -0.2476,1.0235 2.2531,3.6902 5.2625,6.0509 8.9453,7.0173 0.0617,0.0165 0.1253,0.0245 0.189,0.0245 0.0632,0 0.1269,-0.008 0.189,-0.0245 5.3488,-1.4037 9.2248,-5.6991 11.5196,-12.7673 1.1442,-3.5258 1.6207,-6.9572 1.8188,-9.2149 0.0296,-0.3435 -0.1801,-0.6635 -0.5078,-0.772l-12.7853 -4.241c-0.1522,-0.0501 -0.3167,-0.0501 -0.4689,0l-12.7888 4.2422c-0.3274,0.1084 -0.5371,0.4277 -0.5071,0.7716 0.1912,2.2024 0.6543,5.5637 1.7755,9.0691 0.4212,1.3197 0.905,2.5606 1.4374,3.6894z"/>
   <path id="_119961040" class="fil0" d="M24.9739 22.359c0.6198,0 1.1641,-0.5439 1.1641,-1.1641 0,-0.6309 -0.5331,-1.1641 -1.1641,-1.1641 -0.6527,0 -1.1637,0.5113 -1.1637,1.1641 0,0.642 0.522,1.1642 1.1637,1.1641z"/>
   <path id="_119959024" class="fil0" d="M24.957 18.8364c0.3254,0 0.8422,-0.1783 0.8422,-0.6558 0,-1.1178 0.0601,-2.4433 0.1184,-3.7254 0.0587,-1.2827 0.1184,-2.6085 0.1184,-3.7263 0,-0.5562 -0.4438,-0.9445 -1.079,-0.9445 -0.6355,0 -1.0625,0.3799 -1.0625,0.9445 0,1.1178 0.0559,2.4436 0.11,3.7263 0.0541,1.2821 0.11,2.6076 0.11,3.7254 0,0.4108 0.3147,0.6558 0.8425,0.6558z"/>
  </g>
  <rect class="fil1" x="0.0228006" width="50" height="50"/>
 </g>
</svg>
