<?xml version="1.0" encoding="UTF-8"?>
<!DOCTYPE svg PUBLIC "-//W3C//DTD SVG 1.1//EN" "http://www.w3.org/Graphics/SVG/1.1/DTD/svg11.dtd">
<!-- Creator: CorelDRAW -->
<svg xmlns="http://www.w3.org/2000/svg" xml:space="preserve" width="50mm" height="50mm" style="shape-rendering:geometricPrecision; text-rendering:geometricPrecision; image-rendering:optimizeQuality; fill-rule:evenodd; clip-rule:evenodd"
viewBox="0 0 50 50"
 xmlns:xlink="http://www.w3.org/1999/xlink">
 <defs>
  <style type="text/css">
   <![CDATA[
    .fil1 {fill:none}
    .fil0 {fill:black}
   ]]>
  </style>
 </defs>
 <g id="Layer_x0020_1">
  <metadata id="CorelCorpID_0Corel-Layer"/>
  <g id="_104299392">
   <path id="_122720136" class="fil0" d="M38.5418 0l-35.4167 0c-1.7259,0 -3.125,1.3991 -3.125,3.125l0 25c0,1.7259 1.3991,3.125 3.125,3.125l13.5417 0 0 -2.0833 -13.5417 0c-0.5753,0 -1.0417,-0.4664 -1.0417,-1.0417l0 -25c0,-0.5753 0.4664,-1.0417 1.0417,-1.0417l35.4167 0c0.5753,0 1.0417,0.4664 1.0417,1.0417l0 18.75 2.0833 0 0 -18.75c0,-1.7259 -1.3991,-3.125 -3.125,-3.125z"/>
   <rect id="_122720928" class="fil0" x="12.5001" y="30.2083" width="2.08331" height="6.25"/>
   <path id="_122721048" class="fil0" d="M7.2918 25c-0.5753,0 -1.0417,-0.4664 -1.0417,-1.0417l0 -2.0833 -2.0833 0 0 2.0833c0,1.7259 1.3991,3.125 3.125,3.125l2.0833 0 0 -2.0833 -2.0833 0z"/>
   <rect id="_122721888" class="fil0" x="4.16681" y="17.7083" width="2.08331" height="2.08331"/>
   <path id="_122722152" class="fil0" d="M38.0699 22.0645c-2.1226,-2.123 -5.0018,-3.3157 -8.004,-3.3156 -6.2506,0.0003 -11.3174,5.0676 -11.3173,11.3182 0.0003,6.2506 5.0676,11.3175 11.3182,11.3173 3.0012,-0.0001 5.8793,-1.1922 8.0017,-3.3142 4.4202,-4.4194 4.4209,-11.5853 0.0014,-16.0057zm-8.0094 17.2375c-5.1,-0.0017 -9.233,-4.1375 -9.2312,-9.2375 0.0017,-5.1 4.1375,-9.233 9.2375,-9.2312 2.4512,-0.0067 4.8031,0.9687 6.5302,2.7083 1.7302,1.7322 2.7018,4.0808 2.701,6.5292 -0.0017,5.1 -4.1375,9.233 -9.2375,9.2312z"/>
   <path id="_122722344" class="fil0" d="M49.6949 45.3125l-6.5385 -6.5364c-0.1954,-0.1953 -0.4603,-0.3052 -0.7365,-0.3052 -0.2762,0.0001 -0.5411,0.1099 -0.7364,0.3052l-2.9063 2.9062c-0.4066,0.4068 -0.4066,1.0662 0,1.473l6.5386 6.5395c0.1953,0.1954 0.4603,0.3052 0.7364,0.3052l0 0c0.2767,-0.0009 0.5417,-0.1118 0.7365,-0.3083l2.9062 -2.9063c0.4067,-0.4068 0.4067,-1.0662 0,-1.4729zm-3.6428 2.173l-5.0656 -5.0667 1.4333 -1.4333 5.0656 5.0666 -1.4333 1.4334z"/>
   <rect id="_122723016" class="fil0" transform="matrix(0.168357 -0.168357 0.168357 0.168357 36.5967 38.0691)" width="8.7499" height="21.5775"/>
   <path id="_122723304" class="fil0" d="M30.2084 22.9167l0 2.0833c2.8751,0.0034 5.2049,2.3333 5.2083,5.2083l2.0833 0c-0.0045,-4.0251 -3.2664,-7.287 -7.2916,-7.2916z"/>
   <rect id="_122724096" class="fil0" x="10.4168" y="35.4167" width="8.33331" height="2.08331"/>
   <path id="_122724360" class="fil0" d="M15.6251 4.1667c-1.7259,0 -3.125,1.3991 -3.125,3.125 0,1.7259 1.3991,3.125 3.125,3.125 1.7259,0 3.125,-1.3991 3.125,-3.125 0,-1.7259 -1.3991,-3.125 -3.125,-3.125zm0 4.1666c-0.5753,0 -1.0417,-0.4664 -1.0417,-1.0417 0,-0.5753 0.4664,-1.0417 1.0417,-1.0417 0.5753,0 1.0417,0.4664 1.0417,1.0417 0,0.5754 -0.4664,1.0417 -1.0417,1.0417z"/>
   <path id="_122724552" class="fil0" d="M22.9168 11.4583c-1.7259,0 -3.125,1.3991 -3.125,3.125 0,1.7259 1.3991,3.125 3.125,3.125 1.7259,0 3.125,-1.3991 3.125,-3.125 0,-1.7259 -1.3991,-3.125 -3.125,-3.125zm0 4.1667c-0.5753,0 -1.0417,-0.4664 -1.0417,-1.0417 0,-0.5753 0.4664,-1.0417 1.0417,-1.0417 0.5753,0 1.0417,0.4664 1.0417,1.0417 -0.0001,0.5753 -0.4664,1.0417 -1.0417,1.0417z"/>
   <rect id="_122725224" class="fil0" transform="matrix(0.168357 -0.168357 0.168357 0.168357 8.63848 12.8054)" width="30.9356" height="8.7499"/>
   <rect id="_122725992" class="fil0" transform="matrix(0.168357 -0.168357 0.168357 0.168357 15.9257 9.07288)" width="8.7499" height="30.9356"/>
   <path id="_122726280" class="fil0" d="M30.2084 4.1667c-1.7259,0 -3.125,1.3991 -3.125,3.125 0,1.7259 1.3991,3.125 3.125,3.125 1.7259,0 3.125,-1.3991 3.125,-3.125 0.0001,-1.7259 -1.399,-3.125 -3.125,-3.125zm0 4.1666c-0.5753,0 -1.0417,-0.4664 -1.0417,-1.0417 0,-0.5753 0.4664,-1.0417 1.0417,-1.0417 0.5753,0 1.0417,0.4664 1.0417,1.0417 0,0.5754 -0.4664,1.0417 -1.0417,1.0417z"/>
   <rect id="_122726952" class="fil0" transform="matrix(0.168357 -0.168357 0.168357 0.168357 23.2213 12.809)" width="30.9356" height="8.7499"/>
  </g>
  <rect class="fil1" width="50" height="50"/>
 </g>
</svg>
