<?xml version="1.0" encoding="UTF-8"?>
<!DOCTYPE svg PUBLIC "-//W3C//DTD SVG 1.1//EN" "http://www.w3.org/Graphics/SVG/1.1/DTD/svg11.dtd">
<!-- Creator: CorelDRAW -->
<svg xmlns="http://www.w3.org/2000/svg" xml:space="preserve" width="50mm" height="50mm" style="shape-rendering:geometricPrecision; text-rendering:geometricPrecision; image-rendering:optimizeQuality; fill-rule:evenodd; clip-rule:evenodd"
viewBox="0 0 50 50"
 xmlns:xlink="http://www.w3.org/1999/xlink">
 <defs>
  <style type="text/css">
   <![CDATA[
    .fil1 {fill:none}
    .fil0 {fill:black}
   ]]>
  </style>
 </defs>
 <g id="Layer_x0020_1">
  <metadata id="CorelCorpID_0Corel-Layer"/>
  <g id="_119951272">
   <path id="_119948824" class="fil0" d="M48.8182 20.6329l-5.5977 -1.1024c-0.3692,-1.2291 -0.8625,-2.4158 -1.4729,-3.5457l3.1155 -4.6734c0.3872,-0.581 0.3109,-1.3546 -0.1831,-1.8487l-4.1427 -4.1427c-0.4937,-0.494 -1.2677,-0.5707 -1.8487,-0.1831l-4.6734 3.1155c-1.1299,-0.6104 -2.3166,-1.1036 -3.5457,-1.4729l-1.1024 -5.5977c-0.1355,-0.6867 -0.7374,-1.1818 -1.4375,-1.1818l-5.8593 0c-0.7,0 -1.302,0.4952 -1.4374,1.1819l-1.1024 5.5976c-1.2291,0.3692 -2.4159,0.8625 -3.5457,1.4729l-4.6735 -3.1155c-0.5809,-0.3872 -1.355,-0.3109 -1.8486,0.1831l-4.1427 4.1427c-0.494,0.4941 -0.5703,1.2677 -0.1831,1.8487l3.1154 4.6734c-0.6103,1.1299 -1.1036,2.3166 -1.4732,3.5457l-5.5977 1.1024c-0.6863,0.1355 -1.1814,0.7374 -1.1814,1.4375l0 5.8593c0,0.7 0.4951,1.302 1.1818,1.4374l5.5977 1.1024c0.3692,1.2291 0.8625,2.4159 1.4728,3.5457l-3.1154 4.6735c-0.3872,0.5809 -0.3105,1.3546 0.1831,1.8486l4.1427 4.1427c0.4936,0.494 1.2677,0.5703 1.8486,0.1831l4.6735 -3.1154c1.1298,0.6103 2.3166,1.1036 3.5456,1.4728l1.1025 5.5977c0.1355,0.6867 0.7374,1.1818 1.4374,1.1818l5.8594 0c0.7,0 1.3019,-0.4951 1.4374,-1.1818l1.1024 -5.5977c1.2291,-0.3692 2.4158,-0.8625 3.5457,-1.4728l4.6734 3.1154c0.581,0.3872 1.3546,0.3105 1.8487,-0.1831l4.1427 -4.1431c0.494,-0.4936 0.5703,-1.2673 0.1831,-1.8482l-3.1155 -4.6735c0.6104,-1.1298 1.1036,-2.3166 1.4729,-3.5456l5.5977 -1.1025c0.6867,-0.1355 1.1818,-0.7374 1.1818,-1.4374l0 -5.8594c0,-0.7 -0.4952,-1.3019 -1.1818,-1.4374zm-1.7479 6.0925l-5.3059 1.0452c-0.5581,0.1099 -1.0025,0.5333 -1.1386,1.0857 -0.3888,1.5724 -1.0118,3.0723 -1.8521,4.4587 -0.2949,0.4863 -0.2815,1.0989 0.034,1.5719l2.9517 4.4278 -2.4448 2.4448 -4.4281 -2.9518c-0.4727,-0.3155 -1.0856,-0.3285 -1.5716,-0.0336 -1.3867,0.8404 -2.8866,1.4633 -4.4587,1.8517 -0.5523,0.1365 -0.9758,0.5806 -1.086,1.1391l-1.0448 5.3054 -3.4504 0 -1.0452 -5.3055c-0.1103,-0.5584 -0.5337,-1.0025 -1.0861,-1.139 -1.572,-0.3884 -3.0719,-1.0117 -4.4587,-1.8521 -0.4859,-0.2945 -1.0989,-0.2815 -1.5719,0.034l-4.4278 2.9518 -2.4448 -2.4448 2.9518 -4.4278c0.3155,-0.473 0.3285,-1.086 0.034,-1.5719 -0.8404,-1.3864 -1.4633,-2.8867 -1.8521,-4.4587 -0.1365,-0.5524 -0.5806,-0.9758 -1.1391,-1.0857l-5.3054 -1.0452 0 -3.4504 5.3055 -1.0452c0.5584,-0.1103 1.0025,-0.5337 1.139,-1.086 0.3888,-1.5721 1.0117,-3.072 1.8521,-4.4587 0.2945,-0.486 0.2815,-1.0989 -0.034,-1.572l-2.9518 -4.4277 2.4448 -2.4448 4.4278 2.9517c0.473,0.3155 1.086,0.3285 1.5719,0.034 1.3868,-0.8404 2.8867,-1.4633 4.4587,-1.8521 0.5524,-0.1365 0.9758,-0.5805 1.0861,-1.139l1.0448 -5.3055 3.4504 0 1.0452 5.3055c0.1103,0.5585 0.5337,1.0025 1.086,1.139 1.5721,0.3884 3.072,1.0118 4.4587,1.8521 0.486,0.2945 1.0989,0.2815 1.572,-0.034l4.4277 -2.9517 2.4448 2.4448 -2.9517 4.4277c-0.3155,0.4731 -0.3285,1.086 -0.034,1.572 0.8404,1.3863 1.4637,2.8866 1.8521,4.4587 0.1361,0.5523 0.5805,0.9758 1.139,1.0856l5.3055 1.0452 0 3.4508z"/>
   <path id="_119952952" class="fil0" d="M25 11.8164c-7.2693,0 -13.1836,5.9143 -13.1836,13.1836 0,7.2693 5.9142,13.1836 13.1836,13.1836 7.2693,0 13.1836,-5.9142 13.1836,-13.1836 0,-7.2693 -5.9143,-13.1836 -13.1836,-13.1836zm0 23.4375c-5.6541,0 -10.2539,-4.5998 -10.2539,-10.2539 0,-5.6541 4.5998,-10.2539 10.2539,-10.2539 5.6541,0 10.2539,4.5998 10.2539,10.2539 0,5.6541 -4.5998,10.2539 -10.2539,10.2539z"/>
   <path id="_119949688" class="fil0" d="M25 17.6758c-4.0386,0 -7.3242,3.2857 -7.3242,7.3242 0,4.0386 3.2856,7.3242 7.3242,7.3242 4.0386,0 7.3242,-3.2856 7.3242,-7.3242 0,-4.0386 -3.2857,-7.3242 -7.3242,-7.3242zm0 11.7188c-2.4231,0 -4.3946,-1.9715 -4.3946,-4.3946 0,-2.423 1.9715,-4.3945 4.3946,-4.3945 2.423,0 4.3945,1.9715 4.3945,4.3945 0,2.4231 -1.9715,4.3946 -4.3945,4.3946z"/>
  </g>
  <rect class="fil1" width="50" height="50"/>
 </g>
</svg>
