<?xml version="1.0" encoding="UTF-8"?>
<!DOCTYPE svg PUBLIC "-//W3C//DTD SVG 1.1//EN" "http://www.w3.org/Graphics/SVG/1.1/DTD/svg11.dtd">
<!-- Creator: CorelDRAW -->
<svg xmlns="http://www.w3.org/2000/svg" xml:space="preserve" width="50mm" height="50mm" style="shape-rendering:geometricPrecision; text-rendering:geometricPrecision; image-rendering:optimizeQuality; fill-rule:evenodd; clip-rule:evenodd"
viewBox="0 0 50 50"
 xmlns:xlink="http://www.w3.org/1999/xlink">
 <defs>
  <style type="text/css">
   <![CDATA[
    .fil1 {fill:none}
    .fil0 {fill:black}
   ]]>
  </style>
 </defs>
 <g id="Layer_x0020_1">
  <metadata id="CorelCorpID_0Corel-Layer"/>
  <g id="_119573232">
   <path id="_119576112" class="fil0" d="M46.4192 12.1006c-0.2091,-0.3464 -0.6592,-0.4577 -1.0056,-0.2488 -0.346,0.2091 -0.4573,0.6592 -0.2484,1.0056 2.2046,3.6533 3.37,7.8522 3.37,12.1426 0,6.2866 -2.4479,12.1968 -6.8932,16.642 -4.4452,4.4453 -10.3554,6.8931 -16.642,6.8931 -6.2866,0 -12.1968,-2.4478 -16.642,-6.8931 -4.4453,-4.4452 -6.8931,-10.3554 -6.8931,-16.642 0,-6.2867 2.4478,-12.1968 6.8931,-16.642 4.4452,-4.4453 10.3554,-6.8932 16.642,-6.8932 4.2927,0 8.4931,1.1665 12.1476,3.373 0.3464,0.2094 0.7965,0.098 1.0055,-0.2484 0.209,-0.3464 0.098,-0.7964 -0.2483,-1.0055 -3.883,-2.3445 -8.3454,-3.5839 -12.9048,-3.5839 -6.6776,0 -12.9559,2.6005 -17.6777,7.3223 -4.7218,4.7218 -7.3223,11.0001 -7.3223,17.6777 0,6.6776 2.6005,12.9559 7.3223,17.6777 4.7218,4.7218 11.0001,7.3223 17.6777,7.3223 6.6776,0 12.9559,-2.6005 17.6777,-7.3223 4.7218,-4.7218 7.3223,-11.0001 7.3223,-17.6777 0,-4.5571 -1.2383,-9.018 -3.5808,-12.8994z"/>
   <path id="_119572992" class="fil0" d="M35.3722 10.651c-0.1651,0.9621 -0.0229,1.8398 0.399,2.5421l-5.8353 5.8354c-0.3079,-0.1538 -0.655,-0.2407 -1.022,-0.2407 -1.2669,0 -2.298,1.0311 -2.298,2.298 0,0.3669 0.087,0.7137 0.2407,1.0219l-2.3746 2.3742c-0.2861,0.2862 -0.2861,0.75 -0.0001,1.0358 0.1431,0.143 0.3304,0.2147 0.5181,0.2147 0.1873,0 0.375,-0.0717 0.5177,-0.2147l2.3746 -2.3743c0.3079,0.1537 0.6546,0.2403 1.0216,0.2403 1.2673,0 2.2979,-1.0307 2.2979,-2.2979 0,-0.3671 -0.0865,-0.7138 -0.2403,-1.0217l5.8347 -5.8349c0.5107,0.3071 1.1146,0.4661 1.776,0.4661 0.248,0 0.5043,-0.0225 0.7665,-0.0675 1.1577,-0.1983 2.3143,-0.827 3.2569,-1.7692 0.9427,-0.9426 1.5709,-2.0992 1.7696,-3.257 0.1649,-0.9621 0.0226,-1.8399 -0.399,-2.5421l0.3293 -0.3296c0.286,-0.2858 0.286,-0.7496 0,-1.0357 -0.2861,-0.2857 -0.7496,-0.2857 -1.0358,0l-0.3292 0.3296c-0.7022,-0.422 -1.5804,-0.5642 -2.5424,-0.399 -1.1575,0.1987 -2.3141,0.827 -3.2567,1.7696 -0.9422,0.9422 -1.5709,2.0989 -1.7692,3.2566zm-6.458 11.2682c-0.4596,0 -0.833,-0.3738 -0.833,-0.8331 0,-0.4596 0.3738,-0.8335 0.833,-0.8335 0.4593,0 0.8332,0.3739 0.8332,0.8335 0,0.4593 -0.3739,0.8331 -0.8332,0.8331zm12.6557 -10.0968c-1.1398,1.1399 -2.6397,1.6339 -3.6613,1.3048l4.9659 -4.9661c0.3292,1.022 -0.1647,2.5216 -1.3046,3.6613zm-0.4097 -4.7976c0.2415,0 0.4688,0.0343 0.6775,0.1018l-4.9648 4.9648c-0.3292,-1.0216 0.1648,-2.5215 1.3046,-3.6613 0.9068,-0.9072 2.042,-1.4053 2.9827,-1.4053z"/>
   <path id="_119569656" class="fil0" d="M40.9954 16.8365c-0.1842,-0.36 -0.6252,-0.5027 -0.9853,-0.3184 -0.3601,0.1837 -0.5028,0.6252 -0.3189,0.9852 1.0826,2.1172 1.6792,4.3897 1.7811,6.7643l-6.3725 0c-0.0858,-1.2097 -0.3838,-2.3788 -0.8907,-3.4844 -0.1687,-0.3677 -0.6031,-0.5291 -0.9709,-0.3605 -0.3677,0.1686 -0.5291,0.6036 -0.3605,0.9712 0.4185,0.9125 0.6706,1.8761 0.7535,2.8737l-5.4997 0c-0.4043,0 -0.7325,0.328 -0.7325,0.7324 0,1.3229 -1.076,2.3986 -2.3986,2.3986 -1.3229,0 -2.399,-1.076 -2.399,-2.3986 0,-1.3226 1.076,-2.3986 2.399,-2.3986 0.4044,-0.0001 0.7324,-0.3282 0.7324,-0.7325l0 -5.5001c0.9976,0.0829 1.9615,0.3354 2.8744,0.7542 0.3677,0.1686 0.8022,0.0073 0.9712,-0.3605 0.1686,-0.3677 0.0072,-0.8026 -0.3605,-0.9712 -1.1059,-0.5069 -2.275,-0.8053 -3.4851,-0.8911l0 -6.3725c2.3735,0.1019 4.6451,0.6982 6.7612,1.7796 0.3605,0.1843 0.8014,0.0416 0.9857,-0.3189 0.1839,-0.3601 0.0412,-0.8015 -0.319,-0.9854 -2.5416,-1.2988 -5.2871,-1.9576 -8.1607,-1.9576 -9.9003,0 -17.9546,8.0543 -17.9546,17.9546 0,9.9003 8.0543,17.9546 17.9546,17.9546 9.9003,0 17.9546,-8.0543 17.9546,-17.9546 0,-2.8748 -0.6592,-5.6213 -1.9592,-8.1635zm-3.8349 19.2883l-4.504 -4.5044c1.3882,-1.6033 2.282,-3.6457 2.4433,-5.888l6.3729 0c-0.1755,3.9951 -1.7789,7.626 -4.3122,10.3924zm-28.6331 -10.3924l0.816 0c0.4047,0 0.7324,-0.328 0.7324,-0.7324 0,-0.4044 -0.3277,-0.7324 -0.7324,-0.7324l-0.816 0c0.1754,-3.9951 1.7788,-7.626 4.3122,-10.3924l4.504 4.5044c-1.3882,1.6033 -2.2821,3.6457 -2.4434,5.888l-2.4254 0c-0.4047,0 -0.7324,0.328 -0.7324,0.7324 0,0.4044 0.3277,0.7324 0.7324,0.7324l2.4254 0c0.161,2.2423 1.0552,4.2847 2.4433,5.888l-4.5039 4.5044c-2.5334,-2.7664 -4.1368,-6.3973 -4.3122,-10.3924zm15.7402 -4.5258c-0.5219,0.1008 -1.0068,0.306 -1.4313,0.594l-3.4179 -3.418c1.3332,-1.1265 3.0105,-1.8581 4.8492,-2.0126l0 4.8366zm0 7.5868l0 4.8366c-1.8387,-0.1545 -3.516,-0.8862 -4.8493,-2.0126l3.418 -3.418c0.4245,0.288 0.9094,0.4932 1.4313,0.594zm2.8961 -0.594l3.418 3.418c-1.3332,1.1264 -3.0106,1.8581 -4.8493,2.0126l0 -4.8366c0.5219,-0.1008 1.0068,-0.306 1.4313,-0.594zm1.6297 -2.467l4.8366 0c-0.1545,1.8387 -0.8862,3.516 -2.0126,4.8493l-3.418 -3.418c0.288,-0.4245 0.4932,-0.9094 0.594,-1.4313zm-6.9928 -2.8961c-0.288,0.4245 -0.4932,0.9094 -0.594,1.4313l-4.8366 0c0.1545,-1.8387 0.8862,-3.5161 2.0126,-4.8493l3.418 3.418zm-0.594 2.8961c0.1008,0.5219 0.306,1.0068 0.594,1.4313l-3.418 3.4179c-1.1264,-1.3336 -1.8581,-3.0105 -2.0126,-4.8492l4.8366 0zm-2.827 -8.3889l-4.5044 -4.504c2.7664,-2.5333 6.3973,-4.1367 10.3924,-4.3122l0 6.3729c-2.2423,0.1613 -4.2847,1.0552 -5.888,2.4433zm0 15.3129c1.6033,1.3882 3.6457,2.2824 5.888,2.4434l0 6.3728c-3.9951,-0.1754 -7.626,-1.7788 -10.3924,-4.3122l4.5044 -4.504zm7.3528 2.4434c2.2423,-0.1613 4.2847,-1.0552 5.888,-2.4437l4.5044 4.5043c-2.7664,2.5334 -6.3973,4.1368 -10.3924,4.3122l0 -6.3728z"/>
   <path id="_119572464" class="fil0" d="M25.7324 4.6467l0 -0.7829c0,-0.4046 -0.328,-0.7324 -0.7324,-0.7324 -0.4044,0 -0.7324,0.3278 -0.7324,0.7325l0 0.7828c0,0.4043 0.328,0.7324 0.7324,0.7324 0.4044,0 0.7324,-0.328 0.7324,-0.7324z"/>
   <path id="_119563128" class="fil0" d="M24.2676 45.3533l0 0.7828c0,0.4047 0.328,0.7324 0.7324,0.7324 0.4044,0 0.7324,-0.3277 0.7324,-0.7324l0 -0.7828c0,-0.4044 -0.328,-0.7324 -0.7324,-0.7324 -0.4044,0 -0.7324,0.328 -0.7324,0.7324z"/>
   <path id="_119565480" class="fil0" d="M46.1365 25.7324c0.4043,0 0.7325,-0.328 0.7325,-0.7324 0,-0.4044 -0.3282,-0.7324 -0.7325,-0.7324l-0.7828 0c-0.4047,0 -0.7324,0.328 -0.7324,0.7324 0,0.4044 0.3276,0.7324 0.7324,0.7324l0.7828 0z"/>
   <path id="_119573784" class="fil0" d="M5.3791 25c0,-0.4044 -0.328,-0.7324 -0.7324,-0.7324l-0.7828 0c-0.4047,0 -0.7324,0.328 -0.7324,0.7324 0,0.4044 0.3277,0.7324 0.7324,0.7324l0.7828 0c0.4044,0 0.7324,-0.328 0.7324,-0.7324z"/>
   <path id="_119563152" class="fil0" d="M10.0898 38.874l-0.5535 0.5535c-0.2856,0.2862 -0.2856,0.75 0,1.0362 0.1431,0.1429 0.3308,0.2143 0.5181,0.2143 0.1873,0 0.375,-0.0714 0.5181,-0.2143l0.5535 -0.5535c0.2856,-0.2862 0.2856,-0.75 0,-1.0362 -0.2862,-0.2856 -0.75,-0.2856 -1.0362,0z"/>
   <path id="_119567688" class="fil0" d="M38.874 38.874c-0.286,0.2862 -0.286,0.75 0,1.0362l0.5535 0.5535c0.1431,0.1429 0.3304,0.2143 0.5181,0.2143 0.1873,0 0.375,-0.0714 0.5177,-0.2143 0.286,-0.2862 0.286,-0.75 0,-1.0362l-0.5535 -0.5535c-0.2858,-0.2856 -0.7496,-0.2856 -1.0358,0z"/>
   <path id="_119568432" class="fil0" d="M10.6079 11.3403c0.1873,0 0.375,-0.0713 0.5181,-0.2143 0.2856,-0.2862 0.2856,-0.75 0,-1.0362l-0.5535 -0.5535c-0.2862,-0.286 -0.75,-0.2856 -1.0362,0 -0.2856,0.2861 -0.2856,0.75 0,1.0362l0.5535 0.5535c0.1431,0.143 0.3308,0.2143 0.5181,0.2143z"/>
   <path id="_119577264" class="fil0" d="M17.2111 6.9286c0.0935,0 0.1885,-0.0179 0.28,-0.0561 0.374,-0.1549 0.5513,-0.5832 0.3968,-0.9571l-0.2998 -0.7228c-0.1545,-0.3739 -0.5833,-0.5513 -0.9568,-0.3968 -0.3738,0.1549 -0.5512,0.5833 -0.3963,0.9571l0.2994 0.7232c0.1168,0.282 0.3895,0.4525 0.6767,0.4525z"/>
   <path id="_119575344" class="fil0" d="M32.5089 43.1275c-0.3739,0.1548 -0.5517,0.5832 -0.3968,0.9571l0.2996 0.7228c0.117,0.2824 0.3898,0.4525 0.677,0.4525 0.0935,0 0.1885,-0.018 0.28,-0.0557 0.3738,-0.1549 0.5512,-0.5833 0.3963,-0.9571l-0.2993 -0.7233c-0.1549,-0.3739 -0.5834,-0.5512 -0.9568,-0.3963z"/>
   <path id="_119576880" class="fil0" d="M43.5239 16.5343c-0.374,0.1549 -0.5513,0.5834 -0.3964,0.9568 0.1167,0.2823 0.3894,0.4525 0.6771,0.4525 0.0935,-0.0001 0.188,-0.0179 0.28,-0.0557l0.7228 -0.2998c0.3739,-0.1549 0.5513,-0.5833 0.3968,-0.9568 -0.1549,-0.3738 -0.5837,-0.5512 -0.9571,-0.3967l-0.7232 0.2997z"/>
   <path id="_119571480" class="fil0" d="M5.4729 33.8211c0.0935,0 0.1885,-0.0179 0.28,-0.0561l0.7233 -0.2994c0.3735,-0.1549 0.5512,-0.5833 0.3963,-0.9571 -0.1548,-0.3736 -0.5832,-0.5509 -0.9571,-0.3964l-0.7232 0.2998c-0.3734,0.1545 -0.5513,0.5829 -0.3964,0.9568 0.1172,0.2823 0.3896,0.4524 0.6771,0.4524z"/>
   <path id="_119571888" class="fil0" d="M32.7889 6.9286c0.2872,0 0.5599,-0.1705 0.6767,-0.4524l0.2995 -0.7233c0.1548,-0.3738 -0.0226,-0.8022 -0.3964,-0.9571 -0.3739,-0.1545 -0.8023,0.0229 -0.9568,0.3968l-0.2998 0.7228c-0.1545,0.3738 0.0229,0.8023 0.3968,0.9571 0.0915,0.0378 0.1865,0.0561 0.28,0.0561z"/>
   <path id="_119577864" class="fil0" d="M16.5344 43.5238l-0.2994 0.7233c-0.1549,0.3738 0.0225,0.8022 0.3963,0.9571 0.0916,0.0377 0.1866,0.056 0.28,0.056 0.2873,0 0.56,-0.1704 0.6771,-0.4524l0.2995 -0.7232c0.1549,-0.3739 -0.0228,-0.8023 -0.3968,-0.9571 -0.3734,-0.1549 -0.8018,0.0224 -0.9567,0.3963z"/>
   <path id="_119569272" class="fil0" d="M44.0846 32.1121c-0.3738,-0.1549 -0.8023,0.0228 -0.9571,0.3964 -0.1549,0.3738 0.0224,0.8022 0.3963,0.9571l0.7233 0.2994c0.0915,0.0382 0.1865,0.0561 0.28,0.0561 0.2872,0 0.5599,-0.1701 0.6771,-0.4524 0.1545,-0.3739 -0.0229,-0.8023 -0.3968,-0.9568l-0.7228 -0.2998z"/>
   <path id="_119569224" class="fil0" d="M6.4762 16.5343l-0.7233 -0.2998c-0.3738,-0.1544 -0.8022,0.023 -0.9571,0.3968 -0.1545,0.3734 0.023,0.8019 0.3968,0.9568l0.7228 0.2998c0.092,0.0377 0.187,0.0557 0.28,0.0557 0.2877,-0.0001 0.5605,-0.1702 0.6771,-0.4525 0.1549,-0.3734 -0.0224,-0.8018 -0.3963,-0.9568z"/>
  </g>
  <rect class="fil1" width="50" height="50"/>
 </g>
</svg>
