<?xml version="1.0" encoding="UTF-8"?>
<!DOCTYPE svg PUBLIC "-//W3C//DTD SVG 1.1//EN" "http://www.w3.org/Graphics/SVG/1.1/DTD/svg11.dtd">
<!-- Creator: CorelDRAW -->
<svg xmlns="http://www.w3.org/2000/svg" xml:space="preserve" width="50mm" height="50mm" style="shape-rendering:geometricPrecision; text-rendering:geometricPrecision; image-rendering:optimizeQuality; fill-rule:evenodd; clip-rule:evenodd"
viewBox="0 0 50 50"
 xmlns:xlink="http://www.w3.org/1999/xlink">
 <defs>
  <style type="text/css">
   <![CDATA[
    .fil1 {fill:none}
    .fil0 {fill:black}
   ]]>
  </style>
 </defs>
 <g id="Layer_x0020_1">
  <metadata id="CorelCorpID_0Corel-Layer"/>
  <g id="_120195912">
   <path id="_103604456" class="fil0" d="M37.5001 28.125l0 -22.9167c-0.0034,-2.875 -2.3333,-5.2049 -5.2083,-5.2083l-22.9168 0c-0.2762,0.0001 -0.5411,0.1099 -0.7364,0.3052l-8.3334 8.3334c-0.1953,0.1953 -0.3052,0.4602 -0.3052,0.7364l0 35.4167c0.0034,2.875 2.3333,5.2049 5.2083,5.2083l27.0834 0c2.8751,-0.0034 5.2049,-2.3333 5.2083,-5.2083l0 -2.0833 -2.0833 0 0 2.0833c0,1.7259 -1.3991,3.125 -3.125,3.125l-27.0834 0c-1.7259,0 -3.125,-1.3991 -3.125,-3.125l0 -34.9855 7.723 -7.7229 22.4855 0c1.7259,0 3.125,1.3991 3.125,3.125l0 22.9167 2.0833 0z"/>
   <path id="_103604648" class="fil0" d="M8.3333 1.0417l0 6.25c0,0.5753 -0.4664,1.0417 -1.0417,1.0417l-2.0833 0 0 2.0833 2.0833 0c1.7259,0 3.125,-1.3991 3.125,-3.125l0 -6.25 -2.0833 0z"/>
   <path id="_103604888" class="fil0" d="M49.695 25.0645l-2.8844 -2.8843c-0.4067,-0.4067 -1.0661,-0.4067 -1.4729,0l-15.8657 15.8656c-0.4067,0.4067 -0.4067,1.0661 0,1.473l2.8844 2.8843c0.1953,0.1954 0.4602,0.3052 0.7364,0.3052 0.2763,-0.0001 0.5411,-0.1098 0.7364,-0.3052l15.8657 -15.8656c0.4068,-0.4067 0.4068,-1.0661 0.0001,-1.473zm-16.6022 15.1293l-1.4114 -1.4115 14.3927 -14.3926 1.4114 1.4114 -14.3927 14.3927z"/>
   <path id="_103605032" class="fil0" d="M31.2501 40.625l0 -2.0833 -2.0833 0 0 3.125c0,0.5753 0.4664,1.0417 1.0417,1.0417l3.125 0 0 -2.0834 -2.0834 0z"/>
   <path id="_103605224" class="fil0" d="M30.2084 4.1667l-2.0833 0 0 2.0833 2.0833 0c0.5753,0 1.0417,0.4664 1.0417,1.0417l0 2.0833 2.0833 0 0 -2.0833c0.0001,-1.7259 -1.399,-3.125 -3.125,-3.125z"/>
   <path id="_103393808" class="fil0" d="M27.0834 14.5833l-16.6667 0c-0.5753,0 -1.0417,0.4664 -1.0417,1.0417l0 14.5833c-0.0007,0.3983 0.2256,0.7622 0.5833,0.9375l7.2449 3.5417c0.476,0.2719 1.0144,0.4155 1.5625,0.4167l0 0c0.5169,0.0033 1.0258,-0.1284 1.4761,-0.3823l7.3 -3.5761c0.3577,-0.1753 0.5842,-0.5392 0.5833,-0.9375l0 -14.5833c0,-0.5753 -0.4664,-1.0417 -1.0417,-1.0417zm-1.0416 14.975l-6.775 3.3219c-0.3429,0.1872 -0.7601,0.1752 -1.0917,-0.0313l-6.7167 -3.2906 0 -12.8916 14.5833 0 0 12.8916 0.0001 0z"/>
   <path id="_103393952" class="fil0" d="M23.222 20.2552l-5.5136 5.5135 -2.3886 -2.3885 -1.473 1.4729 3.1251 3.125c0.1953,0.1953 0.4602,0.3052 0.7364,0.3052 0.2762,-0.0001 0.5411,-0.1099 0.7364,-0.3052l6.25 -6.25 -1.4727 -1.4729z"/>
   <path id="_103394120" class="fil0" d="M20.8334 40.625c-0.5753,0 -1.0417,-0.4664 -1.0417,-1.0417l0 -2.0833 -2.0833 0 0 2.0833c0,1.7259 1.3991,3.125 3.125,3.125l6.25 0 0 -2.0833 -6.25 0z"/>
   <rect id="_103394240" class="fil0" x="23.9584" y="4.16671" width="2.08332" height="2.08331"/>
  </g>
  <rect class="fil1" width="50" height="50"/>
 </g>
</svg>
