<?xml version="1.0" encoding="UTF-8"?>
<!DOCTYPE svg PUBLIC "-//W3C//DTD SVG 1.1//EN" "http://www.w3.org/Graphics/SVG/1.1/DTD/svg11.dtd">
<!-- Creator: CorelDRAW -->
<svg xmlns="http://www.w3.org/2000/svg" xml:space="preserve" width="50mm" height="50mm" style="shape-rendering:geometricPrecision; text-rendering:geometricPrecision; image-rendering:optimizeQuality; fill-rule:evenodd; clip-rule:evenodd"
viewBox="0 0 50 50"
 xmlns:xlink="http://www.w3.org/1999/xlink">
 <defs>
  <style type="text/css">
   <![CDATA[
    .fil1 {fill:none}
    .fil0 {fill:black}
   ]]>
  </style>
 </defs>
 <g id="Layer_x0020_1">
  <metadata id="CorelCorpID_0Corel-Layer"/>
  <g id="_103396664">
   <path id="_121593200" class="fil0" d="M45.1613 40.3226l1.6129 0 0 1.6129 -1.6129 0 0 -1.6129zm0 0z"/>
   <path id="_121593848" class="fil0" d="M41.9355 40.3226l1.6129 0 0 1.6129 -1.6129 0 0 -1.6129zm0 0z"/>
   <path id="_121593944" class="fil0" d="M38.7097 40.3226l1.6129 0 0 1.6129 -1.6129 0 0 -1.6129zm0 0z"/>
   <path id="_121594040" class="fil0" d="M16.9355 5.7507l0 9.4656 5.8897 -3.926 2.9812 0 0 -1.6129 -2.9812 0 -5.8897 -3.9267zm1.6129 6.4516l0 -3.4376 2.578 1.7192 -2.578 1.7184zm0 0z"/>
   <path id="_121594184" class="fil0" d="M45.9677 8.0645l-4.0322 0 0 -8.0645 -33.871 0 0 8.0645 -4.0322 0c-2.2233,0 -4.0323,1.809 -4.0323,4.0323l0 29.0322c0,2.2233 1.809,4.0323 4.0323,4.0323l9.6774 0 0 3.2258 -3.2258 0 0 1.6129 29.0322 0 0 -1.6129 -3.2258 0 0 -3.2258 9.6774 0c2.2233,0 4.0323,-1.809 4.0323,-4.0323l0 -29.0322c0,-2.2233 -1.809,-4.0323 -4.0323,-4.0323l0 0zm-41.9354 1.6129l4.0322 0 0 25.8065 33.871 0 0 -24.1936 -4.4355 0 -1.6452 2.193 -1.7306 -6.923 -2.4194 4.8387 -0.43 -1.7216 -2.2425 0 0 -6.4516 -17.742 0 0 16.1291 17.742 -0.0001 0 -6.4516 -1.6129 0 0 4.8387 -14.5162 0 0 -12.9032 14.5162 0 0 6.4516 2.5961 0 1.1821 4.73 2.4194 -4.8387 1.4952 5.9803 3.1943 -4.2587 2.0161 0 0 20.9678 -30.6452 0 0 -32.2581 30.6452 0 0 8.0645 5.6451 0c1.3338,0 2.4194,1.0857 2.4194,2.4194l0 25 -10.0113 0 -3.2259 3.2258 -33.537 0 0 -28.2258c0,-1.3337 1.0856,-2.4194 2.4194,-2.4194l0 0zm30.6451 38.7097l-19.3548 0 0 -3.2258 19.3548 0 0 3.2258zm11.2903 -4.8387l-41.9354 0c-1.0499,0 -1.937,-0.6765 -2.2709,-1.6129l34.0564 0 3.2258 -3.2258 9.3435 0 0 2.4193c0,1.3338 -1.0856,2.4194 -2.4194,2.4194l0 0zm0 0z"/>
   <path id="_121594280" class="fil0" d="M11.2903 27.4194l1.6129 0 0 4.8387 1.6129 0 0 -4.8387 1.6129 0 0 -1.6129 -1.6129 -0.0001 0 -4.8387 -1.6129 0 0 4.8387 -1.6129 0 0 1.613zm0 0z"/>
   <path id="_121594376" class="fil0" d="M19.3548 32.2581l1.6129 0 0 -1.6129 1.6129 0 0 -1.6129 -1.6129 0 0 -8.0646 -1.6129 0 0 8.0646 -1.6129 0 0 1.6128 1.6129 0.0001 0 1.6129zm0 0z"/>
   <path id="_121594472" class="fil0" d="M25.8064 32.2581l1.613 0 0 -8.0645 1.6129 0 0 -1.6129 -1.6129 -0.0001 0 -1.6129 -1.613 0 0 1.6129 -1.6128 0 0 1.6129 1.6128 0.0001 0 8.0645zm0 0z"/>
   <path id="_121594520" class="fil0" d="M30.6452 20.9677l8.0645 0 0 1.6129 -8.0645 0 0 -1.6129zm0 0z"/>
   <path id="_121594616" class="fil0" d="M30.6452 24.1936l8.0645 0 0 1.6128 -8.0645 0 0 -1.6128zm0 0z"/>
   <path id="_121594712" class="fil0" d="M30.6452 27.4194l8.0645 0 0 1.6129 -8.0645 0 0 -1.6129zm0 0z"/>
   <path id="_121594808" class="fil0" d="M33.871 30.6452l1.6129 0 0 1.6129 -1.6129 0 0 -1.6129zm0 0z"/>
   <path id="_121594904" class="fil0" d="M37.0968 30.6452l1.6129 0 0 1.6129 -1.6129 0 0 -1.6129zm0 0z"/>
   <path id="_121595000" class="fil0" d="M30.6452 30.6452l1.6129 0 0 1.6129 -1.6129 0 0 -1.6129zm0 0z"/>
  </g>
  <rect class="fil1" width="50" height="50"/>
 </g>
</svg>
