<?xml version="1.0" encoding="UTF-8"?>
<!DOCTYPE svg PUBLIC "-//W3C//DTD SVG 1.1//EN" "http://www.w3.org/Graphics/SVG/1.1/DTD/svg11.dtd">
<!-- Creator: CorelDRAW -->
<svg xmlns="http://www.w3.org/2000/svg" xml:space="preserve" width="50mm" height="50mm" style="shape-rendering:geometricPrecision; text-rendering:geometricPrecision; image-rendering:optimizeQuality; fill-rule:evenodd; clip-rule:evenodd"
viewBox="0 0 50 50"
 xmlns:xlink="http://www.w3.org/1999/xlink">
 <defs>
  <style type="text/css">
   <![CDATA[
    .fil1 {fill:none}
    .fil0 {fill:black}
   ]]>
  </style>
 </defs>
 <g id="Layer_x0020_1">
  <metadata id="CorelCorpID_0Corel-Layer"/>
  <g id="_119949472">
   <path id="_119954056" class="fil0" d="M38.2812 14.5203l-1.0101 -1.0101 -1.1047 1.1046 2.3437 2.3438c0.1522,0.1523 0.3525,0.2289 0.5524,0.2289 0.1999,0 0.4002,-0.0766 0.5523,-0.2289l2.3438 -2.3438 -1.1047 -1.1046 -1.0102 1.0101 0 -8.2703c0,-0.4322 -0.3502,-0.7812 -0.7812,-0.7812l-3.125 0 0 1.5625 2.3437 0 0 7.489z"/>
   <polygon id="_119959648" class="fil0" points="28.125,5.4688 31.25,5.4688 31.25,7.0312 28.125,7.0312 "/>
   <polygon id="_119960464" class="fil0" points="32.8125,5.4688 34.375,5.4688 34.375,7.0312 32.8125,7.0312 "/>
   <path id="_119950312" class="fil0" d="M11.7187 35.4797l1.0102 1.0102 1.1047 -1.1047 -2.3438 -2.3438c-0.3055,-0.3055 -0.7991,-0.3055 -1.1047,0l-2.3437 2.3438 1.1047 1.1047 1.0101 -1.0102 0 8.2703c0,0.4322 0.3502,0.7813 0.7813,0.7813l3.125 0 0 -1.5625 -2.3438 0 0 -7.4891z"/>
   <polygon id="_119953624" class="fil0" points="18.75,42.9688 21.875,42.9688 21.875,44.5313 18.75,44.5313 "/>
   <polygon id="_119955760" class="fil0" points="15.625,42.9688 17.1875,42.9688 17.1875,44.5313 15.625,44.5313 "/>
   <path id="_119959912" class="fil0" d="M49.2187 31.25l-2.3437 0 0 -8.5937c0,-0.4323 -0.3502,-0.7813 -0.7813,-0.7813l-17.1875 0c-0.431,0 -0.7812,0.349 -0.7812,0.7813l0 11.7187 -2.3438 0c-0.431,0 -0.7812,0.349 -0.7812,0.7813l0 14.0625c0,0.4322 0.3502,0.7812 0.7812,0.7812l23.4375 0c0.4311,0 0.7813,-0.349 0.7813,-0.7812l0 -17.1875c0,-0.4323 -0.3502,-0.7813 -0.7813,-0.7813zm-19.5312 -7.8125l15.625 0 0 7.8125 -2.3438 0c-0.431,0 -0.7812,0.349 -0.7812,0.7813l0 2.3437 -12.5 0 0 -10.9375zm18.75 25l-21.875 0 0 -12.5 16.4062 0c0.4311,0 0.7813,-0.349 0.7813,-0.7812l0 -2.3438 4.6875 0 0 15.625z"/>
   <polygon id="_119953552" class="fil0" points="32.8125,26.5625 42.1875,26.5625 42.1875,28.125 32.8125,28.125 "/>
   <polygon id="_119950096" class="fil0" points="32.8125,29.6875 40.625,29.6875 40.625,31.25 32.8125,31.25 "/>
   <path id="_119956384" class="fil0" d="M44.5312 39.0625l-2.3437 0 0 1.5625 1.5625 0 0 3.125 -1.5625 0 0 1.5625 2.3437 0c0.4311,0 0.7813,-0.349 0.7813,-0.7812l0 -4.6875c0,-0.4323 -0.3502,-0.7813 -0.7813,-0.7813z"/>
   <path id="_119956528" class="fil0" d="M29.6875 39.8438l0 4.6875c0,0.4322 0.3502,0.7812 0.7812,0.7812l2.3438 0 0 -1.5625 -1.5625 0 0 -3.125 1.5625 0 0 -1.5625 -2.3438 0c-0.431,0 -0.7812,0.349 -0.7812,0.7813z"/>
   <polygon id="_119960200" class="fil0" points="34.375,41.4063 40.625,41.4063 40.625,42.9688 34.375,42.9688 "/>
   <path id="_119954224" class="fil0" d="M25 13.2813c0,-0.4323 -0.3502,-0.7813 -0.7813,-0.7813l-2.3437 0 0 -11.7187c0,-0.4322 -0.3502,-0.7813 -0.7813,-0.7813l-17.1875 0c-0.431,0 -0.7812,0.3491 -0.7812,0.7813l0 8.5937 -2.3438 0c-0.431,0 -0.7812,0.3491 -0.7812,0.7813l0 17.1875c0,0.4322 0.3502,0.7812 0.7812,0.7812l23.4375 0c0.4311,0 0.7813,-0.349 0.7813,-0.7812l0 -14.0625zm-20.3125 -11.7188l15.625 0 0 10.9375 -12.5 0 0 -2.3437c0,-0.4323 -0.3502,-0.7813 -0.7813,-0.7813l-2.3437 0 0 -7.8125zm18.75 25l-21.875 0 0 -15.625 4.6875 0 0 2.3438c0,0.4322 0.3502,0.7812 0.7812,0.7812l16.4063 0 0 12.5z"/>
   <polygon id="_119947240" class="fil0" points="7.8125,4.6875 17.1875,4.6875 17.1875,6.25 7.8125,6.25 "/>
   <polygon id="_119952496" class="fil0" points="9.375,7.8125 17.1875,7.8125 17.1875,9.375 9.375,9.375 "/>
   <path id="_119958112" class="fil0" d="M19.5312 17.1875l-2.3437 0 0 1.5625 1.5625 0 0 3.125 -1.5625 0 0 1.5625 2.3437 0c0.4311,0 0.7813,-0.349 0.7813,-0.7812l0 -4.6875c0,-0.4323 -0.3502,-0.7813 -0.7813,-0.7813z"/>
   <path id="_119951344" class="fil0" d="M4.6875 17.9688l0 4.6875c0,0.4322 0.3502,0.7812 0.7812,0.7812l2.3438 0 0 -1.5625 -1.5625 0 0 -3.125 1.5625 0 0 -1.5625 -2.3438 0c-0.431,0 -0.7812,0.3491 -0.7812,0.7813z"/>
   <polygon id="_119961232" class="fil0" points="9.375,19.5313 15.625,19.5313 15.625,21.0937 9.375,21.0937 "/>
  </g>
  <rect class="fil1" width="50" height="50"/>
 </g>
</svg>
