<?xml version="1.0" encoding="UTF-8"?>
<!DOCTYPE svg PUBLIC "-//W3C//DTD SVG 1.1//EN" "http://www.w3.org/Graphics/SVG/1.1/DTD/svg11.dtd">
<!-- Creator: CorelDRAW -->
<svg xmlns="http://www.w3.org/2000/svg" xml:space="preserve" width="50.001mm" height="50mm" style="shape-rendering:geometricPrecision; text-rendering:geometricPrecision; image-rendering:optimizeQuality; fill-rule:evenodd; clip-rule:evenodd"
viewBox="0 0 50.001 50"
 xmlns:xlink="http://www.w3.org/1999/xlink">
 <defs>
  <style type="text/css">
   <![CDATA[
    .fil1 {fill:none}
    .fil0 {fill:black}
   ]]>
  </style>
 </defs>
 <g id="Layer_x0020_1">
  <metadata id="CorelCorpID_0Corel-Layer"/>
  <g id="_119947792">
   <path id="_119955616" class="fil0" d="M38.5432 43.75l0 4.1667 -19.7922 0 0 -7.2917c0,-3.2953 -2.0438,-4.1666 -3.125,-4.1666l-6.25 0c-0.0829,0.0056 -0.1664,0.0056 -0.2492,0 -1.0819,-0.0687 -1.9029,-1.0015 -1.8336,-2.0834l0 -3.8833c0,-0.2981 -0.1283,-0.5824 -0.3516,-0.7797 -1.0446,-0.9629 -2.396,-1.5249 -3.8156,-1.5865 -0.0046,0.0005 -0.0091,0.0011 -0.0138,0.0016 -0.5019,0.0529 -0.9526,-0.3108 -1.006,-0.8133l5.0578 -9.1665c0.0844,-0.1546 0.1287,-0.3275 0.1292,-0.5035l0 -2.0188c0.0081,-7.4753 6.0664,-13.5329 13.5417,-13.5416l2.0833 -0.0001 0 -2.0833 -2.0833 0c-8.6258,0.0102 -15.6154,6.9997 -15.625,15.625l0 1.7512 -5.0792 9.2042c-0.0849,0.154 -0.1292,0.327 -0.1297,0.503 -0.0006,0.0223 -0.0009,0.0444 -0.001,0.0666l0 0.0084 0 0.0277 0 0.0084c0.0001,0.0222 0.0004,0.0445 0.001,0.0668 0.0494,1.6765 1.4486,2.9964 3.125,2.9471 0.7578,0.0421 1.4847,0.3143 2.0833,0.7802l0 3.3864c-0.002,0.0798 -0.002,0.1593 0,0.2391 0.0662,2.2349 1.9318,3.9937 4.1667,3.9276l6.221 0c0.178,0.0117 1.0707,0.1668 1.0707,2.0833l0 8.3334c0,0.5752 0.4664,1.0416 1.0416,1.0416l21.875 0c0.5758,0 1.0417,-0.4664 1.0417,-1.0416l0 -5.2084 -2.0828 0z"/>
   <path id="_119949568" class="fil0" d="M42.7099 0l-12.5 0c-2.8753,0.0035 -5.2054,2.3336 -5.2084,5.2083l0 9.375c0.0025,2.4745 1.743,4.6062 4.1667,5.1046l0 3.2288c0,0.5753 0.4664,1.0416 1.0417,1.0416l12.5 0c0.5752,0 1.0416,-0.4663 1.0416,-1.0416l0 -3.2288c2.4236,-0.4984 4.1641,-2.6301 4.1667,-5.1046l0 -9.375c-0.0037,-2.8747 -2.3336,-5.2048 -5.2083,-5.2083zm3.125 14.5833c0,1.7258 -1.3993,3.1251 -3.1251,3.1251 -0.5752,0 -1.0416,0.4663 -1.0416,1.0416l0 3.125 -10.4172 0 0 -3.125c0,-0.5753 -0.4659,-1.0416 -1.0417,-1.0416 -1.7258,0 -3.125,-1.3993 -3.125,-3.1251l0 -9.375c0,-1.7257 1.3992,-3.1249 3.125,-3.1249l12.5 -0.0001c1.7263,0 3.125,1.3993 3.125,3.125l0.0006 9.375z"/>
   <path id="_119960104" class="fil0" d="M32.2932 5.2083c-1.7263,0 -3.125,1.3993 -3.125,3.1251 0,1.7257 1.3987,3.125 3.125,3.125 1.7258,-0.0001 3.125,-1.3993 3.125,-3.125 0,-1.7259 -1.3993,-3.1251 -3.125,-3.1251zm0 4.1667c-0.5758,0 -1.0422,-0.4664 -1.0422,-1.0416 0,-0.5753 0.4664,-1.0417 1.0422,-1.0417 0.5752,0 1.0416,0.4664 1.0416,1.0417 0.0001,0.5752 -0.4664,1.0416 -1.0416,1.0416z"/>
   <path id="_119951320" class="fil0" d="M40.626 5.2083c-1.7258,0 -3.125,1.3993 -3.125,3.1251 0,1.7257 1.3992,3.125 3.125,3.125 1.7263,-0.0001 3.125,-1.3993 3.125,-3.125 0,-1.7259 -1.3987,-3.1251 -3.125,-3.1251zm0 4.1667c-0.5752,0 -1.0417,-0.4664 -1.0417,-1.0416 0,-0.5753 0.4664,-1.0417 1.0417,-1.0417 0.5758,0 1.0422,0.4664 1.0422,1.0417 0,0.5752 -0.4664,1.0416 -1.0422,1.0416z"/>
   <polygon id="_119951536" class="fil0" points="33.3349,17.7084 35.4182,17.7084 35.4182,22.9166 33.3349,22.9166 "/>
   <polygon id="_119953816" class="fil0" points="37.501,17.7084 39.5843,17.7084 39.5843,22.9166 37.501,22.9166 "/>
   <polygon id="_119952352" class="fil0" points="35.4182,12.5 37.501,12.5 37.501,14.5833 35.4182,14.5833 "/>
   <path id="_119952376" class="fil0" d="M35.4182 26.0417l0 3.125 -8.3334 0c-0.029,-0.0005 -0.0575,-0.0005 -0.0864,0 -1.1267,0.0239 -2.0208,0.9567 -1.9969,2.0833l0 4.1667 2.0833 0 0 -4.1667 8.3334 0c0.0284,0.0005 0.0574,0.0005 0.0859,0 1.1271,-0.0238 2.0207,-0.9562 1.9969,-2.0833l0 -3.125 -2.0828 0z"/>
   <path id="_119959120" class="fil0" d="M45.8349 29.1667l-6.2501 0 0 2.0833 6.2501 0 0 4.1667 2.0833 0 0 -4.1667c0.0005,-0.0285 0.0005,-0.0574 0,-0.0865 -0.024,-1.1265 -0.9568,-2.0206 -2.0833,-1.9968z"/>
   <path id="_119947456" class="fil0" d="M26.0432 34.375c-1.7263,0 -3.125,1.3992 -3.125,3.125 0,1.7263 1.3987,3.125 3.125,3.125 1.7258,0 3.125,-1.3987 3.125,-3.125 0,-1.7258 -1.3992,-3.125 -3.125,-3.125zm0 4.1667c-0.5758,0 -1.0422,-0.4664 -1.0422,-1.0417 0,-0.5753 0.4664,-1.0416 1.0422,-1.0416 0.5753,0 1.0416,0.4663 1.0416,1.0416 0,0.5753 -0.4663,1.0417 -1.0416,1.0417z"/>
   <path id="_119959912" class="fil0" d="M36.4598 34.375c-1.7263,0 -3.125,1.3992 -3.125,3.125 0.0001,1.7263 1.3987,3.125 3.125,3.125 1.7259,0 3.125,-1.3987 3.125,-3.125 0,-1.7258 -1.3992,-3.125 -3.125,-3.125zm0 4.1667c-0.5752,0 -1.0416,-0.4664 -1.0416,-1.0417 0,-0.5753 0.4664,-1.0416 1.0416,-1.0416 0.5753,0 1.0417,0.4663 1.0417,1.0416 -0.0005,0.5753 -0.4664,1.0417 -1.0417,1.0417z"/>
   <path id="_119960560" class="fil0" d="M46.876 34.375c-1.7258,0 -3.125,1.3992 -3.125,3.125 0,1.7263 1.3992,3.125 3.125,3.125 1.7263,0 3.125,-1.3987 3.125,-3.125 0,-1.7258 -1.3987,-3.125 -3.125,-3.125zm0 4.1667c-0.5753,0 -1.0417,-0.4664 -1.0417,-1.0417 0,-0.5753 0.4664,-1.0416 1.0417,-1.0416 0.5758,0 1.0422,0.4663 1.0422,1.0416 0,0.5753 -0.4664,1.0417 -1.0422,1.0417z"/>
   <polygon id="_119954176" class="fil0" points="35.4182,32.2917 37.501,32.2917 37.501,35.4167 35.4182,35.4167 "/>
  </g>
  <rect class="fil1" x="0.00050075" width="50" height="50"/>
 </g>
</svg>
