<?xml version="1.0" encoding="UTF-8"?>
<!DOCTYPE svg PUBLIC "-//W3C//DTD SVG 1.1//EN" "http://www.w3.org/Graphics/SVG/1.1/DTD/svg11.dtd">
<!-- Creator: CorelDRAW -->
<svg xmlns="http://www.w3.org/2000/svg" xml:space="preserve" width="50mm" height="50mm" style="shape-rendering:geometricPrecision; text-rendering:geometricPrecision; image-rendering:optimizeQuality; fill-rule:evenodd; clip-rule:evenodd"
viewBox="0 0 50 50"
 xmlns:xlink="http://www.w3.org/1999/xlink">
 <defs>
  <style type="text/css">
   <![CDATA[
    .fil1 {fill:none}
    .fil0 {fill:black}
   ]]>
  </style>
 </defs>
 <g id="Layer_x0020_1">
  <metadata id="CorelCorpID_0Corel-Layer"/>
  <path class="fil0" d="M49.6948 1.7781c0.4069,-0.4069 0.4069,-1.066 0,-1.4729 -0.2035,-0.2034 -0.4701,-0.3052 -0.7366,-0.3052 -0.2665,0 -0.5329,0.1018 -0.7364,0.3052l-3.4708 3.4708c-2.6851,-2.3437 -6.1859,-3.776 -10.022,-3.776l-19.4581 0c-3.836,0 -7.3368,1.4323 -10.0214,3.7761l-3.4714 -3.4709c-0.2035,-0.2034 -0.4699,-0.3052 -0.7364,-0.3052 -0.2665,0 -0.5331,0.1018 -0.7365,0.3052 -0.4069,0.4069 -0.4069,1.066 0,1.473l3.4708 3.4708c-2.3437,2.6851 -3.776,6.1859 -3.776,10.022l0 19.4581c0,3.836 1.4323,7.3368 3.776,10.0214l-3.4708 3.4714c-0.4069,0.4069 -0.4069,1.066 0,1.4729 0.2034,0.2035 0.4699,0.3052 0.7364,0.3052 0.2666,0 0.5331,-0.1017 0.7365,-0.3052l3.4714 -3.4708c2.6846,2.3437 6.1854,3.776 10.0214,3.776l19.4581 0c3.8361,0 7.3369,-1.4323 10.0215,-3.776l3.4714 3.4708c0.2033,0.2035 0.4699,0.3052 0.7364,0.3052 0.2666,0 0.5331,-0.1017 0.7365,-0.3052 0.4069,-0.4069 0.4069,-1.066 0,-1.4729l-3.4708 -3.4708c2.3437,-2.6852 3.776,-6.186 3.776,-10.022l0 -19.4581c0,-3.8361 -1.4323,-7.3369 -3.7761,-10.0215l3.4709 -3.4714zm-45.5281 40.0361c-1.3123,-2.0492 -2.0834,-4.4764 -2.0834,-7.0851l0 -19.4581c0,-2.6088 0.7711,-5.036 2.0834,-7.0852l0 33.6284zm15.7501 -23.3704c1.4114,-1.0965 3.161,-1.7771 5.0832,-1.7771 1.9221,0 3.6717,0.6806 5.0832,1.7771l-5.0832 5.0833 -5.0832 -5.0833zm10.1664 13.1125c-1.4115,1.0965 -3.1611,1.777 -5.0832,1.777 -1.9221,0 -3.6718,-0.6805 -5.0832,-1.777l5.0832 -5.0834 5.0832 5.0834zm-6.5561 -6.5563l-5.0828 5.0827c-1.0971,-1.4109 -1.7776,-3.161 -1.7776,-5.0827 0,-1.9216 0.6805,-3.6717 1.7776,-5.0827l5.0828 5.0827zm-5.0823 8.0281c1.7959,1.4694 4.0588,2.3886 6.5552,2.3886 2.4963,0 4.7592,-0.9192 6.5552,-2.3886l5.9255 5.9256c-3.3194,2.9713 -7.6854,4.7963 -12.4807,4.7963 -4.7953,0 -9.1614,-1.825 -12.4807,-4.7963l5.9255 -5.9256zm8.0281 -8.0281l5.0828 -5.0827c1.097,1.411 1.7776,3.1611 1.7776,5.0827 0,1.9216 -0.6806,3.6718 -1.7776,5.0827l-5.0828 -5.0827zm5.0823 -8.0281c-1.796,-1.4694 -4.0589,-2.3886 -6.5552,-2.3886 -2.4964,0 -4.7593,0.9192 -6.5552,2.3886l-5.9255 -5.9256c3.3194,-2.9713 7.6854,-4.7963 12.4807,-4.7963 4.7953,0 9.1613,1.825 12.4807,4.7964l-5.9255 5.9255zm2.4658 -10.7219l8.2561 0 -3.324 3.3238c-1.471,-1.3309 -3.1275,-2.4515 -4.9321,-3.3238zm-18.7501 -4.1667l19.4581 0c2.6088,0 5.036,0.7711 7.0852,2.0834l-33.6284 0c2.0492,-1.3123 4.4764,-2.0833 7.0851,-2.0834zm0.7087 4.1667c-1.8053,0.8723 -3.4618,1.9929 -4.9322,3.3238l-3.3245 -3.3238 8.2567 0zm-9.7296 1.4729l3.3243 3.3245c-1.3315,1.4705 -2.4521,3.127 -3.3243,4.9322l0 -8.2567zm4.7963 4.7964l5.9256 5.9255c-1.4694,1.796 -2.3886,4.0589 -2.3886,6.5552 0,2.4964 0.9192,4.7593 2.3886,6.5552l-5.9256 5.9255c-2.9713,-3.3194 -4.7963,-7.6854 -4.7963,-12.4807 0,-4.7953 1.825,-9.1613 4.7963,-12.4807zm-4.7963 21.5011c0.8722,1.8053 1.9928,3.4618 3.3243,4.9322l-3.3243 3.3245 0 -8.2567zm4.7969 6.4058c1.4704,1.331 3.1274,2.4516 4.9321,3.3238l-8.2561 0 3.324 -3.3238zm23.6821 7.4905l-19.4581 0c-2.6087,0 -5.0359,-0.7711 -7.0851,-2.0834l33.6284 0c-2.0492,1.3123 -4.4765,2.0834 -7.0852,2.0834zm-0.708 -4.1667c1.8046,-0.8722 3.4617,-1.9928 4.9321,-3.3238l3.324 3.3238 -8.2561 0zm9.729 -1.4729l-3.3244 -3.3245c1.3315,-1.4699 2.4526,-3.1269 3.3244,-4.9316l0 8.2561zm-4.7963 -4.7964l-5.9256 -5.9255c1.4694,-1.7959 2.3886,-4.0588 2.3886,-6.5552 0,-2.4963 -0.9192,-4.7592 -2.3886,-6.5552l5.9256 -5.9255c2.9713,3.3194 4.7963,7.6854 4.7963,12.4807 0,4.7953 -1.825,9.1614 -4.7963,12.4807zm4.7963 -21.5017c-0.8723,-1.8046 -1.9929,-3.4617 -3.3244,-4.9316l3.3244 -3.3245 0 8.2561zm4.1667 -0.708l0 19.4581c0,2.6087 -0.7711,5.0359 -2.0834,7.0851l0 -33.6284c1.3123,2.0492 2.0833,4.4765 2.0834,7.0852z"/>
  <rect class="fil1" width="50" height="50"/>
 </g>
</svg>
