<?xml version="1.0" encoding="UTF-8"?>
<!DOCTYPE svg PUBLIC "-//W3C//DTD SVG 1.1//EN" "http://www.w3.org/Graphics/SVG/1.1/DTD/svg11.dtd">
<!-- Creator: CorelDRAW -->
<svg xmlns="http://www.w3.org/2000/svg" xml:space="preserve" width="50mm" height="50mm" style="shape-rendering:geometricPrecision; text-rendering:geometricPrecision; image-rendering:optimizeQuality; fill-rule:evenodd; clip-rule:evenodd"
viewBox="0 0 50 50"
 xmlns:xlink="http://www.w3.org/1999/xlink">
 <defs>
  <style type="text/css">
   <![CDATA[
    .fil1 {fill:none}
    .fil0 {fill:black}
   ]]>
  </style>
 </defs>
 <g id="Layer_x0020_1">
  <metadata id="CorelCorpID_0Corel-Layer"/>
  <path class="fil0" d="M45.0268 40.1452c-1.4669,-0.6005 -2.0936,-1.3969 -2.033,-2.5863 0.0623,-1.3875 -0.7248,-2.4044 -1.0988,-2.8057 0.2254,-0.8633 0.8863,-3.8483 0.0009,-6.4413 -0.9522,-2.7757 -3.8568,-7.0142 -6.8547,-11.1808 -1.2268,-1.7112 -1.2848,-3.5715 -1.3514,-5.7249 -0.0641,-2.0543 -0.1367,-4.3828 -1.2825,-6.9714 -1.2459,-2.8186 -3.7449,-4.4348 -6.8579,-4.4348 -1.8511,0 -3.7517,0.5788 -5.2144,1.5871 -2.9952,2.0671 -2.5989,6.5745 -2.3377,9.5561 0.0359,0.4081 0.0699,0.7941 0.0896,1.1237 0.1742,2.9209 0.0153,4.4603 -0.1921,4.9274 -0.134,0.3065 -0.795,1.1765 -1.4942,2.0977 -0.724,0.953 -1.5436,2.0331 -2.2164,3.039 -0.8018,1.2115 -1.449,3.0616 -2.0757,4.8522 -0.4585,1.3097 -0.8906,2.5469 -1.3123,3.2863 -0.7985,1.4226 -0.5996,2.7484 -0.4339,3.3616 -0.3023,0.21 -0.7395,0.6231 -1.1073,1.4028 -0.4457,0.9502 -1.3499,1.4616 -3.2302,1.823 -0.864,0.1766 -1.4598,0.5403 -1.7707,1.0799 -0.4534,0.7856 -0.2066,1.7719 0.0188,2.4462 0.332,0.9923 0.1254,1.6199 -0.2518,2.7589 -0.0872,0.2629 -0.1853,0.5609 -0.2852,0.8887 -0.1572,0.5183 -0.1008,0.9896 0.1681,1.4002 0.7095,1.0853 2.7818,1.4687 4.9147,1.7205 1.273,0.1513 2.6673,0.6601 4.0155,1.1528 1.32,0.4833 2.6861,0.9819 3.9277,1.1338 0.1886,0.024 0.3755,0.0358 0.5558,0.0358 1.8742,0 2.7211,-1.244 2.99,-1.7554 0.6727,-0.1375 2.9952,-0.5773 5.3886,-0.6361 2.3888,-0.0684 4.701,0.404 5.3558,0.5506 0.2059,0.3937 0.7489,1.2936 1.6138,1.7581 0.4756,0.2596 1.1382,0.4091 1.8162,0.4091 0.7239,0 2.1012,-0.1718 3.1908,-1.3185 1.0877,-1.1516 3.8037,-2.6229 5.7871,-3.697 0.4431,-0.2391 0.8573,-0.4636 1.2201,-0.666 1.1144,-0.6181 1.7222,-1.5001 1.6676,-2.4214 -0.0453,-0.765 -0.5515,-1.4361 -1.3209,-1.7519zm-24.6678 -0.2213c-0.1383,-0.9776 -1.3952,-1.9466 -2.8509,-3.0686 -1.1904,-0.9172 -2.5395,-1.9569 -2.9108,-2.8373 -0.7683,-1.8169 -0.1631,-5.0118 0.8931,-6.6564 0.5218,-0.8239 0.9477,-2.0731 1.3593,-3.2805 0.4448,-1.3045 0.9052,-2.6526 1.42,-3.2428 0.8146,-0.922 1.5685,-2.715 1.7015,-4.1281 0.7634,0.7283 1.9467,1.652 3.0405,1.652 0.1683,0 0.3314,-0.0212 0.4876,-0.0655 0.7489,-0.2163 1.8495,-0.8523 2.9133,-1.4669 0.9178,-0.5303 2.0491,-1.1835 2.4752,-1.2433 0.7292,1.0485 4.9709,10.4354 5.4048,13.4494 0.3432,2.3855 -0.0197,4.3571 -0.2015,5.1298 -0.146,-0.0205 -0.3211,-0.0367 -0.5048,-0.0367 -1.1816,0 -1.4942,0.6455 -1.5761,1.0306 -0.2092,1.0007 -0.2313,4.1991 -0.2339,4.9181 -0.4269,0.5429 -2.5871,3.0994 -5.689,3.5586 -1.2638,0.1836 -2.4437,0.2767 -3.5066,0.2767 -0.9093,0 -1.4892,-0.0699 -1.7299,-0.1066l-1.5582 -1.7838c0.6138,-0.303 1.2286,-0.9434 1.0664,-2.0987zm1.9782 -29.4074c-0.0485,0.0205 -0.0964,0.0427 -0.1434,0.0673 -0.005,-0.1057 -0.0162,-0.2133 -0.0332,-0.3199 -0.1701,-0.9795 -0.8197,-1.6908 -1.5439,-1.6908 -0.0537,0 -0.1075,0.0044 -0.1663,0.013 -0.4313,0.0716 -0.7694,0.3951 -0.9548,0.8546 0.1624,-1.0075 0.7336,-1.753 1.4107,-1.753 0.7948,0 1.4661,1.0717 1.4661,2.3397 0,0.1595 -0.0112,0.3191 -0.0352,0.4891zm6.1775 0.7548c0.0734,-0.2315 0.1128,-0.4825 0.1128,-0.743 0,-1.15 -0.7301,-2.0507 -1.6608,-2.0507 -0.9102,0 -1.6514,0.9204 -1.6514,2.0507 0,0.077 0.0044,0.1548 0.0112,0.2315 -0.0479,-0.0188 -0.0947,-0.0367 -0.1408,-0.0538 -0.1052,-0.3176 -0.158,-0.648 -0.158,-0.9862 0,-1.3746 0.8786,-2.494 1.9595,-2.494 1.08,0 1.9587,1.1194 1.9587,2.494 0,0.572 -0.158,1.1178 -0.4312,1.5515zm-0.7959 2.6758c-0.0162,0.07 -0.0485,0.1008 -0.4148,0.2912 -0.1854,0.0966 -0.4158,0.2159 -0.7036,0.391l-0.1922 0.117c-0.7735,0.4688 -2.5844,1.5667 -3.0763,1.6317 -0.3337,0.0443 -0.5403,-0.0846 -1.0048,-0.4005 -0.1051,-0.0708 -0.2161,-0.1469 -0.3349,-0.2227 -0.8375,-0.55 -1.3763,-1.1546 -1.4369,-1.3919 0.2733,-0.2108 0.9495,-0.7384 1.2962,-1.0509 0.7027,-0.654 1.4105,-1.0929 1.7604,-1.0929 0.0189,-0.0001 0.0352,0.0008 0.0531,0.0041 0.4114,0.0726 1.4258,0.4773 2.1679,0.7736 0.3423,0.1365 0.6378,0.2546 0.8461,0.3295 0.6558,0.2248 0.9981,0.5133 1.0398,0.6208zm5.8925 30.5524c0.3705,-1.6682 0.7965,-3.9395 0.7274,-5.2774 -0.0164,-0.304 -0.0429,-0.6352 -0.0693,-0.9554 -0.0485,-0.5985 -0.1204,-1.4875 -0.0461,-1.7513 0.0147,-0.0067 0.0317,-0.0126 0.0496,-0.0179 0.0033,0.765 0.169,2.2916 1.39,2.8236 0.3637,0.159 0.7797,0.2391 1.2356,0.2391 1.2225,0 2.5792,-0.5993 3.1351,-1.1551 0.327,-0.3271 0.6028,-0.7274 0.7949,-1.0453 0.0427,0.1239 0.0684,0.2853 0.0547,0.4927 -0.0726,1.1287 0.4756,2.6265 1.5198,3.1779l0.1521 0.0804c0.3723,0.1946 1.3592,0.7137 1.3753,0.9596 0,0 -0.0085,0.0291 -0.0632,0.0794 -0.2474,0.2264 -1.1184,0.6712 -1.9602,1.1016 -1.4933,0.7624 -3.1864,1.6264 -3.9473,2.4265 -1.0697,1.1261 -2.2813,1.8826 -3.0122,1.8826 -0.0881,0 -0.1684,-0.011 -0.2392,-0.0333 -0.7941,-0.2476 -1.448,-1.3934 -1.097,-3.0277zm-27.0671 -4.2571c-0.0814,-0.379 -0.1454,-0.6789 -0.0761,-0.9683 0.0494,-0.2151 1.1099,-0.4448 1.5624,-0.5429 0.637,-0.1384 1.2953,-0.2809 1.7257,-0.5423 0.5823,-0.3526 0.8973,-1.0031 1.1757,-1.5768 0.2007,-0.4152 0.409,-0.8438 0.6567,-0.9845 0.0135,-0.0086 0.0349,-0.018 0.0749,-0.018 0.4636,0 1.4363,0.9743 1.9963,1.8459 0.1428,0.2204 0.4057,0.6608 0.7104,1.1706 0.911,1.5241 2.1585,3.6118 2.81,4.3119 0.5865,0.6283 1.5369,1.8382 1.3036,2.8756 -0.1715,0.8044 -1.0826,1.4592 -1.2976,1.6035 -0.0777,0.0179 -0.1743,0.0264 -0.2877,0.0264 -1.2474,0 -3.7152,-1.0374 -5.0411,-1.5941l-0.1963 -0.0828c-0.7403,-0.3108 -1.9493,-0.5062 -3.1182,-0.6949 -0.9308,-0.1512 -2.2047,-0.3569 -2.4156,-0.5431 -0.1707,-0.1922 0.0273,-0.8162 0.2024,-1.367 0.1264,-0.3952 0.2562,-0.8051 0.3279,-1.2328 0.1008,-0.684 -0.0179,-1.2398 -0.1134,-1.6864z"/>
  <rect class="fil1" width="50" height="50"/>
 </g>
</svg>
