<?xml version="1.0" encoding="UTF-8"?>
<!DOCTYPE svg PUBLIC "-//W3C//DTD SVG 1.1//EN" "http://www.w3.org/Graphics/SVG/1.1/DTD/svg11.dtd">
<!-- Creator: CorelDRAW -->
<svg xmlns="http://www.w3.org/2000/svg" xml:space="preserve" width="50mm" height="50mm" style="shape-rendering:geometricPrecision; text-rendering:geometricPrecision; image-rendering:optimizeQuality; fill-rule:evenodd; clip-rule:evenodd"
viewBox="0 0 50 50"
 xmlns:xlink="http://www.w3.org/1999/xlink">
 <defs>
  <style type="text/css">
   <![CDATA[
    .fil1 {fill:none}
    .fil0 {fill:black}
   ]]>
  </style>
 </defs>
 <g id="Layer_x0020_1">
  <metadata id="CorelCorpID_0Corel-Layer"/>
  <g id="_119958136">
   <path id="_119948920" class="fil0" d="M40.623 11.4587c2.8706,0 5.2081,-2.3369 5.2081,-5.208 0,-0.5747 -0.467,-1.0416 -1.0416,-1.0416 -2.8706,0 -5.2082,2.3375 -5.2082,5.208 0.0001,0.5752 0.467,1.0416 1.0417,1.0416zm2.8207 -3.8623c-0.3082,0.6439 -0.8311,1.1668 -1.4729,1.4729 0.3082,-0.6433 0.829,-1.1641 1.4729,-1.4729z"/>
   <path id="_119960080" class="fil0" d="M49.8353 24.2623c-0.1668,-0.2585 -0.4359,-0.4313 -0.7401,-0.4705 -1.485,-0.1958 -2.606,-1.4145 -2.606,-2.8355 0,-1.2414 0.8418,-2.3329 2.098,-2.723 0.3148,-0.0956 0.5624,-0.3351 0.6728,-0.6433 0.1105,-0.3109 0.0687,-0.6521 -0.1123,-0.9253 -1.2145,-1.8396 -3.1539,-3.1227 -4.7163,-3.1227 -1.0462,0 -1.9896,0.3061 -2.8207,0.5752 -0.6438,0.2079 -1.2502,0.4059 -1.7521,0.4059 -0.5021,-0.0001 -1.1083,-0.1979 -1.7522,-0.4059 -0.8331,-0.271 -1.7766,-0.5752 -2.8207,-0.5752 -2.4351,0 -6.1205,3.1518 -6.1205,7.9036 0,4.4792 3.4269,10.8455 6.6291,10.8455 1.5314,0 2.4642,-0.4044 3.1478,-0.6979 0.3061,-0.1312 0.508,-0.1999 0.6916,-0.2395 0.0565,0.5228 0.4919,0.9374 1.0315,0.9374 0.3372,0 0.6225,-0.171 0.8122,-0.4186 0.6064,0.2187 1.3727,0.4186 2.4438,0.4186 2.3955,0 4.9477,-3.6417 6.0331,-7.1601 0.0891,-0.2935 0.0472,-0.6104 -0.119,-0.8687zm-5.9166 5.9434c-1.1021,0 -1.7205,-0.2665 -2.3227,-0.5269 -0.5147,-0.2228 -1.0483,-0.452 -1.7395,-0.452 -0.6897,-0.0001 -1.2231,0.2313 -1.7394,0.452 -0.6001,0.2585 -1.2232,0.5269 -2.3233,0.5269 -1.3538,0 -4.5453,-4.5829 -4.5453,-8.7622 0,-3.7809 2.8644,-5.8204 4.0372,-5.8204 0.7167,0 1.4272,0.2315 2.1769,0.4752 0.769,0.2481 1.5644,0.5059 2.3939,0.5059 0.829,0 1.6245,-0.2558 2.3935,-0.5059 0.7497,-0.2457 1.4602,-0.4752 2.1768,-0.4752 0.4689,0 1.3707,0.3983 2.2103,1.242 -1.3767,0.9018 -2.2353,2.4144 -2.2353,4.0872 0.0001,2.0456 1.3102,3.8455 3.1977,4.587 -1.0915,2.7603 -2.8559,4.6664 -3.6808,4.6664z"/>
   <path id="_119952664" class="fil0" d="M42.6961 34.3473c-0.5107,-0.2705 -1.1419,-0.0747 -1.4084,0.4334 -0.5482,1.0354 -1.6001,1.6768 -2.748,1.6768l-33.3316 0c-1.7231,0 -3.1249,-1.4017 -3.1249,-3.1248l0 -1.0416 27.082 0c0.5747,0 1.0416,-0.4664 1.0416,-1.0416 0.0001,-0.5748 -0.4669,-1.0417 -1.0416,-1.0417l-27.082 0 0 -19.7907c0,-1.7227 1.4018,-3.1248 3.1249,-3.1248l32.4085 0c0.5753,0 1.0422,-0.4664 1.0422,-1.0416 0,-0.5747 -0.4669,-1.0416 -1.0422,-1.0416l-32.4085 0c-2.8706,0 -5.2081,2.3375 -5.2081,5.208l0 22.9156c0,2.871 2.3375,5.208 5.2081,5.208l12.4703 0c-0.1062,2.0899 -0.5792,4.1665 -2.0542,4.1665 -0.5752,0 -1.0416,0.4669 -1.0416,1.0416 0,0.5752 0.4664,1.0422 1.0416,1.0422l12.4994 0c0.5747,0 1.0395,-0.467 1.0395,-1.0422 0,-0.5747 -0.4669,-1.0416 -1.0416,-1.0416 -1.4749,0 -1.9479,-2.0766 -2.0542,-4.1665l12.4725 0c1.9204,0 3.6808,-1.0666 4.589,-2.7851 0.2691,-0.5081 0.0753,-1.1392 -0.4327,-1.4083zm-23.8179 8.3599c0.5082,-1.0141 0.7919,-2.4204 0.8749,-4.1665l4.2396 0c0.0829,1.7461 0.3668,3.1518 0.8748,4.1665l-5.9893 0z"/>
  </g>
  <rect class="fil1" width="50" height="50"/>
 </g>
</svg>
