<?xml version="1.0" encoding="UTF-8"?>
<!DOCTYPE svg PUBLIC "-//W3C//DTD SVG 1.1//EN" "http://www.w3.org/Graphics/SVG/1.1/DTD/svg11.dtd">
<!-- Creator: CorelDRAW -->
<svg xmlns="http://www.w3.org/2000/svg" xml:space="preserve" width="50mm" height="50mm" style="shape-rendering:geometricPrecision; text-rendering:geometricPrecision; image-rendering:optimizeQuality; fill-rule:evenodd; clip-rule:evenodd"
viewBox="0 0 50 50"
 xmlns:xlink="http://www.w3.org/1999/xlink">
 <defs>
  <style type="text/css">
   <![CDATA[
    .fil1 {fill:none}
    .fil0 {fill:black}
   ]]>
  </style>
 </defs>
 <g id="Layer_x0020_1">
  <metadata id="CorelCorpID_0Corel-Layer"/>
  <g id="_119949400">
   <path id="_119947240" class="fil0" d="M47.9148 38.6129c-1.1942,-1.1938 -2.7841,-1.8717 -4.429,-1.9439l-1.892 -1.8925c1.0807,-1.7701 1.8721,-3.6789 2.3584,-5.6901l4.894 0 0 -9.4569 -4.894 0c-0.4863,-2.0111 -1.2777,-3.92 -2.3585,-5.69l3.4616 -3.4618 -6.6868 -6.6868 -3.4623 3.4617c-1.77,-1.0808 -3.6789,-1.8722 -5.69,-2.3586l0 -4.894 -9.4568 0 0 4.894c-2.0106,0.4863 -3.92,1.2778 -5.69,2.3586l-3.4617 -3.4617 -6.687 6.6868 3.4617 3.4618c-1.0812,1.77 -1.8728,3.6794 -2.359,5.69l-4.8935 0 0 9.4574 4.8935 0c0.4862,2.0107 1.2783,3.92 2.359,5.6899l-3.4617 3.4618 6.687 6.6869 3.4617 -3.4617c1.77,1.0809 3.6794,1.8723 5.6899,2.3585l0.0001 4.894 9.4568 0 0 -4.894c2.0111,-0.4862 3.92,-1.2776 5.69,-2.3585l1.6322 1.6322c-0.0579,1.8194 0.6272,3.6301 1.9455,4.9484 1.2782,1.2776 2.9786,1.9556 4.7124,1.9556 0.848,0 1.7039,-0.1617 2.5223,-0.4953l1.0208 -0.4161 -4.3502 -4.3498 0.4735 -1.7466 1.7467 -0.4736 4.3502 4.3504 0.4161 -1.0213c1.0152,-2.4923 0.442,-5.3319 -1.4609,-7.2348zm-13.304 1.3063c-1.9247,1.2546 -4.0365,2.13 -6.2775,2.602l-0.5809 0.1221 0 4.6092 -6.5292 0 0 -4.6092 -0.5809 -0.1221c-2.241,-0.472 -4.3527,-1.3473 -6.2775,-2.602l-0.4974 -0.3241 -3.2603 3.2597 -4.6162 -4.6162 3.2602 -3.2603 -0.3244 -0.4974c-1.2543,-1.9247 -2.1303,-4.0365 -2.6023,-6.2775l-0.1219 -0.5809 -4.6088 0 0 -6.5291 4.6088 0 0.1219 -0.5809c0.472,-2.241 1.348,-4.3528 2.6023,-6.2774l0.3244 -0.4976 -3.2602 -3.2603 4.6168 -4.6163 3.2603 3.2603 0.4974 -0.3244c1.9242,-1.2543 4.0364,-2.1296 6.2769,-2.6016l0.5814 -0.1227 0 -4.6081 6.5287 0 0 4.6087 0.5814 0.1221c2.2405,0.472 4.3528,1.3473 6.277,2.6021l0.4974 0.3239 3.2603 -3.2597 4.6168 4.6162 -3.2603 3.2603 0.3245 0.4975c1.2543,1.9247 2.1296,4.0365 2.6016,6.277l0.1226 0.5813 4.6087 0 0 6.5287 -4.6087 0 -0.1225 0.5814c-0.472,2.2405 -1.3474,4.3529 -2.6017,6.2775l-0.2029 0.3108 -6.0984 -6.0989 -0.6441 -0.6441c0.5016,-1.1657 0.7554,-2.4047 0.7554,-3.6905 0,-5.1677 -4.2038,-9.372 -9.3715,-9.372 -5.1671,0 -9.3714,4.2043 -9.3714,9.372 0,5.1671 4.2043,9.3709 9.3714,9.3709 1.2818,0 2.5168,-0.2517 3.6789,-0.7501l6.6448 6.6451 0.0991 0.0992 -0.3 0.1954zm-4.6917 -19.8015c-1.9022,-1.9027 -4.7419,-2.4764 -7.2341,-1.4607l-1.0214 0.416 4.3503 4.3498 -0.4735 1.7466 -1.7462 0.4736 -4.3502 -4.3503 -0.416 1.0208c-1.0153,2.4922 -0.4421,5.3319 1.4608,7.2347 1.5873,1.5879 3.8761,2.2634 6.0617,1.8148l0.4837 0.4833c-0.8148,0.2781 -1.6673,0.419 -2.5462,0.419 -4.3599,0 -7.907,-3.5472 -7.907,-7.9071 0,-4.36 3.5471,-7.9076 7.907,-7.9076 4.36,-0.0001 7.9071,3.5476 7.9071,7.9076 0.0001,0.8835 -0.1424,1.7405 -0.4231,2.5589l-0.3327 -0.3327c0.6179,-2.2862 -0.0331,-4.7799 -1.7202,-6.4667zm18.4175 24.0576l-3.2919 -3.2918 -3.3752 0.9149 -0.9151 3.3753 3.2918 3.2918c-1.6336,0.2706 -3.3212,-0.2512 -4.5272,-1.4566 -1.115,-1.1155 -1.649,-2.6826 -1.4939,-4.2201 0.0062,-0.0595 0.0133,-0.119 0.0214,-0.1785 0.0041,-0.0301 0.0076,-0.0595 0.0122,-0.0891 0.0133,-0.0859 0.029,-0.1709 0.0464,-0.2558 0.0045,-0.0209 0.009,-0.0422 0.0136,-0.0631 0.0198,-0.0895 0.0412,-0.179 0.0657,-0.267 0.004,-0.0147 0.0086,-0.029 0.0127,-0.0437 0.0244,-0.0844 0.0503,-0.1684 0.0788,-0.2519 0.0997,-0.2084 0.6587,-1.3371 1.4776,-2.156l-1.0351 -1.035c-0.5514,0.5508 -0.9949,1.1962 -1.3025,1.7095l-4.8137 -4.8137 -4.1326 -4.133 -0.0005 0 -1.4736 -1.4736 -0.4103 0.1124c-1.8032,0.4944 -3.7425,-0.0177 -5.0614,-1.3371 -1.206,-1.2055 -1.7273,-2.8936 -1.4573,-4.5268l3.292 3.2919 3.3751 -0.9156 0.9156 -3.3753 -3.2923 -3.2918c1.6336,-0.2701 3.3217,0.2518 4.5272,1.4573 1.4033,1.4033 1.8875,3.5212 1.2345,5.397l-0.1277 0.3661c-0.2106,0.3683 -0.5447,0.8856 -0.9577,1.2986l1.035 1.035c0.3861,-0.3855 0.7079,-0.8255 0.9547,-1.211l10.3846 10.3851 0.4105 -0.1123c0.1119,-0.0305 0.2243,-0.0575 0.3372,-0.0804 0.0203,-0.004 0.0402,-0.0077 0.0605,-0.0112 0.0361,-0.0071 0.0723,-0.0143 0.1084,-0.0203 0.0304,-0.0051 0.0615,-0.0098 0.092,-0.0143 0.0259,-0.0041 0.0519,-0.0081 0.0779,-0.0117 0.0294,-0.0041 0.0595,-0.0071 0.0889,-0.0107 0.028,-0.0036 0.0555,-0.0071 0.083,-0.0096 0.0208,-0.0026 0.0416,-0.0036 0.0624,-0.0057 0.0377,-0.0029 0.0749,-0.0066 0.112,-0.0091 0.0052,-0.0005 0.0107,-0.0005 0.0163,-0.001 1.4796,-0.0961 2.9546,0.4429 4.0227,1.5111 1.206,1.2054 1.7278,2.8936 1.4573,4.5268z"/>
   <polygon id="_119960320" class="fil0" points="31.0707,31.537 30.0061,30.4724 31.0413,29.4368 32.1057,30.5013 "/>
   <polygon id="_119954752" class="fil0" points="35.8366,36.3038 32.3463,32.8135 33.3814,31.7785 36.8716,35.2688 "/>
   <path id="_119947792" class="fil0" d="M28.0841 37.3337l0.3926 1.4105c0.6134,-0.1709 1.2217,-0.3835 1.8071,-0.6322l-0.5721 -1.3479c-0.5275,0.2243 -1.0753,0.4156 -1.6276,0.5696z"/>
   <path id="_119961856" class="fil0" d="M24.4911 37.822c-7.3706,0 -13.3661,-5.9962 -13.3661,-13.3661 0,-0.761 0.064,-1.5239 0.1911,-2.267l-1.443 -0.2467c-0.1408,0.8245 -0.2126,1.6703 -0.2126,2.5137 0,8.1772 6.6529,14.8299 14.8306,14.8299 0.4806,0 0.9654,-0.0228 1.4414,-0.0691l-0.1403 -1.4572c-0.4299,0.0417 -0.8672,0.0625 -1.3011,0.0625z"/>
   <path id="_119958472" class="fil0" d="M15.2442 14.8042l-1.0126 -1.0569c-0.4181,0.4003 -0.8169,0.8295 -1.1851,1.276l1.1297 0.9319c0.3316,-0.4028 0.6912,-0.7899 1.068,-1.151z"/>
   <path id="_119949856" class="fil0" d="M24.4911 11.0896c1.5706,0 3.1087,0.2697 4.571,0.8017l0.5005 -1.3759c-1.623,-0.5905 -3.3294,-0.8901 -5.0715,-0.8901 -3.2592,0 -6.3517,1.0371 -8.9437,2.9995l0.884 1.1671c2.3351,-1.7679 5.1224,-2.7023 8.0597,-2.7023z"/>
  </g>
  <rect class="fil1" width="50" height="50"/>
 </g>
</svg>
