<?xml version="1.0" encoding="UTF-8"?>
<!DOCTYPE svg PUBLIC "-//W3C//DTD SVG 1.1//EN" "http://www.w3.org/Graphics/SVG/1.1/DTD/svg11.dtd">
<!-- Creator: CorelDRAW -->
<svg xmlns="http://www.w3.org/2000/svg" xml:space="preserve" width="50mm" height="50mm" style="shape-rendering:geometricPrecision; text-rendering:geometricPrecision; image-rendering:optimizeQuality; fill-rule:evenodd; clip-rule:evenodd"
viewBox="0 0 50 50"
 xmlns:xlink="http://www.w3.org/1999/xlink">
 <defs>
  <style type="text/css">
   <![CDATA[
    .fil1 {fill:none}
    .fil0 {fill:black}
   ]]>
  </style>
 </defs>
 <g id="Layer_x0020_1">
  <metadata id="CorelCorpID_0Corel-Layer"/>
  <g id="_119570664">
   <path id="_119577648" class="fil0" d="M49.1565 28.3423l-3.761 0 2.66 -2.6588c0.3251,-0.3254 0.3251,-0.8523 0,-1.1779l-5.8912 -5.8903c-0.3304,-0.3129 -0.8472,-0.3129 -1.178,0l-2.6586 2.6595 0 -3.7609c0,-0.4602 -0.3732,-0.833 -0.833,-0.833l-8.3297 0c-0.4601,0 -0.8329,0.3728 -0.8329,0.833l0 3.7609 -2.6591 -2.6595c-0.3251,-0.3255 -0.8524,-0.3255 -1.1775,0l-1.6264 1.6255c-0.715,-1.6759 -2.1697,-2.9239 -3.9348,-3.376 3.7439,-3.9579 3.6292,-10.1855 -0.2592,-14.0023 -3.8879,-3.8167 -10.1167,-3.8167 -14.0047,0 -3.8884,3.8168 -4.0035,10.0444 -0.2588,14.0023 -2.585,0.6559 -4.3966,2.9802 -4.401,5.6466l0 21.6577c0.0036,3.2186 2.6118,5.8273 5.8309,5.8309l11.6618 0c2.3397,-0.0057 4.451,-1.4067 5.3658,-3.5604l1.6264 1.6264c0.33,0.3121 0.8471,0.3121 1.1775,0l2.6591 -2.6595 0 3.7606c0,0.4598 0.3727,0.8329 0.8329,0.8329l8.3298 0c0.4597,0 0.8329,-0.3731 0.8329,-0.8329l0 -3.7606 2.6586 2.6595c0.3256,0.3247 0.8525,0.3247 1.178,0l5.8912 -5.8911c0.3251,-0.3251 0.3251,-0.8525 0,-1.178l-2.66 -2.6587 3.761 0c0.4598,0 0.8329,-0.3731 0.8329,-0.8329l0 -8.3301c0,-0.4598 -0.3731,-0.8329 -0.8329,-0.8329zm-45.8139 -18.3252c0,-4.6008 3.7293,-8.3301 8.3297,-8.3301 4.6004,0 8.3297,3.7293 8.3297,8.3301 0,4.6004 -3.7293,8.3297 -8.3297,8.3297 -4.5983,-0.0049 -8.3243,-3.7313 -8.3297,-8.3297zm14.1607 38.3167l-11.6618 0c-2.2991,-0.0025 -4.1622,-1.8657 -4.1651,-4.1647l0 -21.6577c0.0029,-2.2986 1.866,-4.1618 4.1651,-4.1646l0.3174 0c3.3402,2.2208 7.6871,2.2208 11.027,0l0.3174 0c1.9307,0.0073 3.6022,1.3428 4.036,3.2243l-2.9346 2.9345c-0.3255,0.3256 -0.3255,0.8525 0,1.178l2.6595 2.6587 -3.7609 0c-0.4602,0 -0.8329,0.3731 -0.8329,0.8329l0 8.3301c0,0.4598 0.3727,0.8329 0.8329,0.8329l3.7609 0 -2.6595 2.6587c-0.3255,0.3255 -0.3255,0.8529 0,1.178l2.9346 2.9346c-0.4337,1.8819 -2.1053,3.217 -4.036,3.2243zm30.8203 -11.6614l-4.1118 0c-0.345,0.0004 -0.6538,0.2132 -0.7772,0.5354 -0.0707,0.1836 -0.1432,0.3659 -0.2229,0.5453 -0.1412,0.3149 -0.0729,0.6844 0.1713,0.9286l2.9057 2.9052 -4.7124 4.7124 -2.9036 -2.9054c-0.2445,-0.2449 -0.6144,-0.3129 -0.9297,-0.1716 -0.1783,0.0833 -0.3606,0.1522 -0.5449,0.2225 -0.3223,0.1229 -0.5355,0.4322 -0.5355,0.7776l0 4.1114 -6.6646 0 0 -4.1114c0,-0.3454 -0.2133,-0.6547 -0.5359,-0.7776 -0.1835,-0.0703 -0.3662,-0.1428 -0.5444,-0.2225 -0.3158,-0.1413 -0.6853,-0.0733 -0.9298,0.1716l-2.9045 2.9054 -4.7123 -4.7124 2.9057 -2.9044c0.2441,-0.2442 0.3121,-0.6136 0.1717,-0.9285 -0.0834,-0.1795 -0.1526,-0.3618 -0.2235,-0.5454 -0.1228,-0.3227 -0.432,-0.5355 -0.777,-0.5362l-4.1118 0 0 -6.6638 4.1118 0c0.3445,-0.0005 0.6538,-0.2133 0.777,-0.5359 0.0709,-0.1831 0.1434,-0.3654 0.2235,-0.5445 0.1404,-0.3153 0.0724,-0.6847 -0.1717,-0.9285l-2.9057 -2.9057 4.7123 -4.7119 2.9036 2.9053c0.2446,0.244 0.6141,0.3125 0.9298,0.1713 0.1783,-0.0831 0.3609,-0.1522 0.5445,-0.2222 0.323,-0.1228 0.5367,-0.4325 0.5367,-0.7779l0 -4.1118 6.6639 0 0 4.1117c0,0.345 0.2131,0.6547 0.5353,0.778 0.1844,0.0699 0.3667,0.1425 0.5449,0.2222 0.3154,0.1412 0.6852,0.0728 0.9298,-0.1713l2.9044 -2.9053 4.7124 4.7119 -2.9057 2.9044c-0.2442,0.2442 -0.3125,0.6137 -0.1713,0.929 0.083,0.1791 0.1522,0.3614 0.2229,0.5445 0.1234,0.3226 0.4322,0.5354 0.7772,0.5358l4.1118 0 0 6.6647z"/>
   <path id="_119571456" class="fil0" d="M33.3296 25.8435c-4.1402,0 -7.4966,3.3565 -7.4966,7.4967 0,4.1406 3.3564,7.4968 7.4966,7.4968 4.1407,0 7.4968,-3.3561 7.4968,-7.4968 -0.0045,-4.1385 -3.3581,-7.4918 -7.4968,-7.4967zm0 13.3277c-3.2198,0 -5.8308,-2.6104 -5.8308,-5.831 0,-3.2198 2.611,-5.8308 5.8308,-5.8308 3.2207,0 5.831,2.611 5.831,5.8308 -0.0037,3.2191 -2.6119,5.8273 -5.831,5.831z"/>
   <path id="_119571720" class="fil0" d="M45.8244 0.0212l-14.9935 0c-2.3584,0.0057 -4.578,1.1153 -5.9973,2.9988l-2.9989 3.9982c-0.1895,0.2523 -0.2198,0.59 -0.0789,0.8724 0.1411,0.282 0.4297,0.4603 0.7454,0.4603l4.1647 -0.0001 0 2.4992c0.0028,2.299 1.866,4.1622 4.165,4.1647l14.9935 0c2.2994,-0.0025 4.1622,-1.8657 4.165,-4.1647l0 -6.6638c-0.0028,-2.299 -1.8656,-4.1622 -4.165,-4.165zm2.4992 10.8288c0,1.3802 -1.119,2.4988 -2.4992,2.4988l-14.9935 0c-1.3802,0 -2.4988,-1.1186 -2.4988,-2.4988l0 -3.3321c0,-0.4598 -0.3731,-0.8329 -0.8333,-0.8329l-3.3318 0 1.9992 -2.6652c1.1043,-1.4649 2.8304,-2.3283 4.6647,-2.3328l14.9935 0c1.3802,0 2.4992,1.1191 2.4992,2.4993l0 6.6637z"/>
   <path id="_119575968" class="fil0" d="M32.4967 3.3529l-1.6658 0c-0.4602,0 -0.8329,0.3732 -0.8329,0.8334 0,0.4597 0.3727,0.8329 0.8329,0.8329l1.6658 0c0.4602,0 0.8329,-0.3731 0.8329,-0.8329 0,-0.4602 -0.3727,-0.8334 -0.8329,-0.8334z"/>
   <path id="_119571600" class="fil0" d="M45.8244 3.3529l-9.9955 0c-0.4602,0 -0.833,0.3732 -0.833,0.8334 0,0.4597 0.3728,0.8329 0.833,0.8329l9.9955 0c0.4603,0 0.833,-0.3731 0.833,-0.8329 0,-0.4602 -0.3728,-0.8334 -0.833,-0.8334z"/>
   <path id="_119568024" class="fil0" d="M32.4967 6.685l-1.6658 0c-0.4602,0 -0.8329,0.3731 -0.8329,0.8329 0,0.4602 0.3727,0.833 0.8329,0.833l1.6658 -0.0001c0.4602,0 0.8329,-0.3727 0.8329,-0.8329 0,-0.4598 -0.3727,-0.8329 -0.8329,-0.8329z"/>
   <path id="_119567760" class="fil0" d="M45.8244 6.685l-9.9955 0c-0.4602,0 -0.833,0.3731 -0.833,0.8329 0,0.4602 0.3728,0.833 0.833,0.833l9.9955 -0.0001c0.4603,0 0.833,-0.3727 0.833,-0.8329 0,-0.4598 -0.3728,-0.8329 -0.833,-0.8329z"/>
   <path id="_119565456" class="fil0" d="M32.4967 10.0171l-1.6658 0c-0.4602,0 -0.8329,0.3727 -0.8329,0.8329 0,0.4598 0.3727,0.8329 0.8329,0.8329l1.6658 0c0.4602,0 0.8329,-0.3731 0.8329,-0.8329 0,-0.4602 -0.3727,-0.8329 -0.8329,-0.8329z"/>
   <path id="_119565744" class="fil0" d="M45.8244 10.0171l-9.9955 0c-0.4602,0 -0.833,0.3727 -0.833,0.8329 0,0.4598 0.3728,0.8329 0.833,0.8329l9.9955 0c0.4603,0 0.833,-0.3731 0.833,-0.8329 0,-0.4602 -0.3728,-0.8329 -0.833,-0.8329z"/>
  </g>
  <rect class="fil1" width="50" height="50"/>
 </g>
</svg>
