<?xml version="1.0" encoding="UTF-8"?>
<!DOCTYPE svg PUBLIC "-//W3C//DTD SVG 1.1//EN" "http://www.w3.org/Graphics/SVG/1.1/DTD/svg11.dtd">
<!-- Creator: CorelDRAW -->
<svg xmlns="http://www.w3.org/2000/svg" xml:space="preserve" width="50mm" height="50mm" style="shape-rendering:geometricPrecision; text-rendering:geometricPrecision; image-rendering:optimizeQuality; fill-rule:evenodd; clip-rule:evenodd"
viewBox="0 0 50 50"
 xmlns:xlink="http://www.w3.org/1999/xlink">
 <defs>
  <style type="text/css">
   <![CDATA[
    .fil1 {fill:none}
    .fil0 {fill:black}
   ]]>
  </style>
 </defs>
 <g id="Layer_x0020_1">
  <metadata id="CorelCorpID_0Corel-Layer"/>
  <g id="_119949376">
   <path id="_119948056" class="fil0" d="M33.7539 0l-17.5078 0c-3.2813,0 -5.9506,2.6693 -5.9506,5.9504l0.0001 38.0992c0,3.2812 2.6692,5.9504 5.9505,5.9504l17.5078 0c3.2812,0 5.9505,-2.6692 5.9505,-5.9504l0 -38.0992c0,-3.2811 -2.6693,-5.9504 -5.9505,-5.9504zm-17.5078 1.9532l17.5078 0c2.2039,0 3.9974,1.7929 3.9974,3.9972l0 29.8609 -8.8451 0c-0.5392,0 -0.9765,0.4376 -0.9765,0.9766 0,0.5392 0.4373,0.9766 0.9765,0.9766l8.8451 0 0 5.3086 -25.5026 0 0 -5.3086 8.845 0c0.5392,0 0.9766,-0.4374 0.9766,-0.9766 0,-0.539 -0.4374,-0.9765 -0.9766,-0.9765l-8.845 -0.0001 0 -29.8609c0,-2.2043 1.7935,-3.9972 3.9974,-3.9972zm17.5078 46.0937l-17.5078 0c-1.8672,0 -3.439,-1.2874 -3.8763,-3.0207l25.2604 0c-0.4374,1.7333 -2.0091,3.0207 -3.8763,3.0207z"/>
   <path id="_119956936" class="fil0" d="M16.8956 12.3236l9.9364 0c1.5825,0 2.8697,-1.2874 2.8697,-2.8693l0 -2.7801c0,-1.5819 -1.2873,-2.8691 -2.8697,-2.8691l-9.9364 0c-1.5825,0 -2.8692,1.2872 -2.8692,2.8691l0 2.7801c0,1.5819 1.2867,2.8693 2.8692,2.8693zm-0.916 -5.6494c0,-0.505 0.4109,-0.916 0.9159,-0.916l9.9365 0c0.5056,0 0.9165,0.411 0.9165,0.916l0 2.7801c0,0.5051 -0.4109,0.9162 -0.9165,0.9162l-9.9364 -0.0001c-0.5051,0 -0.9161,-0.411 -0.9161,-0.9161l0.0001 -2.7801z"/>
   <path id="_119957584" class="fil0" d="M20.1081 9.0409l3.5114 0c0.5397,0 0.9766,-0.4375 0.9766,-0.9765 0,-0.5393 -0.4369,-0.9766 -0.9766,-0.9766l-3.5114 0c-0.5398,0 -0.9766,0.4374 -0.9766,0.9766 0,0.539 0.4368,0.9765 0.9766,0.9765z"/>
   <path id="_119953864" class="fil0" d="M25 20.5918c-2.4307,0 -4.4082,1.9775 -4.4082,4.4082 0,2.4307 1.9775,4.4082 4.4082,4.4082 2.4307,0 4.4082,-1.9775 4.4082,-4.4082 0,-2.4307 -1.9775,-4.4082 -4.4082,-4.4082zm0 6.8633c-1.3539,0 -2.4551,-1.1012 -2.4551,-2.4551 0,-1.3539 1.1012,-2.4551 2.4551,-2.4551 1.3539,0 2.4551,1.1012 2.4551,2.4551 0,1.3539 -1.1012,2.4551 -2.4551,2.4551z"/>
   <path id="_119958592" class="fil0" d="M25 35.8113c-0.5382,0 -0.9766,0.4385 -0.9766,0.9766 0,0.5376 0.4384,0.9766 0.9766,0.9766 0.5381,0 0.9766,-0.439 0.9766,-0.9766 0,-0.5382 -0.4385,-0.9765 -0.9766,-0.9766z"/>
  </g>
  <rect class="fil1" width="50" height="50"/>
 </g>
</svg>
