<?xml version="1.0" encoding="UTF-8"?>
<!DOCTYPE svg PUBLIC "-//W3C//DTD SVG 1.1//EN" "http://www.w3.org/Graphics/SVG/1.1/DTD/svg11.dtd">
<!-- Creator: CorelDRAW -->
<svg xmlns="http://www.w3.org/2000/svg" xml:space="preserve" width="50mm" height="50mm" style="shape-rendering:geometricPrecision; text-rendering:geometricPrecision; image-rendering:optimizeQuality; fill-rule:evenodd; clip-rule:evenodd"
viewBox="0 0 50 50"
 xmlns:xlink="http://www.w3.org/1999/xlink">
 <defs>
  <style type="text/css">
   <![CDATA[
    .fil0 {fill:none}
    .fil1 {fill:black}
    .fil2 {fill:#050D30;fill-rule:nonzero}
   ]]>
  </style>
 </defs>
 <g id="Layer_x0020_1">
  <metadata id="CorelCorpID_0Corel-Layer"/>
  <rect class="fil0" width="50" height="50"/>
  <path id="_119947312" class="fil1" d="M42.6747 7.3221c-4.721,-4.7214 -10.998,-7.3221 -17.6742,-7.3221 -6.6773,0 -12.9543,2.6007 -17.6752,7.3221 -4.7211,4.7222 -7.3213,11.0002 -7.3213,17.6779 0,6.6508 2.5823,12.9115 7.2714,17.6275 0.2853,0.2868 0.7487,0.2884 1.0356,0.003 0.2868,-0.2848 0.2884,-0.7487 0.0029,-1.0356 -4.4138,-4.4397 -6.845,-10.3332 -6.845,-16.5949 0,-6.2866 2.4475,-12.1968 6.8919,-16.6418 4.4448,-4.4453 10.354,-6.8933 16.6397,-6.8933 6.2845,-0.0001 12.1943,2.448 16.6387,6.8933 4.4444,4.4449 6.8919,10.3552 6.8919,16.6418 0,6.2866 -2.4475,12.1969 -6.8919,16.6418 -4.4449,4.4453 -10.3542,6.8934 -16.6387,6.8934 -5.1301,0 -10.0041,-1.621 -14.0971,-4.6891 -0.324,-0.242 -0.7828,-0.1764 -1.0254,0.147 -0.2431,0.324 -0.177,0.7828 0.1465,1.0254 4.3487,3.2589 9.5266,4.9815 14.976,4.9815 6.6762,0 12.9531,-2.6006 17.6742,-7.3221 4.7211,-4.7222 7.3213,-11.0001 7.3213,-17.6779 0,-6.6777 -2.6002,-12.9557 -7.3213,-17.6779z"/>
  <path id="_119957248" class="fil1" d="M33.0236 19.4748c0.4043,0 0.7324,-0.328 0.7324,-0.7325l0 -4.6112c0,-1.4998 -1.2202,-2.72 -2.7197,-2.72l-12.0722 0c-1.4999,0 -2.7201,1.2202 -2.7201,2.72l0 21.7378c0,1.4999 1.2202,2.72 2.7201,2.72l12.0717 0c1.5,0 2.7202,-1.2201 2.7202,-2.72l0 -13.6979c0,-0.4048 -0.3281,-0.7324 -0.7324,-0.7324 -0.405,0 -0.7325,0.3276 -0.7325,0.7324l0.0001 12.0768 -14.5823 0 0 -18.4956 14.5823 0 0 2.9901c0,0.4045 0.3279,0.7325 0.7324,0.7325zm-0.7324 16.2378l0 0.1563c0,0.6922 -0.5631,1.2552 -1.2549,1.2552l-12.0722 0c-0.6922,0 -1.2552,-0.563 -1.2552,-1.2552l0 -0.1563 14.5823 0zm-14.5823 -21.4252l0 -0.1563c0,-0.6921 0.563,-1.2551 1.2552,-1.2551l12.0717 -0.0001c0.6923,0 1.2553,0.5631 1.2553,1.2552l0.0001 0.1563 -14.5823 0z"/>
  <g id="_105475296">
   <polygon id="_105480960" class="fil2" points="27.018,27.3148 28.1102,27.317 30.382,23.5339 28.1648,19.787 26.9797,19.786 29.1816,23.4868 "/>
   <polygon id="_105483528" class="fil2" points="22.9511,22.7231 21.8593,22.7208 19.5879,26.4665 21.8049,30.2132 22.9901,30.2142 20.7882,26.5132 "/>
   <polygon id="_105474576" class="fil2" points="21.9492,25.5272 21.3651,26.5313 23.5452,30.1938 28.1307,30.1968 28.6799,29.284 24.3094,29.2838 "/>
   <polygon id="_105474240" class="fil2" points="28.0662,24.4139 28.6219,23.4445 26.4136,19.7956 21.8498,19.8 21.3004,20.713 25.67,20.7131 "/>
   <polygon id="_105483288" class="fil2" points="30.6719,23.9543 28.4139,27.7661 23.9538,27.7661 24.5849,28.8102 28.9568,28.8102 31.2826,25.0014 "/>
   <polygon id="_105474624" class="fil2" points="21.0077,21.1988 18.7172,25.006 19.3144,25.9933 21.5312,22.2397 26.0262,22.2397 25.3617,21.1957 "/>
  </g>
 </g>
</svg>
