<?xml version="1.0" encoding="UTF-8"?>
<!DOCTYPE svg PUBLIC "-//W3C//DTD SVG 1.1//EN" "http://www.w3.org/Graphics/SVG/1.1/DTD/svg11.dtd">
<!-- Creator: CorelDRAW -->
<svg xmlns="http://www.w3.org/2000/svg" xml:space="preserve" width="50mm" height="50mm" style="shape-rendering:geometricPrecision; text-rendering:geometricPrecision; image-rendering:optimizeQuality; fill-rule:evenodd; clip-rule:evenodd"
viewBox="0 0 50 50"
 xmlns:xlink="http://www.w3.org/1999/xlink">
 <defs>
  <style type="text/css">
   <![CDATA[
    .fil1 {fill:none}
    .fil0 {fill:black}
   ]]>
  </style>
 </defs>
 <g id="Layer_x0020_1">
  <metadata id="CorelCorpID_0Corel-Layer"/>
  <path class="fil0" d="M46.901 14.0626l-5.475 0 0 -13.3782 -32.8519 0 0 13.3782 -5.4752 0c-1.7111,0 -3.0989,1.3868 -3.0989,3.0989l0 16.116c0,1.7122 1.3878,3.0994 3.0989,3.0994l1.1367 0 0 -7.2319 4.3385 0 0 7.9029 32.8519 0 0 -7.9029 4.3389 0 0 7.2319 1.1361 0c1.7112,0 3.099,-1.3872 3.099,-3.0994l0 -16.116c0,-1.7121 -1.3879,-3.0989 -3.099,-3.0989zm-39.0497 6.5083l-4.1321 0 0 -0.8268 4.1321 0 0 0.8268zm31.7153 14.6177l-29.1326 0 0 -6.0436 29.1326 0 0 6.0436zm0 -17.2009l-29.1326 0 0 -15.444 29.1326 0 0 15.444zm-4.7423 -11.2581l-19.6801 0 0 -1.2806 19.6801 0 0 1.2806zm0 4.4959l-19.6801 0 0 -1.2806 19.6801 0 0 1.2806zm0 4.2057l-19.6801 0 0 -1.2806 19.6801 0 0 1.2806zm-4.9252 30.9403l8.6444 0 0 2.1697 -8.6444 0c-0.3382,0.4672 -0.8839,0.7744 -1.5058,0.7744l-6.8181 0c-0.6203,0 -1.1671,-0.3072 -1.5047,-0.7744l-7.5606 0 0 -2.1697 7.5606 0c0.3376,-0.4673 0.8838,-0.7745 1.5047,-0.7745l1.5494 0 0 -1.5495c0,-0.6209 0.3077,-1.1676 0.775,-1.5057l0 -3.9956 2.1698 0 0 3.9956c0.4678,0.3381 0.7745,0.8843 0.7745,1.5057l0 1.5495 1.5494 0c0.6219,0 1.1676,0.3072 1.5058,0.7745z"/>
  <rect class="fil1" width="50" height="50"/>
 </g>
</svg>
