<?xml version="1.0" encoding="UTF-8"?>
<!DOCTYPE svg PUBLIC "-//W3C//DTD SVG 1.1//EN" "http://www.w3.org/Graphics/SVG/1.1/DTD/svg11.dtd">
<!-- Creator: CorelDRAW -->
<svg xmlns="http://www.w3.org/2000/svg" xml:space="preserve" width="50.0302mm" height="50mm" style="shape-rendering:geometricPrecision; text-rendering:geometricPrecision; image-rendering:optimizeQuality; fill-rule:evenodd; clip-rule:evenodd"
viewBox="0 0 50.0302 50"
 xmlns:xlink="http://www.w3.org/1999/xlink">
 <defs>
  <style type="text/css">
   <![CDATA[
    .fil1 {fill:none}
    .fil0 {fill:black}
   ]]>
  </style>
 </defs>
 <g id="Layer_x0020_1">
  <metadata id="CorelCorpID_0Corel-Layer"/>
  <g id="_119960920">
   <path id="_119956672" class="fil0" d="M31.6988 22.5077l0 -2.4992c0,-3.6816 -2.9842,-6.6657 -6.6657,-6.6657 -3.6812,0 -6.6654,2.9842 -6.6654,6.6657l0.0001 2.4992c-0.9203,0 -1.6663,0.7462 -1.6663,1.6664l0 6.6657c0.0036,3.2194 2.6124,5.8282 5.8323,5.8323l4.9989 0c3.2195,-0.0041 5.8288,-2.6129 5.8324,-5.8323l0 -6.6657c0,-0.9202 -0.746,-1.6664 -1.6663,-1.6664zm-11.6647 -2.4992c0,-2.7608 2.2381,-4.9994 4.9995,-4.9994 2.7608,0 4.9989,2.2381 4.9989,4.9994l0 2.4992 -9.9984 0 0 -2.4992zm11.6647 5.8319l-0.8334 0c-0.4601,0 -0.8329,0.3733 -0.8329,0.8333 0,0.4602 0.3728,0.8329 0.8329,0.8329l0.8334 0 0 1.6664 -0.8334 0c-0.4601,0 -0.8329,0.3733 -0.8329,0.8334 0,0.4602 0.3728,0.8329 0.8329,0.8329l0.8334 0c-0.003,2.2997 -1.8664,4.1635 -4.1661,4.1661l-4.9988 0c-2.2997,-0.0026 -4.1635,-1.8664 -4.1662,-4.1661l0.8335 0c0.4602,0 0.8329,-0.3727 0.8329,-0.8329 0,-0.4601 -0.3733,-0.8334 -0.8329,-0.8334l-0.8334 0 0 -1.6664 0.8334 0c0.4602,0 0.8329,-0.3727 0.8329,-0.8329 0,-0.46 -0.3733,-0.8333 -0.8329,-0.8333l-0.8334 0 0 -1.6663 13.331 0 0 1.6663z"/>
   <path id="_119960416" class="fil0" d="M24.2002 30.6863l0 1.8199c0,0.46 0.3727,0.8329 0.8329,0.8329 0.4601,0 0.8334,-0.3729 0.8334,-0.8329l0 -1.8199c1.1468,-0.4038 1.8348,-1.5763 1.629,-2.7748 -0.2062,-1.1984 -1.2465,-2.0732 -2.4624,-2.0711 -1.2161,-0.0021 -2.2563,0.8727 -2.4626,2.0711 -0.2056,1.1984 0.483,2.371 1.6297,2.7748zm0.8329 -3.1791c0.4601,0 0.8334,0.3728 0.8334,0.8328 0,0.4602 -0.3733,0.833 -0.8334,0.833 -0.4602,0 -0.8329,-0.3727 -0.8329,-0.833 0,-0.46 0.3727,-0.8328 0.8329,-0.8328z"/>
   <path id="_119961040" class="fil0" d="M49.5026 22.2409c-1.1329,-2.8589 -3.8979,-4.7352 -6.9725,-4.7322 -1.1043,0 -2.1941,0.2452 -3.1919,0.7177 -0.5486,-1.1555 -1.2352,-2.2397 -2.0448,-3.2297 0.079,0 0.1577,0.013 0.2377,0.013 4.1413,-0.0001 7.4983,-3.3576 7.4983,-7.4988 0.0052,-3.0084 -1.7884,-5.7279 -4.5548,-6.9088 -2.7666,-1.1809 -5.9711,-0.594 -8.1398,1.4906 -2.1689,2.084 -2.8819,5.2631 -1.8117,8.0741 -3.5409,-1.3195 -7.4387,-1.3194 -10.9797,0 1.4198,-3.7427 -0.3504,-7.9401 -4.0218,-9.5362 -3.6707,-1.5961 -7.9479,-0.0274 -9.7166,3.5637 -1.7682,3.5912 -0.4042,7.9381 3.0989,9.8754 1.1101,0.6183 2.3607,0.9419 3.6315,0.94 0.0833,-0.0001 0.1587,-0.0109 0.2384,-0.013 -0.8096,0.99 -1.4968,2.0742 -2.0453,3.2297 -3.1538,-1.5004 -6.9254,-0.6271 -9.0984,2.1068 -2.1734,2.7339 -2.1734,6.6052 0,9.3393 2.173,2.7339 5.9446,3.6072 9.0984,2.1073 0.5485,1.1585 1.2366,2.2463 2.0489,3.2385 -0.0833,-0.0001 -0.1587,-0.0129 -0.2384,-0.0129 -3.4174,0.0015 -6.401,2.3135 -7.2567,5.6219 -0.8551,3.3083 0.6344,6.7763 3.6221,8.434 2.2584,1.2516 5.0016,1.2516 7.2599,0 0.0331,-0.0182 0.0621,-0.0424 0.0957,-0.0616 3.2033,-1.8234 4.5983,-5.7113 3.284,-9.1557 3.541,1.3194 7.4392,1.3194 10.9797,0 -1.3277,3.4826 0.1111,7.4118 3.3739,9.2141 2.3214,1.2858 5.1505,1.2491 7.4378,-0.0977 2.2872,-1.3468 3.6919,-3.802 3.694,-6.4564 -0.0046,-4.1392 -3.359,-7.494 -7.4988,-7.4986 -0.0831,0 -0.1587,0.0109 -0.2387,0.0134 0.8117,-0.9932 1.4998,-2.0809 2.0493,-3.24 2.7816,1.3116 6.0816,0.7904 8.3239,-1.3143 2.2422,-2.1042 2.9707,-5.365 1.8375,-8.2236zm-44.4307 8.0391c-0.0175,-0.0906 -0.0294,-0.1816 -0.0351,-0.2736 0,-1.3805 1.1193,-2.4992 2.4996,-2.4992 0.8599,-0.002 1.6581,0.4452 2.1054,1.1792 0.1131,0.4964 0.2544,0.9856 0.4218,1.4659 0.0041,0.0133 0.0073,0.0284 0.0124,0.0423 0.0047,0.0144 0.0109,0.0285 0.0155,0.0418 -1.5841,0.7564 -3.422,0.7725 -5.0196,0.0436zm0.7983 -6.1059c0,-0.9202 0.746,-1.6664 1.6662,-1.6664 0.9204,0 1.6664,0.7462 1.6664,1.6664 0,0.9203 -0.746,1.6663 -1.6664,1.6663 -0.9202,0 -1.6662,-0.746 -1.6662,-1.6663zm3.7095 -2.6126c-0.5806,-0.4632 -1.3003,-0.717 -2.0433,-0.7201 -1.3545,-0.0021 -2.5757,0.8174 -3.087,2.0722 -0.5107,1.2548 -0.2105,2.6941 0.76,3.6391 -0.9052,0.6102 -1.5355,1.5511 -1.7557,2.6203 -1.1193,-1.0971 -1.7496,-2.5985 -1.7496,-4.1655 -0.0046,-2.0148 1.033,-3.8889 2.7437,-4.9534 1.7103,-1.0651 3.8502,-1.169 5.6556,-0.2751 -0.2104,0.5831 -0.3851,1.1782 -0.5237,1.7825zm30.4156 -8.7761c-1.5413,0.713 -3.3151,0.7254 -4.8666,0.0342l-0.0673 -0.0559c-0.016,-0.0837 -0.0263,-0.1686 -0.0299,-0.2538 0,-1.3805 1.1193,-2.4998 2.4996,-2.4998 1.3805,0 2.4993,1.1193 2.4993,2.4998 -0.0057,0.0925 -0.0176,0.1845 -0.0351,0.2755zm-4.1309 -6.108c0,-0.9202 0.7459,-1.6662 1.6667,-1.6662 0.9204,0 1.6664,0.746 1.6664,1.6662 0,0.9204 -0.746,1.6664 -1.6664,1.6664 -0.9208,0 -1.6667,-0.746 -1.6667,-1.6664zm-3.6909 -1.4817c0.9229,-2.1372 3.0291,-3.5203 5.3576,-3.5171 2.3701,-0.0006 4.5043,1.4331 5.4002,3.6273 0.8961,2.1941 0.3748,4.712 -1.3178,6.3705 -0.2213,-1.0676 -0.8505,-2.0064 -1.7537,-2.617 0.9699,-0.9467 1.2703,-2.3866 0.759,-3.6418 -0.5109,-1.2553 -1.731,-2.0764 -3.0866,-2.0764 -1.3556,0 -2.5757,0.8211 -3.0865,2.0764 -0.5113,1.2557 -0.211,2.6951 0.7589,3.6418 -0.8861,0.6002 -1.5086,1.5173 -1.7382,2.5628 -0.0605,-0.0383 -0.1162,-0.0765 -0.1788,-0.1148 -1.5986,-1.6922 -2.0371,-4.1739 -1.1141,-6.3117zm-23.7204 6.4807c-1.1193,-1.097 -1.75,-2.5985 -1.7496,-4.1661 -0.0009,-2.6175 1.7419,-4.915 4.2633,-5.6193 2.5214,-0.7041 5.2027,0.3577 6.5582,2.5974 1.3556,2.2392 1.0526,5.1076 -0.7403,7.0148 -0.0625,0.0383 -0.1189,0.0765 -0.1799,0.1158 -0.2295,-1.0453 -0.8516,-1.9631 -1.7382,-2.5628 0.9704,-0.9466 1.2708,-2.3864 0.76,-3.6418 -0.5108,-1.2558 -1.7315,-2.0768 -3.0871,-2.0768 -1.355,0 -2.5757,0.821 -3.0865,2.0768 -0.5108,1.2554 -0.2104,2.6952 0.76,3.6418 -0.9073,0.6096 -1.5391,1.5501 -1.7599,2.6202zm5.7487 -4.999c0,0.9204 -0.7461,1.6664 -1.6664,1.6664 -0.9202,0 -1.6663,-0.746 -1.6663,-1.6664 0,-0.9202 0.7461,-1.6662 1.6663,-1.6662 0.9203,0 1.6664,0.746 1.6664,1.6662zm-4.1309 6.108c-0.0176,-0.091 -0.029,-0.183 -0.0347,-0.2755 0,-1.3805 1.1188,-2.4998 2.4992,-2.4998 1.3805,0 2.4998,1.1193 2.4998,2.4998 -0.0042,0.0837 -0.0146,0.1674 -0.03,0.2497l-0.0693 0.0573c-1.5505,0.6913 -3.3234,0.6799 -4.865,-0.0315zm4.9291 34.9911c-1.5655,0.7139 -3.3637,0.7139 -4.9291,0 -0.0176,-0.09 -0.029,-0.1815 -0.0353,-0.2731 0,-1.3808 1.1194,-2.4996 2.4998,-2.4996 1.3805,0 2.4998,1.1193 2.4998,2.4996 -0.0057,0.0916 -0.0176,0.1826 -0.0352,0.2731zm-4.1309 -6.1054c0,-0.9202 0.7461,-1.6663 1.6663,-1.6663 0.9203,0 1.6664,0.7461 1.6664,1.6663 0,0.9203 -0.7461,1.6664 -1.6664,1.6664 -0.9202,0 -1.6663,-0.7461 -1.6663,-1.6664zm5.7492 4.9989c-0.2213,-1.0676 -0.851,-2.007 -1.7548,-2.617 0.9705,-0.9466 1.2708,-2.3865 0.76,-3.6419 -0.5113,-1.2557 -1.7314,-2.0767 -3.087,-2.0767 -1.3556,0 -2.5763,0.821 -3.087,2.0767 -0.5109,1.2554 -0.2105,2.6953 0.7599,3.6419 -0.9047,0.6096 -1.5355,1.5484 -1.7563,2.617 -1.6927,-1.6585 -2.2138,-4.1763 -1.3179,-6.3705 0.8961,-2.1941 3.0308,-3.6278 5.4007,-3.6274 0.8324,-0.0025 1.6555,0.1769 2.4109,0.5264 0.579,0.4793 1.1917,0.9167 1.8332,1.3081 2.1834,2.3089 2.1115,5.9429 -0.1617,8.1634zm23.377 1.1065c-1.5656,0.7144 -3.3636,0.7139 -4.9287,-0.0005 -0.0176,-0.09 -0.0294,-0.181 -0.0351,-0.2726 0,-1.3808 1.1188,-2.4996 2.4991,-2.4996 1.3805,0 2.4998,1.1193 2.4998,2.4996 -0.0057,0.0916 -0.0176,0.1826 -0.0351,0.2731zm-4.1309 -6.1054c0,-0.9202 0.7459,-1.6663 1.6667,-1.6663 0.9204,0 1.6664,0.7461 1.6664,1.6663 0,0.9203 -0.746,1.6664 -1.6664,1.6664 -0.9208,0 -1.6667,-0.7461 -1.6667,-1.6664zm1.6667 -4.999c3.2191,0.0042 5.8278,2.6125 5.8319,5.8319 0.0006,1.5676 -0.6302,3.0689 -1.7495,4.166 -0.2213,-1.0676 -0.8505,-2.0065 -1.7537,-2.617 0.9699,-0.9466 1.2703,-2.3865 0.759,-3.6419 -0.5109,-1.2552 -1.731,-2.0762 -3.0866,-2.0762 -1.3556,0 -2.5757,0.821 -3.0865,2.0762 -0.5113,1.2554 -0.211,2.6953 0.7589,3.6419 -0.9047,0.6096 -1.5354,1.5484 -1.7562,2.617 -2.2733,-2.2221 -2.3436,-5.8567 -0.1583,-8.165 0.6417,-0.3925 1.2543,-0.8297 1.8329,-1.3101 0.7553,-0.3469 1.5768,-0.5258 2.4081,-0.5228zm1.3097 -8.5146c-0.1112,0.5088 -0.2544,1.0092 -0.4286,1.4999 -0.0088,0.0254 -0.0165,0.0512 -0.0233,0.0775 -0.0631,0.1893 -0.1391,0.374 -0.2228,0.5833 -1.551,3.8392 -4.7043,6.8079 -8.6299,8.1242 -3.9262,1.3164 -8.2313,0.8489 -11.7831,-1.2791l0.0041 -0.0015c-2.6512,-1.5914 -4.711,-4.0042 -5.8665,-6.872 -0.0739,-0.1826 -0.1483,-0.364 -0.211,-0.5517 -0.0067,-0.0284 -0.0149,-0.0558 -0.0247,-0.0833 -0.1759,-0.4942 -0.32,-0.9988 -0.4317,-1.5112 -0.2379,-1.0284 -0.3567,-2.081 -0.3542,-3.1361 0,-0.2503 0.0083,-0.5 0.016,-0.7301 0.0797,-1.5711 0.423,-3.1181 1.0154,-4.5759 0.8681,-2.1441 2.2475,-4.0441 4.0178,-5.5331 0.1193,-0.1039 0.2501,-0.2083 0.384,-0.3148 0.4623,-0.364 0.9472,-0.698 1.4524,-1 4.4803,-2.6853 10.0758,-2.6853 14.5563,0 0.5098,0.3035 0.9988,0.6397 1.4646,1.0067 0.1266,0.0966 0.2503,0.2006 0.3857,0.3164 2.993,2.524 4.8092,6.1725 5.0202,10.0816 0.0072,0.2497 0.0155,0.5 0.0155,0.7498 0.0026,1.0602 -0.1168,2.1171 -0.3562,3.1494zm6.1539 2.1225c-1.5717,0.719 -3.3786,0.7155 -4.9478,-0.0094 -0.0067,-0.0668 -0.0082,-0.1448 -0.0108,-0.2244 0.153,-0.4461 0.2828,-0.9006 0.3893,-1.3602 0.4472,-0.7336 1.2455,-1.1808 2.1047,-1.1788 1.3805,0 2.4993,1.1187 2.4993,2.4992 -0.0057,0.092 -0.0171,0.183 -0.0347,0.2736zm-4.1309 -6.1059c0,-0.9202 0.7461,-1.6664 1.6663,-1.6664 0.9203,0 1.6664,0.7462 1.6664,1.6664 0,0.9203 -0.7461,1.6663 -1.6664,1.6663 -0.9202,0 -1.6663,-0.746 -1.6663,-1.6663zm5.7487 4.9994c-0.2213,-1.0676 -0.8505,-2.0065 -1.7537,-2.617 1.2712,-1.2316 1.3545,-3.2433 0.1886,-4.5746 -1.1658,-1.3317 -3.1712,-1.5153 -4.5595,-0.4182 -0.1391,-0.6038 -0.3143,-1.199 -0.5242,-1.7822 2.5686,-1.2645 5.6752,-0.476 7.3296,1.8608 1.6539,2.3363 1.3655,5.5288 -0.6808,7.5312z"/>
  </g>
  <rect class="fil1" x="0.015101" width="50" height="50"/>
 </g>
</svg>
