<?xml version="1.0" encoding="UTF-8"?>
<!DOCTYPE svg PUBLIC "-//W3C//DTD SVG 1.1//EN" "http://www.w3.org/Graphics/SVG/1.1/DTD/svg11.dtd">
<!-- Creator: CorelDRAW -->
<svg xmlns="http://www.w3.org/2000/svg" xml:space="preserve" width="50mm" height="50mm" style="shape-rendering:geometricPrecision; text-rendering:geometricPrecision; image-rendering:optimizeQuality; fill-rule:evenodd; clip-rule:evenodd"
viewBox="0 0 50 50"
 xmlns:xlink="http://www.w3.org/1999/xlink">
 <defs>
  <style type="text/css">
   <![CDATA[
    .fil1 {fill:none}
    .fil0 {fill:black}
   ]]>
  </style>
 </defs>
 <g id="Layer_x0020_1">
  <metadata id="CorelCorpID_0Corel-Layer"/>
  <g id="_119957248">
   <path id="_119951488" class="fil0" d="M12.2259 18.4794c-2.1256,0 -3.7491,1.0209 -3.7491,3.7318l0 4.8701c0,2.711 1.6235,3.7319 3.7491,3.7319 2.1087,0 3.7652,-1.0209 3.7652,-3.7319l0 -4.8701c0,-2.7109 -1.6565,-3.7317 -3.7652,-3.7318zm1.9913 8.6019c0,1.4725 -0.7529,2.1586 -1.9913,2.1586 -1.2553,0 -1.975,-0.6861 -1.975,-2.1586l0 -4.8701c0,-1.4725 0.7196,-2.1586 1.975,-2.1586 1.2384,0 1.9913,0.6861 1.9913,2.1586l0 4.8701z"/>
   <path id="_119951512" class="fil0" d="M19.7738 21.4747c0,-1.0544 0.8703,-1.5228 2.0921,-1.5228 1.4221,-0.0001 1.8574,0.6358 2.3091,0.6358 0.5021,0 0.7364,-0.6191 0.7364,-0.9537 0.0001,-0.9206 -1.9582,-1.205 -3.0455,-1.205 -1.7909,0 -3.8662,0.7365 -3.8662,3.2131 0,4.0166 5.4388,2.8619 5.4388,5.8242 0,1.2049 -0.9033,1.7736 -2.1083,1.7736 -1.8579,0 -2.2593,-1.3219 -2.862,-1.3219 -0.4181,0 -0.7695,0.5523 -0.7695,0.9542 0,0.8367 1.5228,1.9744 3.6982,1.9744 2.2095,0 3.8157,-1.1713 3.8157,-3.5644 0,-4.4514 -5.4388,-3.3305 -5.4388,-5.8075z"/>
   <path id="_119959432" class="fil0" d="M42.9866 22.5886c-0.6155,-2.8519 -2.4288,-5.3171 -4.9754,-6.7647 -0.3514,-0.1994 -0.7986,-0.0764 -0.9985,0.2752 -0.1998,0.3515 -0.0773,0.7985 0.2746,0.9984 2.1842,1.2416 3.7395,3.3554 4.2675,5.7999 0.0742,0.3438 0.3778,0.5783 0.7151,0.5783 0.0513,0 0.1033,-0.0056 0.1556,-0.0168 0.3952,-0.0855 0.6465,-0.475 0.5611,-0.8703z"/>
   <path id="_119956672" class="fil0" d="M46.0271 22.8602c-0.3621,-2.2792 -1.3142,-4.4429 -2.7532,-6.2571 -1.4186,-1.7893 -3.2776,-3.2002 -5.3752,-4.0802 -0.3733,-0.1566 -0.8026,0.0193 -0.9588,0.3922 -0.1566,0.3728 0.0195,0.8021 0.3922,0.9588 3.8218,1.6025 6.5995,5.1339 7.2485,9.2162 0.0574,0.3607 0.3687,0.6175 0.7222,0.6175 0.0382,0 0.0769,-0.003 0.1159,-0.0091 0.3994,-0.0636 0.672,-0.439 0.6084,-0.8383z"/>
   <path id="_119952472" class="fil0" d="M34.4417 7.7627l0 -2.4858c0,-1.0579 -0.8607,-1.9184 -1.9187,-1.9184l-30.6051 0c-1.0574,0 -1.9179,0.8605 -1.9179,1.9185l0 39.4461c0,1.0579 0.8605,1.9185 1.9179,1.9185l30.6051 0c1.058,0 1.9187,-0.8606 1.9187,-1.9185l0 -2.4873c8.7783,-0.8911 15.5583,-8.3322 15.5583,-17.2363 0,-8.9046 -6.78,-16.3452 -15.5583,-17.2368zm-1.4649 36.9604c0,0.2502 -0.2035,0.4536 -0.4538,0.4536l-30.6051 0c-0.2497,0 -0.4531,-0.2034 -0.4531,-0.4536l0 -39.4462c0,-0.2502 0.2034,-0.4536 0.4531,-0.4536l30.6051 0c0.2503,0 0.4538,0.2034 0.4538,0.4537l0 39.4461zm1.4649 -22.1726c0.7679,0.5585 1.2546,1.4638 1.2546,2.449 0,0.9851 -0.4867,1.8901 -1.2546,2.4486l0 -4.8976zm0 6.5745c1.6255,-0.6993 2.7195,-2.3239 2.7195,-4.1255 0,-1.8021 -1.0941,-3.426 -2.7195,-4.1259l0 -1.8184c1.1214,0.3341 2.1351,0.9841 2.9139,1.8804 0.978,1.1267 1.5171,2.5696 1.5171,4.0639 0.0001,1.4939 -0.5391,2.9369 -1.5171,4.0634 -0.7788,0.8962 -1.7925,1.5467 -2.9139,1.8809l0 -1.8188zm0 11.6394l0 -8.3059c1.5523,-0.3682 2.9622,-1.2176 4.0196,-2.4348 1.2101,-1.3931 1.8763,-3.1773 1.8763,-5.0242 0,-1.8469 -0.6663,-3.6316 -1.8763,-5.0242 -1.0574,-1.2176 -2.4673,-2.0671 -4.0196,-2.4348l0 -8.3059c7.9635,0.884 14.0934,7.6635 14.0934,15.7649 0.0001,8.1009 -6.1299,14.8804 -14.0934,15.7649z"/>
   <path id="_119961544" class="fil0" d="M30.4372 26.2284c-0.3997,-0.0586 -0.7721,0.2181 -0.8311,0.6185 -0.3973,2.7144 -1.6358,5.1777 -3.5818,7.1233 -4.9469,4.9474 -12.9963,4.9474 -17.9437,0 -1.9456,-1.9456 -3.1841,-4.4089 -3.5818,-7.1233 -0.0585,-0.4004 -0.4303,-0.6761 -0.8306,-0.6185 -0.4003,0.0584 -0.6774,0.4308 -0.6185,0.831 0.443,3.0284 1.825,5.7766 3.9952,7.9469 2.7589,2.7587 6.3833,4.1387 10.0078,4.1387 3.624,0 7.2485,-1.38 10.0077,-4.1387 2.1703,-2.1703 3.5518,-4.9185 3.9953,-7.9469 0.0585,-0.4003 -0.2182,-0.772 -0.6185,-0.831z"/>
   <path id="_119949376" class="fil0" d="M31.0557 22.9381c-0.4431,-3.0285 -1.825,-5.777 -3.9953,-7.9473 -5.5186,-5.5186 -14.4974,-5.5186 -20.0155,0 -2.1779,2.1778 -3.5613,4.9362 -3.9997,7.9763 -0.0581,0.4008 0.2202,0.772 0.6204,0.8295 0.0352,0.0051 0.0707,0.0076 0.1053,0.0076 0.3581,0 0.6714,-0.2629 0.7242,-0.6281 0.3928,-2.7248 1.6327,-5.1972 3.5855,-7.1498 4.9474,-4.9474 12.9968,-4.9474 17.9437,0 1.946,1.946 3.1845,4.4093 3.5818,7.1244 0.059,0.4002 0.4309,0.6764 0.8311,0.6185 0.4003,-0.0585 0.677,-0.4304 0.6185,-0.8311z"/>
  </g>
  <rect class="fil1" width="50" height="50"/>
 </g>
</svg>
