<?xml version="1.0" encoding="UTF-8"?>
<!DOCTYPE svg PUBLIC "-//W3C//DTD SVG 1.1//EN" "http://www.w3.org/Graphics/SVG/1.1/DTD/svg11.dtd">
<!-- Creator: CorelDRAW -->
<svg xmlns="http://www.w3.org/2000/svg" xml:space="preserve" width="50mm" height="50mm" style="shape-rendering:geometricPrecision; text-rendering:geometricPrecision; image-rendering:optimizeQuality; fill-rule:evenodd; clip-rule:evenodd"
viewBox="0 0 50 50"
 xmlns:xlink="http://www.w3.org/1999/xlink">
 <defs>
  <style type="text/css">
   <![CDATA[
    .fil1 {fill:none}
    .fil0 {fill:black}
   ]]>
  </style>
 </defs>
 <g id="Layer_x0020_1">
  <metadata id="CorelCorpID_0Corel-Layer"/>
  <path class="fil0" d="M49.8933 37.938c-0.4198,-1.3774 -1.1747,-2.6291 -2.1971,-3.6429 -1.6285,-1.6375 -3.8445,-2.5553 -6.1539,-2.549 -1.1802,0.0006 -2.3482,0.24 -3.4335,0.7038l-8.5603 -8.5602 11.3661 -11.2804 2.6917 -0.0761c0.3257,-0.0099 0.6235,-0.1858 0.7895,-0.4661l3.852 -6.4772c0.2239,-0.3738 0.1651,-0.852 -0.1426,-1.1604l-3.329 -3.3289c-0.3084,-0.3077 -0.7866,-0.3666 -1.1604,-0.1427l-6.4772 3.8521c-0.2802,0.1659 -0.4562,0.4638 -0.4661,0.7894l-0.0761 2.6822 -11.3375 11.3185 -7.7803 -7.7803c0.8169,-4.7365 -2.3606,-9.2384 -7.0971,-10.0554 -2.1946,-0.3785 -4.4509,0.0987 -6.3043,1.3335 -0.4352,0.2943 -0.5494,0.8855 -0.2552,1.3207 0.0828,0.1223 0.1929,0.2237 0.3217,0.2963l4.3182 2.4063c0.9511,0.5422 1.1413,2.1591 0.3709,3.5287 -0.7704,1.3697 -2.2447,2.0735 -3.2053,1.5409l-4.0043 -2.1686c-0.4602,-0.2533 -1.0386,-0.0854 -1.2917,0.3748 -0.0873,0.1585 -0.1275,0.3386 -0.1159,0.5192 0.301,4.7971 4.4338,8.4418 9.2308,8.1409 0.9911,-0.0622 1.9642,-0.2936 2.8772,-0.684l7.0764 7.0764 -3.0626 3.0627 -0.6944 -0.6848c-0.7686,-0.7356 -1.9801,-0.7356 -2.7487,0l-0.9512 0.9511c-0.7246,0.7055 -0.7705,1.8546 -0.1046,2.6156l-11.2519 11.2329c-0.759,0.7263 -0.7855,1.9306 -0.0592,2.6896 0.0192,0.0202 0.039,0.0399 0.0592,0.0592l3.2148 3.2148c0.7264,0.759 1.9306,0.7855 2.6896,0.0593 0.0202,-0.0193 0.04,-0.039 0.0592,-0.0593l11.2615 -11.2519c0.761,0.6659 1.9101,0.62 2.6156,-0.1046l0.9511 -0.9511c0.759,-0.7263 0.7855,-1.9306 0.0592,-2.6896 -0.0192,-0.0202 -0.039,-0.04 -0.0592,-0.0592l-0.6943 -0.6943 3.0436 -3.1102 9.226 9.226c-0.797,4.7399 2.3993,9.2285 7.1392,10.0255 2.8075,0.4721 5.6684,-0.4588 7.6605,-2.4926 0.3493,-0.3923 0.3146,-0.9934 -0.0778,-1.3428 -0.1013,-0.0903 -0.2208,-0.1578 -0.3502,-0.198l-5.3549 -1.4362c-0.5248,-0.1687 -0.9402,-0.5735 -1.1224,-1.0938 -0.2782,-0.7173 -0.3116,-1.5063 -0.0951,-2.2447 0.3995,-1.4932 1.6645,-2.5585 2.7298,-2.2732l5.2978 1.4267c0.0851,0.0124 0.1717,0.0124 0.2568,0 0.5253,0.0065 0.9562,-0.4142 0.9626,-0.9394 0.0017,-0.1563 -0.0348,-0.3106 -0.1067,-0.4492zm-11.7085 -28.6006c0.1712,-0.1724 0.2699,-0.4039 0.2759,-0.6468l0.0761 -2.5395 5.3929 -3.2053 2.2827 2.2827 -3.1387 5.3834 -2.5871 0.0951c-0.2429,0.006 -0.4744,0.1047 -0.6468,0.2759l-11.6038 11.5943 -1.636 -1.6359 11.5848 -11.6039zm-32.9853 37.9027l-3.2624 -3.2434 11.309 -11.2804 1.6359 1.6359 1.5599 1.6169 -11.2424 11.271zm13.9151 -11.4136l-1.2555 -1.265 -0.4851 -0.4851 -3.9947 -4.0233 0.9511 -0.9511 5.7068 5.7829 -0.9226 0.9416zm0.1807 -4.3372l-1.6359 -1.6359 3.0626 -3.0627 1.6359 1.636 -3.0626 3.0626zm24.6534 4.575c-0.2822,-0.0759 -0.5733,-0.1143 -0.8655,-0.1142 -2.0736,0.1674 -3.7852,1.6887 -4.1945,3.7284 -0.3246,1.1454 -0.2611,2.3661 0.1807,3.4717 0.4077,1.0639 1.2919,1.8742 2.3873,2.1876l3.5383 0.9511c-3.2265,1.9226 -7.4007,0.8657 -9.3233,-2.3607 -0.903,-1.5153 -1.1818,-3.3221 -0.7778,-5.0391 0.0724,-0.3193 -0.0246,-0.6535 -0.2568,-0.8845l-21.4386 -21.4576c-0.3043,-0.2859 -0.7596,-0.3399 -1.1223,-0.1332 -0.9822,0.5183 -2.0759,0.7893 -3.1863,0.7895 -2.8616,0.0025 -5.4176,-1.7891 -6.3916,-4.4799l2.1686 1.208c0.5055,0.283 1.0756,0.4305 1.655,0.428 1.761,-0.1014 3.3361,-1.1297 4.1374,-2.7012 1.2935,-2.3113 0.7894,-5.0601 -1.1128,-6.1253l-2.7678 -1.5694c3.537,-1.2635 7.4284,0.5797 8.6919,4.1166 0.4385,1.2277 0.5149,2.5555 0.2202,3.8254 -0.0724,0.3193 0.0246,0.6535 0.2568,0.8845l21.4861 21.4766c0.2937,0.294 0.7443,0.3635 1.1129,0.1712 0.9822,-0.5179 2.0758,-0.7888 3.1863,-0.7894 2.4085,-0.0019 4.6378,1.272 5.859,3.348l-3.4432 -0.9321z"/>
  <rect class="fil1" width="50" height="50"/>
 </g>
</svg>
