<?xml version="1.0" encoding="UTF-8"?>
<!DOCTYPE svg PUBLIC "-//W3C//DTD SVG 1.1//EN" "http://www.w3.org/Graphics/SVG/1.1/DTD/svg11.dtd">
<!-- Creator: CorelDRAW -->
<svg xmlns="http://www.w3.org/2000/svg" xml:space="preserve" width="50mm" height="50mm" style="shape-rendering:geometricPrecision; text-rendering:geometricPrecision; image-rendering:optimizeQuality; fill-rule:evenodd; clip-rule:evenodd"
viewBox="0 0 50 50"
 xmlns:xlink="http://www.w3.org/1999/xlink">
 <defs>
  <style type="text/css">
   <![CDATA[
    .fil1 {fill:none}
    .fil0 {fill:black}
   ]]>
  </style>
 </defs>
 <g id="Layer_x0020_1">
  <metadata id="CorelCorpID_0Corel-Layer"/>
  <g id="_119956072">
   <path id="_119956936" class="fil0" d="M43.0328 16.3934l-3.7213 0c-0.901,-1.0033 -2.2033,-1.6393 -3.6558,-1.6393 -0.0172,0 -0.0344,0 -0.0508,0 -0.405,-3.2303 -3.1678,-5.7377 -6.5065,-5.7377 -1.5097,0 -2.9386,0.5067 -4.0984,1.4401 -1.1598,-0.9334 -2.5887,-1.4401 -4.0984,-1.4401 -3.3387,0 -6.1015,2.5075 -6.5065,5.7377 -0.0172,0 -0.0345,0 -0.0508,0 -1.4517,0 -2.754,0.636 -3.6558,1.6394l-3.7213 -0.0001c-1.3555,0 -2.459,1.1035 -2.459,2.4591l0 23.7705c0,1.3555 1.1035,2.459 2.459,2.459l9.8361 0 0 3.2787 -3.2787 0 0 1.6393 22.9508 0 0 -1.6393 -3.2787 0 0 -3.2787 9.8361 0c1.3555,0 2.459,-1.1035 2.459,-2.459l0 -23.7705c0,-1.3556 -1.1035,-2.459 -2.459,-2.4591zm-28.6885 0c0.2221,0 0.4434,0.0221 0.6592,0.0664l0.9841 0.2018 0 -1.0049 -0.004 -0.0829c0,-2.7124 2.2056,-4.9181 4.918,-4.9181 1.3312,0 2.5787,0.5256 3.5133,1.4797l0.5851 0.5983 0.5851 -0.5983c0.9346,-0.9541 2.1821,-1.4797 3.5133,-1.4797 2.7124,0 4.918,2.2057 4.918,4.9009l-0.004 1.1058 0.9841 -0.2017c0.2158,-0.0452 0.4371,-0.0672 0.6592,-0.0672 1.8082,-0.0001 3.2787,1.4704 3.2787,3.2786 0,1.8082 -1.4705,3.2787 -3.2787,3.2787l-9.836 0 0 1.6394 1.4884 0c-0.3394,0.9517 -1.2411,1.6393 -2.3081,1.6393 -1.067,0 -1.9687,-0.6876 -2.3081,-1.6393l1.4884 0 0 -1.6394 -9.836 0c-1.8082,0 -3.2787,-1.4705 -3.2787,-3.2787 0,-1.8082 1.4705,-3.2786 3.2787,-3.2787zm19.4772 14.7854l-1.4132 1.4132 -2.3057 -1.3836 -0.4239 0.2573c-0.7909,0.4819 -1.6486,0.8377 -2.5459,1.0554l-0.4811 0.1173 -0.6523 2.6075 -1.9988 0 -0.6515 -2.6075 -0.4812 -0.1173c-0.898,-0.2177 -1.755,-0.5735 -2.5458,-1.0554l-0.4238 -0.2573 -2.3058 1.3836 -1.4132 -1.4132 1.3836 -2.3058 -0.2574 -0.4238c-0.4818,-0.7909 -0.8368,-1.6473 -1.0553,-2.5459l-0.1173 -0.4811 -2.6083 -0.6523 0 -0.2542c0.2673,0.0448 0.5403,0.0737 0.8197,0.0737l3.3271 0c0.4099,3.6829 3.5384,6.5573 7.3286,6.5573 3.7902,0 6.9187,-2.8744 7.3286,-6.5573l3.3271 0c0.2795,0 0.5524,-0.0288 0.8197,-0.0737l0 0.2542 -2.6075 0.6515 -0.1173 0.4812c-0.2185,0.898 -0.5735,1.7557 -1.0554,2.5458l-0.2573 0.4238 1.3836 2.3066zm-12.837 -6.5886c0.381,1.8678 2.036,3.2787 4.0155,3.2787 1.9795,0 3.6345,-1.4109 4.0155,-3.2787l1.6565 0c-0.3998,2.7764 -2.7876,4.918 -5.672,4.918 -2.8844,0 -5.2722,-2.1416 -5.672,-4.918l1.6565 0zm10.5729 23.7705l-13.1148 0 0 -3.2787 13.1148 0 0 3.2787zm12.295 -5.7377c0,0.4514 -0.3682,0.8196 -0.8196,0.8196l-36.0656 0c-0.4514,0 -0.8196,-0.3682 -0.8196,-0.8196l0 -2.4591 37.7048 0 0 2.4591zm-37.7048 -4.0984l0 -19.6721c0,-0.4515 0.3682,-0.8197 0.8196,-0.8197l2.746 0c-0.1821,0.5139 -0.287,1.0638 -0.287,1.6393 0,1.8155 0.9918,3.4007 2.459,4.2525l0 2.1252 2.9009 0.7256c0.213,0.726 0.5039,1.4273 0.8681,2.0928l-1.5384 2.5639 3.2233 3.2234 2.5644 -1.5384c0.6655,0.3642 1.3664,0.6543 2.0924,0.8681l0.7248 2.9 4.5586 0 0.7256 -2.9008c0.7261,-0.213 1.4273,-0.5039 2.0928,-0.8681l2.5639 1.5384 3.2234 -3.2233 -1.5384 -2.5644c0.3642,-0.6656 0.6543,-1.3664 0.868,-2.0924l2.9002 -0.7248 0 -2.1252c1.4672,-0.8518 2.459,-2.437 2.459,-4.2525 0,-0.5755 -0.1049,-1.1254 -0.287,-1.6393l2.746 0c0.4514,0 0.8196,0.3682 0.8196,0.8197l0 19.6721 -37.7048 0z"/>
   <path id="_119960920" class="fil0" d="M20.9016 13.9344l0 -1.6393c-1.8081,0 -3.2786,1.4705 -3.2786,3.2787l1.6393 0c0,-0.9041 0.7353,-1.6394 1.6393,-1.6394z"/>
   <polygon id="_119960416" class="fil0" points="24.1803,0 25.8197,0 25.8197,1.6393 24.1803,1.6393 "/>
   <polygon id="_119954104" class="fil0" points="24.1803,3.2787 25.8197,3.2787 25.8197,4.918 24.1803,4.918 "/>
   <polygon id="_119953864" class="fil0" points="24.1803,6.5574 25.8197,6.5574 25.8197,8.1967 24.1803,8.1967 "/>
   <polygon id="_119954944" class="fil0" points="37.2951,4.918 38.9344,4.918 38.9344,6.5574 37.2951,6.5574 "/>
   <polygon id="_119958616" class="fil0" points="37.2951,8.1967 38.9344,8.1967 38.9344,9.836 37.2951,9.836 "/>
   <polygon id="_119949304" class="fil0" points="37.2951,11.4754 38.9344,11.4754 38.9344,13.1147 37.2951,13.1147 "/>
   <polygon id="_119951560" class="fil0" points="30.7377,0 32.377,0 32.377,1.6393 30.7377,1.6393 "/>
   <polygon id="_119957680" class="fil0" points="30.7377,3.2787 32.377,3.2787 32.377,4.918 30.7377,4.918 "/>
   <polygon id="_119952352" class="fil0" points="30.7377,6.5574 32.377,6.5574 32.377,8.1967 30.7377,8.1967 "/>
   <polygon id="_119955496" class="fil0" points="11.0656,4.918 12.7049,4.918 12.7049,6.5574 11.0656,6.5574 "/>
   <polygon id="_119952376" class="fil0" points="11.0656,8.1967 12.7049,8.1967 12.7049,9.836 11.0656,9.836 "/>
   <polygon id="_119953600" class="fil0" points="11.0656,11.4754 12.7049,11.4754 12.7049,13.1147 11.0656,13.1147 "/>
   <polygon id="_119951296" class="fil0" points="17.623,0 19.2623,0 19.2623,1.6393 17.623,1.6393 "/>
   <polygon id="_119957584" class="fil0" points="17.623,3.2787 19.2623,3.2787 19.2623,4.918 17.623,4.918 "/>
   <polygon id="_119950168" class="fil0" points="17.623,6.5574 19.2623,6.5574 19.2623,8.1967 17.623,8.1967 "/>
  </g>
  <rect class="fil1" width="50" height="50"/>
 </g>
</svg>
