<?xml version="1.0" encoding="UTF-8"?>
<!DOCTYPE svg PUBLIC "-//W3C//DTD SVG 1.1//EN" "http://www.w3.org/Graphics/SVG/1.1/DTD/svg11.dtd">
<!-- Creator: CorelDRAW -->
<svg xmlns="http://www.w3.org/2000/svg" xml:space="preserve" width="50mm" height="50mm" style="shape-rendering:geometricPrecision; text-rendering:geometricPrecision; image-rendering:optimizeQuality; fill-rule:evenodd; clip-rule:evenodd"
viewBox="0 0 50 50"
 xmlns:xlink="http://www.w3.org/1999/xlink">
 <defs>
  <style type="text/css">
   <![CDATA[
    .fil1 {fill:none}
    .fil0 {fill:black}
   ]]>
  </style>
 </defs>
 <g id="Layer_x0020_1">
  <metadata id="CorelCorpID_0Corel-Layer"/>
  <g id="_119959528">
   <path id="_119956864" class="fil0" d="M18.1648 7.406l-1.8024 -3.606c-0.3116,-0.6294 -0.9542,-1.0267 -1.6565,-1.0237l-12.8541 0c-1.023,0 -1.8518,0.8289 -1.8518,1.8519l0 25.9262c0,1.0224 0.8288,1.8518 1.8518,1.8518l36.1116 0 0 -1.8518 -36.1116 0 0 -25.9262 12.8541 0 1.8024 3.6054c0.3116,0.6294 0.9542,1.0267 1.6565,1.0243l22.5764 0 0 3.7037 1.8519 0 0 -7.4075c0,-1.023 -0.8289,-1.8518 -1.8519,-1.8518l-22.2225 -0.0001 0 1.8519 22.2225 0 0 1.8519 -22.5764 0z"/>
   <path id="_119956096" class="fil0" d="M20.3706 26.8506l3.7038 0c0.5111,0 0.9259,-0.4148 0.9259,-0.9259l0 -5.5749c1.5944,-1.196 2.2443,-3.2775 1.6143,-5.1679 -0.6299,-1.8911 -2.3992,-3.1655 -4.3921,-3.1655 -1.993,0 -3.7623,1.2744 -4.3922,3.1655 -0.63,1.8904 0.0199,3.9719 1.6143,5.1679l0 5.5749c0,0.5111 0.4149,0.9259 0.926,0.9259zm1.8519 -12.9631c1.5341,0 2.7778,1.2436 2.7778,2.7779 0.0006,0.9879 -0.53,1.9012 -1.3889,2.3895 -0.2858,0.1652 -0.4624,0.4702 -0.463,0.8l0 5.1439 -1.8519 0 0 -5.1439c-0.0006,-0.3298 -0.1772,-0.6348 -0.463,-0.8 -0.8589,-0.4883 -1.3895,-1.4016 -1.3889,-2.3895 0,-1.5343 1.2437,-2.7779 2.7779,-2.7779z"/>
   <path id="_119949232" class="fil0" d="M42.5931 36.11c-2.0454,0 -3.7038,1.6584 -3.7038,3.7038 0,2.0453 1.6584,3.7037 3.7038,3.7037 2.0454,0 3.7037,-1.6584 3.7037,-3.7037 0,-2.0455 -1.6583,-3.7038 -3.7037,-3.7038zm0 5.5556c-1.023,0 -1.8519,-0.8295 -1.8519,-1.8518 0,-1.0231 0.8289,-1.8519 1.8519,-1.8519 1.023,0 1.8518,0.8288 1.8518,1.8519 0,1.0223 -0.8288,1.8518 -1.8518,1.8518z"/>
   <path id="_119959360" class="fil0" d="M45.3709 32.9489l0 -17.2095c0,-0.5112 -0.4148,-0.9259 -0.926,-0.9259l-3.7037 0c-0.5111,0 -0.9259,0.4147 -0.9259,0.9259l0 0.926 -0.926 0c-0.5111,0 -0.9259,0.4146 -0.9259,0.9259l0 2.7778c0,0.5111 0.4148,0.9259 0.9259,0.9259l0.926 0 0 1.8519 -1.8519 0c-0.5111,0 -0.9259,0.4147 -0.9259,0.9259l0 3.7038c0,0.5111 0.4148,0.9259 0.9259,0.9259l1.8519 0 0 4.2464c-3.2872,1.3298 -5.1705,4.802 -4.4929,8.2815 0.6769,3.4806 3.7254,5.9933 7.2707,5.9933 3.5453,0 6.5937,-2.5127 7.2706,-5.9933 0.6776,-3.4795 -1.2056,-6.9517 -4.4928,-8.2815zm-2.7778 12.4205c-2.7561,-0.0031 -5.0939,-2.0255 -5.4924,-4.7533 -0.3978,-2.7272 1.2636,-5.3343 3.9045,-6.1246 0.3925,-0.117 0.6619,-0.4775 0.6619,-0.8874l0 -5.8275c0,-0.5113 -0.4148,-0.926 -0.9259,-0.926l-1.8519 0 0 -1.8518 1.8519 0c0.5111,0 0.9259,-0.4149 0.9259,-0.926l0 -3.7037c0,-0.5113 -0.4148,-0.9259 -0.9259,-0.9259l-0.9259 0 0 -0.926 0.9259 0c0.5111,0 0.9259,-0.4148 0.9259,-0.9259l0 -0.9259 1.8519 0 0 16.9387c0,0.4099 0.2695,0.7704 0.6619,0.8874 2.6409,0.7902 4.3024,3.3974 3.9045,6.1246 -0.3984,2.7278 -2.7363,4.7502 -5.4923,4.7533z"/>
   <polygon id="_119958544" class="fil0" points="0,34.2581 16.6668,34.2581 16.6668,36.11 0,36.11 "/>
   <polygon id="_119960080" class="fil0" points="18.5187,34.2581 33.3337,34.2581 33.3337,36.11 18.5187,36.11 "/>
  </g>
  <rect class="fil1" width="50" height="50"/>
 </g>
</svg>
