<?xml version="1.0" encoding="UTF-8"?>
<!DOCTYPE svg PUBLIC "-//W3C//DTD SVG 1.1//EN" "http://www.w3.org/Graphics/SVG/1.1/DTD/svg11.dtd">
<!-- Creator: CorelDRAW -->
<svg xmlns="http://www.w3.org/2000/svg" xml:space="preserve" width="50mm" height="50.01mm" style="shape-rendering:geometricPrecision; text-rendering:geometricPrecision; image-rendering:optimizeQuality; fill-rule:evenodd; clip-rule:evenodd"
viewBox="0 0 50 50.01"
 xmlns:xlink="http://www.w3.org/1999/xlink">
 <defs>
  <style type="text/css">
   <![CDATA[
    .fil1 {fill:none}
    .fil0 {fill:black}
   ]]>
  </style>
 </defs>
 <g id="Layer_x0020_1">
  <metadata id="CorelCorpID_0Corel-Layer"/>
  <g id="_119106488">
   <path id="_121847504" class="fil0" d="M40.2193 25.0049l6.6336 -6.6336c4.196,-4.196 4.196,-11.0234 0,-15.2193 -2.0326,-2.0326 -4.7351,-3.152 -7.6096,-3.152 -2.8745,0 -5.577,1.1194 -7.6097,3.1521l-6.6336 6.6336 -6.6337 -6.6336c-2.0327,-2.0327 -4.7351,-3.1521 -7.6097,-3.1521 -2.8746,0 -5.577,1.1194 -7.6096,3.1521 -4.196,4.196 -4.196,11.0233 0,15.2193l6.6337 6.6336 -6.6337 6.6336c-4.196,4.1959 -4.196,11.0233 0,15.2192 2.0325,2.0325 4.7351,3.1521 7.6097,3.1521 2.8746,0 5.577,-1.1194 7.6097,-3.1521l6.6336 -6.6335 6.6336 6.6336c2.0325,2.0325 4.7351,3.1521 7.6097,3.1521 2.8746,0 5.577,-1.1194 7.6097,-3.1521 4.196,-4.196 4.196,-11.0233 0,-15.2193l-6.6337 -6.6337zm-6.4849 -19.752c1.5188,-1.5188 3.5138,-2.2782 5.5089,-2.2782 1.9951,0 3.9901,0.7594 5.509,2.2782 3.0376,3.0376 3.0376,7.9801 0,11.0176l-6.6337 6.6337 -11.0178 -11.0177 6.6336 -6.6336zm-28.4866 11.0176c-3.0377,-3.0376 -3.0377,-7.9801 0,-11.0176 1.5187,-1.5188 3.5137,-2.2782 5.5089,-2.2782 1.9951,0 3.99,0.7594 5.5089,2.2782l6.6337 6.6336 -11.0179 11.0176 -6.6336 -6.6336zm11.0177 28.4866c-3.0376,3.0376 -7.9802,3.0376 -11.0177,0 -3.0377,-3.0376 -3.0377,-7.9801 0,-11.0176l6.6337 -6.6337 11.0177 11.0178 -6.6337 6.6335zm-2.2834 -19.7522l11.0179 -11.0177 11.0177 11.0177 -11.0177 11.0178 -11.0179 -11.0178zm30.7701 19.7522c-3.0377,3.0376 -7.9802,3.0376 -11.0178,0l-6.6336 -6.6336 11.0177 -11.0178 6.6337 6.6337c3.0375,3.0377 3.0375,7.9802 0,11.0177z"/>
   <rect id="_121845536" class="fil0" transform="matrix(0.168391 -0.16839 0.168391 0.16839 22.8291 18.8189)" width="12.4757" height="13.3075"/>
   <rect id="_121848944" class="fil0" transform="matrix(0.168391 -0.16839 0.168391 0.16839 28.9446 24.9346)" width="12.4757" height="13.3071"/>
   <rect id="_121849712" class="fil0" transform="matrix(0.168391 -0.16839 0.168391 0.16839 16.713 24.9348)" width="12.4757" height="13.3071"/>
   <rect id="_122364824" class="fil0" transform="matrix(0.168391 -0.16839 0.168391 0.16839 22.8296 31.0499)" width="12.4757" height="13.3075"/>
   <rect id="_122365592" class="fil0" transform="matrix(0.168391 -0.16839 0.168391 0.16839 22.829 24.9353)" width="12.4757" height="13.3071"/>
  </g>
  <rect class="fil1" y="0.0049995" width="50" height="50"/>
 </g>
</svg>
