<?xml version="1.0" encoding="UTF-8"?>
<!DOCTYPE svg PUBLIC "-//W3C//DTD SVG 1.1//EN" "http://www.w3.org/Graphics/SVG/1.1/DTD/svg11.dtd">
<!-- Creator: CorelDRAW -->
<svg xmlns="http://www.w3.org/2000/svg" xml:space="preserve" width="50mm" height="50.0002mm" style="shape-rendering:geometricPrecision; text-rendering:geometricPrecision; image-rendering:optimizeQuality; fill-rule:evenodd; clip-rule:evenodd"
viewBox="0 0 50 50.0002"
 xmlns:xlink="http://www.w3.org/1999/xlink">
 <defs>
  <style type="text/css">
   <![CDATA[
    .fil1 {fill:none}
    .fil0 {fill:black}
   ]]>
  </style>
 </defs>
 <g id="Layer_x0020_1">
  <metadata id="CorelCorpID_0Corel-Layer"/>
  <g id="_122186464">
   <rect id="_122192488" class="fil0" x="4.16668" y="28.1249" width="41.6669" height="2.08329"/>
   <path id="_122195464" class="fil0" d="M33.3249 44.6624l-1.0417 -8.3333c-0.0651,-0.5212 -0.5081,-0.9123 -1.0332,-0.9125l-12.5 0c-0.5252,0.0002 -0.9682,0.3914 -1.0333,0.9125l-1.0417 8.3333c-0.0054,0.0428 -0.008,0.0859 -0.008,0.1289 -0.0002,0.5753 0.4661,1.0418 1.0414,1.042l14.5832 0c0.0431,0 0.0862,-0.0027 0.129,-0.008 0.5707,-0.0714 0.9757,-0.592 0.9043,-1.1629zm-14.4364 -0.9125l0.7813 -6.25 10.6604 0 0.7813 6.25 -12.223 0z"/>
   <path id="_122195656" class="fil0" d="M35.4166 43.7499l-20.8333 0c-0.5753,0 -1.0417,0.4664 -1.0417,1.0417l0 3.125c0,1.1506 0.9327,2.0833 2.0833,2.0833l18.7499 0c1.1506,0 2.0833,-0.9327 2.0833,-2.0833l0 -3.125c0.0001,-0.5753 -0.4662,-1.0417 -1.0415,-1.0417zm-1.0417 4.1667l-18.7499 0 0 -2.0833 18.7499 0 0 2.0833z"/>
   <path id="_122195848" class="fil0" d="M47.9166 22.9167l0 11.4582c0,0.5753 -0.4664,1.0417 -1.0417,1.0417l-43.7499 0c-0.5753,0 -1.0417,-0.4664 -1.0417,-1.0417l0 -31.2499c0,-0.5753 0.4664,-1.0417 1.0417,-1.0417l23.9582 0 0 -2.0833 -23.9582 0c-1.7259,0 -3.125,1.3991 -3.125,3.125l0 31.2499c0,1.7259 1.3991,3.125 3.125,3.125l43.7499 0c1.7259,0 3.125,-1.3991 3.125,-3.125l0 -11.4582 -2.0833 0z"/>
   <rect id="_122196640" class="fil0" x="11.458" y="47.9169" width="27.083" height="2.08329"/>
   <path id="_122196856" class="fil0" d="M6.25 5.2083c-0.5753,0 -1.0417,0.4664 -1.0417,1.0417l0 19.7917 2.0833 0 0 -18.75 16.6667 0 0 -2.0834 -17.7083 0z"/>
   <path id="_122197096" class="fil0" d="M48.9582 9.375l-2.627 0c-0.1103,-0.3095 -0.2365,-0.613 -0.3782,-0.9094l1.8594 -1.8583c0.4066,-0.4067 0.4066,-1.0661 0,-1.4729l-2.9469 -2.9469c-0.4067,-0.4067 -1.0661,-0.4067 -1.4729,0l-1.8583 1.8583c-0.2965,-0.1411 -0.6,-0.2669 -0.9094,-0.3771l0 -2.627c0,-0.5753 -0.4664,-1.0417 -1.0417,-1.0417l-4.1667 0c-0.5752,0 -1.0416,0.4664 -1.0416,1.0417l0 2.627c-0.3092,0.1098 -0.6128,0.2354 -0.9093,0.3761l-1.8583 -1.8573c-0.4068,-0.4067 -1.0661,-0.4067 -1.473,0l-2.9469 2.9469c-0.4066,0.4067 -0.4066,1.0661 0,1.4729l1.8594 1.8583c-0.1417,0.2964 -0.2679,0.5999 -0.3781,0.9094l-2.6271 0c-0.5752,0 -1.0416,0.4664 -1.0416,1.0417l0 4.1667c0,0.5753 0.4664,1.0417 1.0416,1.0417l2.6271 0c0.1099,0.3094 0.2357,0.6129 0.3771,0.9093l-1.8583 1.8582c-0.4067,0.4068 -0.4067,1.0661 0,1.473l2.9468 2.9469c0.4068,0.4066 1.0661,0.4066 1.473,0l1.8583 -1.8583c0.2965,0.1411 0.6,0.2669 0.9094,0.377l0 2.6271c0,0.5753 0.4664,1.0417 1.0417,1.0417l4.1666 0c0.5753,0 1.0417,-0.4664 1.0417,-1.0417l0 -2.6261c0.3094,-0.1102 0.6129,-0.236 0.9094,-0.377l1.8583 1.8573c0.4067,0.4066 1.0661,0.4066 1.4729,0l2.9469 -2.9469c0.4067,-0.4067 0.4067,-1.0661 0,-1.473l-1.8593 -1.8582c0.1416,-0.2964 0.2678,-0.6 0.3781,-0.9094l2.627 0c0.5753,0 1.0417,-0.4664 1.0417,-1.0417l0 -4.1667c-0.0001,-0.5752 -0.4665,-1.0416 -1.0418,-1.0416zm-1.0416 4.1656l-2.3552 0c-0.4745,0.0006 -0.8886,0.3218 -1.0073,0.7812 -0.1707,0.6582 -0.4326,1.2894 -0.7781,1.8751 -0.2416,0.4095 -0.1752,0.9307 0.1614,1.2666l1.6667 1.6667 -1.4729 1.473 -1.6667 -1.6667c-0.3361,-0.3363 -0.8573,-0.4023 -1.2667,-0.1604 -0.5858,0.3448 -1.2169,0.606 -1.875,0.776 -0.4599,0.1188 -0.7812,0.5334 -0.7813,1.0083l0 2.3563 -2.0833 0 0.0011 -2.3532c-0.0001,-0.4749 -0.3214,-0.8896 -0.7812,-1.0083 -0.6581,-0.17 -1.2893,-0.4312 -1.875,-0.776 -0.4094,-0.2419 -0.9306,-0.1759 -1.2667,0.1604l-1.6667 1.6667 -1.473 -1.4729 1.6667 -1.6667c0.3366,-0.3359 0.4031,-0.8572 0.1614,-1.2667 -0.3455,-0.5857 -0.6074,-1.2168 -0.7781,-1.875 -0.1186,-0.4595 -0.5328,-0.7807 -1.0073,-0.7813l-2.3562 0 0 -2.0833 2.3573 0c0.4745,-0.0006 0.8886,-0.3218 1.0073,-0.7812 0.1707,-0.6582 0.4326,-1.2894 0.7781,-1.875 0.2416,-0.4096 0.1752,-0.9308 -0.1614,-1.2667l-1.6667 -1.6667 1.4708 -1.4739 1.6667 1.6666c0.3361,0.3364 0.8573,0.4024 1.2667,0.1605 0.5857,-0.3448 1.2168,-0.606 1.875,-0.7761 0.4598,-0.1187 0.7811,-0.5334 0.7812,-1.0083l0 -2.3563 2.0833 0 0 2.3562c-0.0006,0.4748 0.3199,0.8898 0.7792,1.0094 0.6581,0.1701 1.2893,0.4313 1.875,0.7761 0.4094,0.2419 0.9306,0.1759 1.2667,-0.1605l1.6667 -1.6666 1.474 1.4707 -1.6668 1.6667c-0.3366,0.3359 -0.4031,0.8572 -0.1614,1.2667 0.3455,0.5857 0.6074,1.2168 0.7781,1.875 0.1187,0.4595 0.5328,0.7807 1.0073,0.7813l2.3563 0 0 2.0823z"/>
   <path id="_122197288" class="fil0" d="M37.4999 8.3333c-2.3011,0 -4.1667,1.8655 -4.1667,4.1667 0,2.3012 1.8655,4.1667 4.1667,4.1667 2.3012,0 4.1667,-1.8656 4.1667,-4.1667 0,-2.3012 -1.8655,-4.1667 -4.1667,-4.1667zm0 6.25c-1.1505,0 -2.0833,-0.9327 -2.0833,-2.0833 0,-1.1506 0.9328,-2.0833 2.0833,-2.0833 1.1506,0 2.0833,0.9327 2.0833,2.0833 0,1.1506 -0.9327,2.0833 -2.0833,2.0833z"/>
   <path id="_122197480" class="fil0" d="M20.8333 9.375l-10.4166 0c-0.5753,0 -1.0417,0.4664 -1.0417,1.0417l0 4.1667c0,0.5753 0.4664,1.0417 1.0417,1.0417l10.4167 0c0.5753,0 1.0417,-0.4664 1.0417,-1.0417l0 -4.1667c-0.0001,-0.5753 -0.4665,-1.0417 -1.0418,-1.0417zm-1.0416 4.1667l-8.3333 0 0 -2.0833 8.3333 0 0 2.0833z"/>
   <rect id="_122198272" class="fil0" x="9.37499" y="17.708" width="2.08329" height="2.08329"/>
   <rect id="_122199136" class="fil0" x="13.542" y="17.708" width="2.08329" height="2.08329"/>
   <rect id="_122199688" class="fil0" x="9.37499" y="21.875" width="12.5" height="2.08329"/>
  </g>
  <rect class="fil1" y="9.95049e-005" width="50" height="50"/>
 </g>
</svg>
