<?xml version="1.0" encoding="UTF-8"?>
<!DOCTYPE svg PUBLIC "-//W3C//DTD SVG 1.1//EN" "http://www.w3.org/Graphics/SVG/1.1/DTD/svg11.dtd">
<!-- Creator: CorelDRAW -->
<svg xmlns="http://www.w3.org/2000/svg" xml:space="preserve" width="50mm" height="50.0106mm" style="shape-rendering:geometricPrecision; text-rendering:geometricPrecision; image-rendering:optimizeQuality; fill-rule:evenodd; clip-rule:evenodd"
viewBox="0 0 50 50.0106"
 xmlns:xlink="http://www.w3.org/1999/xlink">
 <defs>
  <style type="text/css">
   <![CDATA[
    .fil1 {fill:none}
    .fil0 {fill:#1F1A17}
   ]]>
  </style>
 </defs>
 <g id="Layer_x0020_1">
  <metadata id="CorelCorpID_0Corel-Layer"/>
  <path class="fil0" d="M44.1807 44.4149l-2.6221 0c0.0401,-0.2644 0.0141,-0.2054 0.0236,-2.3713 0,-0.9591 -0.7793,-1.7386 -1.7383,-1.7386l-1.6062 0 0 -20.7672 3.0873 3.0944c0.8479,0.8479 2.2225,0.8503 3.0729,0.0001 0.2623,-0.3332 1.1764,-0.8551 1.1764,-2.0763 0.0001,-0.5811 -0.2244,-1.1244 -0.6354,-1.5352l-18.351 -18.3841c-0.8479,-0.8477 -2.2346,-0.8501 -3.0873,0.0001l-18.3959 18.384c-0.411,0.4107 -0.6354,0.9541 -0.6354,1.5352 0,1.2212 0.9095,1.7362 1.1764,2.0763 0.848,0.8478 2.2204,0.8502 3.073,0l3.0873 -3.0851 0 20.7578 -1.6063 0c-0.959,0 -1.7383,0.7796 -1.7383,1.7386 0.0095,2.173 -0.0165,2.1069 0.0236,2.3714l-2.622 -0.0001c-0.9591,0 -1.7384,0.7796 -1.7384,1.7361l0 2.1093c0,0.9592 0.7793,1.7361 1.7384,1.7361l30.5273 0.0025c0.4063,0 0.737,-0.333 0.737,-0.7393 0,-0.4086 -0.3307,-0.7393 -0.737,-0.7393l-30.5273 0c-0.1441,0 -0.2598,-0.1158 -0.2598,-0.2599l0 -2.1095c0,-0.1416 0.1157,-0.2595 0.2598,-0.2595 12.9158,0 29.0512,0 38.3176,0 0.1441,0 0.2598,0.1179 0.2598,0.2596l0 2.1093c0,0.1442 -0.1157,0.26 -0.2598,0.26l-4.9344 0c-0.4086,0 -0.7393,0.3307 -0.7393,0.7393 0,0.4063 0.3307,0.7394 0.7393,0.7394l4.9345 -0.0001c0.959,0 1.7383,-0.7794 1.7383,-1.7385l0.0001 -2.1095c0,-0.9564 -0.7794,-1.7359 -1.7385,-1.7359l0.0001 -0.0001zm-36.5059 -22.8268c-0.2716,0.2717 -0.711,0.2718 -0.985,0.0001 -0.3945,-0.4488 -0.7441,-0.5881 -0.7441,-1.0322 0,-0.1844 0.0732,-0.3615 0.2055,-0.4914 0.5976,-0.5976 1.0512,-1.0509 18.3958,-18.3814 0.274,-0.2763 0.7252,-0.2716 0.9969,-0.0023 22.8624,22.907 11.6897,11.711 18.3485,18.3837 0.2741,0.2716 0.2717,0.7158 0,0.9827 -0.4345,0.385 -0.5858,0.7441 -1.0299,0.7441 -0.1866,-0.0001 -0.3614,-0.0733 -0.4937,-0.2032 -0.274,-0.2765 0.1654,0.1654 -16.8013,-16.8343 -0.2858,-0.2882 -0.7536,-0.2906 -1.0441,-0.0024l-7.4735 7.4663c-0.2882,0.2883 -0.2882,0.756 0,1.0465 0.2881,0.2881 0.7582,0.2882 1.0462,0l6.9493 -6.9443 11.7134 11.737 0 22.248 -23.474 0 0 -22.2339 2.7895 -2.7895c0.2882,-0.2881 0.2882,-0.7558 0,-1.044 -0.2882,-0.2882 -0.7559,-0.2882 -1.0441,0 -0.3071,0.307 -0.2386,0.2409 -7.3554,7.3506l0 -0.0001zm32.429 22.5647c0,0.144 -0.1159,0.2599 -0.2599,0.2599l-29.6442 -0.0001c-0.144,0 -0.2598,-0.1157 -0.2598,-0.2598l0 -2.1092c0,-0.1442 0.1158,-0.2598 0.2598,-0.2598l29.6442 -0.0001c0.1441,0 0.2598,0.1158 0.2598,0.2599l0.0001 2.1092z"/>
  <path class="fil0" d="M22.9315 21.0898l0.0163 -0.0072 0.0023 0 0.019 -0.007 0.0189 -0.0071c0.2031,-0.0733 0.411,-0.1346 0.6188,-0.1866 0.5741,-0.137 0.978,-0.6496 0.978,-1.2425l0.0071 -2.5887 1.533 0 0 0.0046 -0.0046 2.4353 -0.0025 0.333c0,0.4819 0.2646,0.9166 0.6756,1.1363l0.0001 0 0.0212 0.0118c0.052,0.0284 0.1063,0.0496 0.163,0.0685 0.4084,0.1416 0.8029,0.326 1.169,0.5504 0.5056,0.307 1.1504,0.2315 1.5709,-0.1866l1.8331 -1.826 1.0816 1.0889 -1.9626 1.9535 -0.0118 0.0118 -0.0072 0.0072c-0.3732,0.3873 -0.4677,0.9659 -0.2315,1.4478l0.0023 0.007c0.189,0.3851 0.3355,0.7914 0.4347,1.2095 0.1395,0.574 0.6496,0.9756 1.2423,0.9756l2.5866 0.0071 -0.0023 1.5352c-2.1236,-0.0072 -2.6502,-0.0071 -2.7521,-0.0071 0.0214,-0.0001 0.0452,0 -0.0212,0 -0.5478,-0.0001 -1.0344,0.3449 -1.2116,0.8598 -0.1393,0.4063 -0.326,0.7985 -0.5504,1.1669 -0.3094,0.5031 -0.2315,1.1502 0.1866,1.5707l1.826 1.833 -1.0865 1.0842 -1.9559 -1.9653c-0.3875,-0.3897 -0.9757,-0.4889 -1.467,-0.2504 -0.3871,0.189 -0.7958,0.3378 -1.2139,0.4371 -0.5741,0.1392 -0.9756,0.6519 -0.978,1.2448l-0.0071 2.5864 -1.533 -0.0048 0.0071 -2.7682c0,-0.5505 -0.3449,-1.0394 -0.8599,-1.2165 -0.4063,-0.1394 -0.7982,-0.326 -1.1667,-0.5504 -0.5055,-0.3072 -1.1527,-0.2315 -1.5708,0.1866l-1.8355 1.826 -1.0816 -1.0867 1.9627 -1.9557c0.3898,-0.3873 0.4914,-0.9755 0.2528,-1.4644 -0.1914,-0.3899 -0.3378,-0.7985 -0.4394,-1.2166 -0.1394,-0.574 -0.6496,-0.9756 -1.2423,-0.9779l-2.5866 -0.0047 0.0024 -1.5352c2.126,0.0046 2.6501,0.0071 2.752,0.0071l0.0212 0c0.5478,0 1.0344,-0.3449 1.2116,-0.8599 0.0425,-0.1205 0.0874,-0.2409 0.137,-0.3567l0 -0.0023 0.0071 -0.0167c0.1157,-0.2739 0.2527,-0.5408 0.4063,-0.7936 0.1795,-0.2905 0.2267,-0.6304 0.1559,-0.9446 0,-0.0095 -0.0024,-0.0166 -0.0047,-0.0236l0 -0.0025c-0.0024,-0.007 -0.0048,-0.0164 -0.0071,-0.0235 -0.0567,-0.2126 -0.1677,-0.411 -0.3307,-0.574l0 -0.0001 0 -0.0024 -1.826 -1.8353 1.0842 -1.0841 1.9559 1.9652c0.3874,0.3921 0.978,0.4937 1.4693,0.2551 0.1746,-0.0875 0.3543,-0.163 0.5386,-0.2315zm-4.3748 1.8683c-0.222,0.3779 -0.4084,0.7748 -0.5598,1.1858 -2.551,0.0897 -3.1155,-0.2504 -3.7344,0.3661 -0.2433,0.2409 -0.3756,0.5622 -0.378,0.9047l-0.0047 1.9226c-0.0023,0.7087 0.5717,1.2851 1.2803,1.2874l2.6291 0.0048c0.1134,0.4228 0.2622,0.8362 0.4463,1.233l-2.0053 1.9958c-0.5008,0.4985 -0.5031,1.311 -0.0047,1.8142l1.3582 1.3628c0.4982,0.5006 1.3108,0.5031 1.814,0.0047l1.8637 -1.8566c0.378,0.2197 0.7772,0.4064 1.1858,0.5576l-0.007 2.8273c-0.0024,0.7085 0.5714,1.2827 1.28,1.285 0.8457,0.0024 1.8378,0.0047 1.9252,0.0047 0.7064,-0.0001 1.2827,-0.574 1.2827,-1.2779l0.0072 -2.6313c0.4225,-0.111 0.8359,-0.2621 1.2327,-0.4464l1.9938 2.0052c0.5125,0.515 1.3251,0.4914 1.8141,0.0048l1.3627 -1.3557c0.5033,-0.5009 0.5055,-1.311 0.0047,-1.8141l-1.8564 -1.8659c0.2221,-0.3781 0.4084,-0.7748 0.5598,-1.1858 2.551,-0.0923 3.1132,0.2527 3.7344,-0.3662 0.2434,-0.2409 0.378,-0.5645 0.378,-0.9071l0.0047 -1.9226c0,-0.7087 -0.5717,-1.2826 -1.2803,-1.285l-2.629 -0.0072c-0.1134,-0.4227 -0.2623,-0.8361 -0.4464,-1.2329l2.0053 -1.9936c0.5009,-0.5007 0.5031,-1.3109 0.0047,-1.814l-1.3581 -1.3628c-0.4982,-0.5008 -1.3109,-0.5031 -1.8141,-0.0047l-1.8637 1.8564c-0.3779,-0.2197 -0.7772,-0.4086 -1.1858,-0.5575l0.007 -2.8343c0,-0.7087 -0.5737,-1.2851 -1.2824,-1.2851l-1.9228 -0.0001c-0.7063,0 -1.2827,0.5741 -1.2827,1.2781l-0.0071 2.6335c-0.4226,0.111 -0.836,0.2599 -1.2328,0.4442l-1.9937 -2.0029c-0.5008,-0.5033 -1.311,-0.5055 -1.8142,-0.0048l-1.3627 1.3556c-0.5032,0.4984 -0.5055,1.3111 -0.0047,1.8143l1.8564 1.8659z"/>
  <path class="fil0" d="M18.1129 25.6203c0.0092,0 0.0163,0 0.0212,0 -0.0026,0 -0.0097,0 -0.0212,0z"/>
  <path class="fil0" d="M27.1808 31.6954c2.5439,-1.1056 3.8242,-3.9281 3.0399,-6.5381 -0.118,-0.3899 -0.5314,-0.6118 -0.9212,-0.4937 -0.3898,0.118 -0.6118,0.5291 -0.4937,0.9212 0.5694,1.8943 -0.3614,3.9517 -2.2108,4.7549 -2.0101,0.8714 -4.3296,-0.0567 -5.1966,-2.0504 -1.6086,-3.7108 2.7825,-7.1664 6.0139,-4.7171 0.3235,0.2457 0.7864,0.1819 1.0344,-0.1417 0.2457,-0.3258 0.1819,-0.7887 -0.144,-1.0368 -3.543,-2.6858 -8.709,-0.1771 -8.709,4.325 0,3.8878 4.0013,6.5333 7.5871,4.9767l0 0z"/>
  <path class="fil0" d="M22.8486 28.5208c0.5386,0.6495 1.3323,1.0205 2.1732,1.0205 2.4021,-0.0001 3.6872,-2.8061 2.1709,-4.6297 -1.0016,-1.2047 -2.7827,-1.3583 -3.9756,-0.3661 -1.2069,1.0015 -1.358,2.7847 -0.3685,3.9753l0 0zm1.3134 -2.8392c0.8834,-0.7346 2.2062,-0.0921 2.2062,1.0347 0,0.7438 -0.6023,1.3462 -1.3464,1.3462 -1.2567,0.0024 -1.8283,-1.5777 -0.8598,-2.3809z"/>
  <rect class="fil1" y="0.0106" width="50" height="50"/>
 </g>
</svg>
