<?xml version="1.0" encoding="UTF-8"?>
<!DOCTYPE svg PUBLIC "-//W3C//DTD SVG 1.1//EN" "http://www.w3.org/Graphics/SVG/1.1/DTD/svg11.dtd">
<!-- Creator: CorelDRAW -->
<svg xmlns="http://www.w3.org/2000/svg" xml:space="preserve" width="50mm" height="50mm" style="shape-rendering:geometricPrecision; text-rendering:geometricPrecision; image-rendering:optimizeQuality; fill-rule:evenodd; clip-rule:evenodd"
viewBox="0 0 50 50"
 xmlns:xlink="http://www.w3.org/1999/xlink">
 <defs>
  <style type="text/css">
   <![CDATA[
    .fil1 {fill:none}
    .fil0 {fill:black}
   ]]>
  </style>
 </defs>
 <g id="Layer_x0020_1">
  <metadata id="CorelCorpID_0Corel-Layer"/>
  <g id="_119950048">
   <path id="_119955928" class="fil0" d="M44.8164 19.8164c0,-10.9268 -8.8896,-19.8164 -19.8164,-19.8164 -10.9269,0 -19.8164,8.8896 -19.8164,19.8165 0,9.4627 6.6674,17.3961 15.5507,19.3528l0 5.7551 -3.5097 0c-0.923,0 -1.6739,0.7509 -1.6739,1.6739l0 1.7279c0,0.9229 0.7509,1.6738 1.6739,1.6738l15.5508 0c0.9229,0 1.6738,-0.7509 1.6738,-1.6738l0 -1.7279c0,-0.923 -0.7509,-1.6739 -1.6739,-1.6739l-3.5097 0 0 -5.7551c8.8834,-1.9568 15.5508,-9.8901 15.5508,-19.3529zm-38.013 0c0,-10.0336 8.1629,-18.1965 18.1966,-18.1965 10.0337,0 18.1965,8.1629 18.1965,18.1966 0,10.0336 -8.1628,18.1965 -18.1965,18.1965 -10.0337,0 -18.1966,-8.1629 -18.1966,-18.1966zm26.026 26.7819l0 1.7279c0,0.0298 -0.0242,0.054 -0.0541,0.054l-15.5507 0c-0.0298,0 -0.054,-0.0242 -0.054,-0.054l0 -1.7279c0,-0.0298 0.0242,-0.054 0.054,-0.054l15.5508 0c0.0298,0 0.0539,0.0242 0.054,0.054zm-5.1836 -1.6739l-5.2916 0 0 -5.4686c0.8656,0.1157 1.7487,0.1771 2.6458,0.1771 0.897,0 1.7801,-0.0608 2.6457,-0.1771l0.0001 5.4686z"/>
   <path id="_119954296" class="fil0" d="M41.3606 19.8164c0,-9.0211 -7.3395,-16.3606 -16.3606,-16.3606 -9.0212,-0.0001 -16.3607,7.3395 -16.3607,16.3607 0,9.0211 7.3395,16.3606 16.3607,16.3606 9.0211,0 16.3606,-7.3395 16.3606,-16.3607zm-31.1014 0c0,-8.128 6.6128,-14.7408 14.7408,-14.7408 8.128,0 14.7408,6.6128 14.7408,14.7409 0,8.1279 -6.6128,14.7408 -14.7408,14.7408 -8.128,0 -14.7408,-6.6129 -14.7408,-14.7409z"/>
   <path id="_119951272" class="fil0" d="M25 23.2182c1.8757,0 3.4017,-1.526 3.4017,-3.4017 0,-1.1384 -0.5624,-2.1469 -1.4236,-2.7651l1.9315 -4.8287c0.1666,-0.415 -0.036,-0.8869 -0.451,-1.0529 -0.4151,-0.1659 -0.8871,0.036 -1.053,0.4511l-1.9309 4.8275c-0.1552,-0.0219 -0.3139,-0.0337 -0.4747,-0.0337 -1.8758,0 -3.4017,1.526 -3.4017,3.4018 0,1.8757 1.5259,3.4017 3.4017,3.4017zm0 -5.1836c0.9826,0 1.7818,0.7993 1.7818,1.7819 0,0.9825 -0.7992,1.7818 -1.7818,1.7818 -0.9826,0 -1.7819,-0.7993 -1.7819,-1.7818 0,-0.9826 0.7993,-1.7819 1.7819,-1.7819z"/>
   <path id="_119959240" class="fil0" d="M17.7663 13.7284c0.1585,0.158 0.3656,0.2373 0.573,0.2373 0.2071,0 0.4146,-0.0793 0.5727,-0.2372 0.3166,-0.3163 0.3166,-0.8291 0,-1.1452l-1.2982 -1.2988c1.8961,-1.644 4.2145,-2.5507 6.5763,-2.7189l0 1.7476c0,0.4471 0.3628,0.8099 0.8099,0.8099 0.4477,0 0.8099,-0.3628 0.8099,-0.8099l0 -1.7476c2.3617,0.1682 4.6802,1.0749 6.5763,2.719l-1.2982 1.2981c-0.3161,0.3167 -0.3161,0.8296 -0.0001,1.1458 0.1582,0.1579 0.3656,0.2372 0.5732,0.2372 0.207,0 0.4146,-0.0793 0.5726,-0.2372l1.2982 -1.2982c1.644,1.896 2.5507,4.2145 2.7189,6.5762l-1.7476 0c-0.4471,0 -0.8099,0.3629 -0.8099,0.81 0,0.447 0.3628,0.8099 0.8099,0.8099l1.7476 0c-0.1682,2.3617 -1.0749,4.6802 -2.719,6.5762l-1.2981 -1.2982c-0.3166,-0.316 -0.8291,-0.316 -1.1458,0 -0.316,0.3166 -0.316,0.8291 0,1.1457 0.0001,0 1.8792,1.8786 1.8922,1.8916 0.1581,0.1581 0.365,0.2373 0.5725,0.2373 0.2071,0 0.4145,-0.0792 0.5726,-0.2373 5.0317,-5.0317 5.0317,-13.2188 0,-18.2505 -5.0316,-5.0317 -13.2188,-5.0317 -18.2505,0 -5.0311,5.0317 -5.0311,13.2188 0,18.2505 0.3166,0.3161 0.8291,0.3161 1.1457,0 0.0124,-0.013 1.8916,-1.8916 1.8916,-1.8916 0.3166,-0.3166 0.3166,-0.8295 0,-1.1457 -0.3162,-0.316 -0.8291,-0.316 -1.1451,0l-1.2982 1.2982c-1.6441,-1.896 -2.5508,-4.2145 -2.7196,-6.5762l1.7476 0c0.4471,0 0.81,-0.3629 0.81,-0.8099 0,-0.4471 -0.3629,-0.81 -0.81,-0.81l-1.7475 0c0.1681,-2.3617 1.0748,-4.6802 2.7189,-6.5762l1.2982 1.2981z"/>
   <path id="_119948920" class="fil0" d="M27.5378 29.3197c0,-0.4471 -0.3629,-0.81 -0.81,-0.81l-3.4557 0c-0.447,0 -0.8099,0.3629 -0.8099,0.81 0,0.4471 0.3628,0.8099 0.8099,0.8099l3.4557 0c0.4471,0 0.81,-0.3628 0.81,-0.8099z"/>
  </g>
  <rect class="fil1" width="50" height="50"/>
 </g>
</svg>
