<?xml version="1.0" encoding="UTF-8"?>
<!DOCTYPE svg PUBLIC "-//W3C//DTD SVG 1.1//EN" "http://www.w3.org/Graphics/SVG/1.1/DTD/svg11.dtd">
<!-- Creator: CorelDRAW -->
<svg xmlns="http://www.w3.org/2000/svg" xml:space="preserve" width="50mm" height="50mm" style="shape-rendering:geometricPrecision; text-rendering:geometricPrecision; image-rendering:optimizeQuality; fill-rule:evenodd; clip-rule:evenodd"
viewBox="0 0 50 50"
 xmlns:xlink="http://www.w3.org/1999/xlink">
 <defs>
  <style type="text/css">
   <![CDATA[
    .fil1 {fill:none}
    .fil0 {fill:black}
   ]]>
  </style>
 </defs>
 <g id="Layer_x0020_1">
  <metadata id="CorelCorpID_0Corel-Layer"/>
  <g id="_119577504">
   <path id="_122076536" class="fil0" d="M47.5806 11.2903l-4.0322 0 0 -10.4839c0,-0.4449 -0.3603,-0.8064 -0.8065,-0.8064l-35.4838 0c-0.4462,0 -0.8065,0.3615 -0.8065,0.8064l0 10.4839 -4.0322 0c-1.3337,0 -2.4194,1.0857 -2.4194,2.4194l0 24.1935c0,1.3337 1.0857,2.4194 2.4194,2.4194l16.129 0 0 3.2258 -0.8065 0c-3.112,0 -5.6451,2.5331 -5.6451,5.6452 0,0.4461 0.3603,0.8064 0.8064,0.8064l24.1936 0c0.4461,0 0.8064,-0.3603 0.8064,-0.8064 0,-3.112 -2.5331,-5.6452 -5.6452,-5.6452l-0.8064 0 0 -3.2258 16.129 0c1.3337,0 2.4194,-1.0857 2.4194,-2.4194l0 -24.1935c0,-1.3338 -1.0857,-2.4194 -2.4194,-2.4194l0 0zm-39.5161 -3.2258l33.871 0 0 27.4194 -33.871 0 0 -27.4194zm33.871 -6.4516l0 4.8387 -33.871 0 0 -4.8387 33.871 0zm-5.7267 46.7742l-22.4176 0c0.3749,-1.8377 2.0031,-3.2258 3.9507,-3.2258l14.5162 0c1.9476,0 3.5766,1.3881 3.9507,3.2258zm-6.3701 -4.8387l-9.6774 0 0 -3.2258 9.6774 0 0 3.2258zm18.5484 -5.6452c0,0.445 -0.3615,0.8065 -0.8064,0.8065l-45.1613 0c-0.445,0 -0.8065,-0.3615 -0.8065,-0.8065l0 -24.1935c0,-0.4442 0.3615,-0.8065 0.8065,-0.8065l4.0322 0 0 23.3871c0,0.4462 0.3603,0.8065 0.8065,0.8065l35.4838 0c0.4462,0 0.8065,-0.3603 0.8065,-0.8065l0 -23.3871 4.0322 0c0.445,0 0.8065,0.3623 0.8065,0.8065l0 24.1935zm0 0z"/>
   <path id="_122076632" class="fil0" d="M9.6774 3.2258l1.6129 0 0 1.6129 -1.6129 0 0 -1.6129zm0 0z"/>
   <path id="_122076728" class="fil0" d="M12.9032 3.2258l1.6129 0 0 1.6129 -1.6129 0 0 -1.6129zm0 0z"/>
   <path id="_122076824" class="fil0" d="M16.129 3.2258l1.6129 0 0 1.6129 -1.6129 0 0 -1.6129zm0 0z"/>
   <path id="_122076920" class="fil0" d="M19.3548 3.2258l20.9678 0 0 1.6129 -20.9678 0 0 -1.6129zm0 0z"/>
   <path id="_122077064" class="fil0" d="M37.9032 12.0968c-1.0498,0 -1.937,0.6765 -2.2709,1.6129l-3.6357 0 -1.4093 -3.5259c-0.1284,-0.3209 -0.4509,-0.5273 -0.7947,-0.5056 -0.3465,0.0201 -0.641,0.2587 -0.732,0.5926l-1.7188 6.3008 -0.7706 -2.3118c-0.1099,-0.3285 -0.417,-0.5501 -0.7648,-0.5501l-1.9208 0 -1.3904 -2.7797c-0.1402,-0.2807 -0.4209,-0.4576 -0.745,-0.4454 -0.3147,0.0091 -0.5938,0.2001 -0.7179,0.4879l-1.5267 3.5605 -0.9895 -3.4644c-0.091,-0.3194 -0.3702,-0.5509 -0.7009,-0.5816 -0.3387,-0.0339 -0.6474,0.1453 -0.7958,0.4418l-1.3889 2.7809 -1.2628 0c-0.3339,-0.9364 -1.2211,-1.6129 -2.2709,-1.6129 -1.3337,0 -2.4194,1.0856 -2.4194,2.4194 0,1.3337 1.0857,2.4193 2.4194,2.4193 1.0498,0 1.937,-0.6765 2.2709,-1.6129l1.7613 0c0.3056,0 0.5848,-0.1725 0.7218,-0.4462l0.6864 -1.3715 1.0427 3.6515c0.0933,0.3284 0.3847,0.5615 0.7241,0.5832 0.3517,0.0193 0.6572,-0.1745 0.7919,-0.4871l1.7338 -4.0477 0.8356 1.6708c0.137,0.2745 0.4162,0.447 0.7218,0.447l1.8378 0 1.429 4.287c0.1106,0.3308 0.4186,0.5517 0.7655,0.5517l0.0216 0c0.3548,-0.0099 0.6624,-0.2508 0.7565,-0.5934l1.7865 -6.5501 0.7191 1.7984c0.1228,0.3056 0.4186,0.5064 0.7485,0.5064l4.1807 0c0.3339,0.9364 1.2211,1.6129 2.2709,1.6129 1.3337,0 2.4194,-1.0857 2.4194,-2.4194 0,-1.3337 -1.0857,-2.4194 -2.4194,-2.4194l0 0.0001zm-25.8064 3.2258c-0.445,0 -0.8065,-0.3623 -0.8065,-0.8065 0,-0.4441 0.3615,-0.8064 0.8065,-0.8064 0.4449,0 0.8064,0.3623 0.8064,0.8064 0,0.4442 -0.3615,0.8065 -0.8064,0.8065zm25.8064 0c-0.4449,0 -0.8064,-0.3623 -0.8064,-0.8065 0,-0.4441 0.3615,-0.8064 0.8064,-0.8064 0.445,0 0.8065,0.3623 0.8065,0.8064 0,0.4442 -0.3615,0.8065 -0.8065,0.8065zm0 0z"/>
   <path id="_122077160" class="fil0" d="M16.129 20.9677c-3.5573,0 -6.4516,2.8943 -6.4516,6.4517 0,3.5573 2.8943,6.4516 6.4516,6.4516 3.5574,0 6.4517,-2.8943 6.4517,-6.4516 0,-3.5574 -2.8943,-6.4517 -6.4517,-6.4517zm4.7663 5.6452l-3.9598 0 0 -3.9598c2.0216,0.3422 3.6176,1.9381 3.9598,3.9598l0 0zm-5.5727 -3.9598l0 3.2589 -2.7104 -1.8063c0.708,-0.7501 1.65,-1.2735 2.7104,-1.4526l0 0zm0.8064 9.605c-2.6686,0 -4.8387,-2.1701 -4.8387,-4.8387 0,-0.7033 0.154,-1.3704 0.4249,-1.9733l3.9661 2.6442 0.0083 -0.0122c0.128,0.0855 0.2733,0.1477 0.4394,0.1477l4.7663 0c-0.3863,2.2847 -2.3737,4.0323 -4.7663,4.0323l0 0zm0 0z"/>
   <path id="_122077208" class="fil0" d="M24.1936 29.8387l1.6128 0 0 4.0323 -1.6128 0 0 -4.0323zm0 0z"/>
   <path id="_122077304" class="fil0" d="M27.4194 26.6129l1.6129 0 0 7.2581 -1.6129 0 0 -7.2581zm0 0z"/>
   <path id="_122077400" class="fil0" d="M30.6452 23.3871l1.6129 0 0 10.4839 -1.6129 0 0 -10.4839zm0 0z"/>
   <path id="_122077496" class="fil0" d="M33.871 28.2258l1.6129 0 0 5.6452 -1.6129 0 0 -5.6452zm0 0z"/>
   <path id="_122077592" class="fil0" d="M37.0968 20.1613l1.6129 0 0 13.7097 -1.6129 0 0 -13.7097zm0 0z"/>
  </g>
  <rect class="fil1" width="50" height="50"/>
 </g>
</svg>
