<?xml version="1.0" encoding="UTF-8"?>
<!DOCTYPE svg PUBLIC "-//W3C//DTD SVG 1.1//EN" "http://www.w3.org/Graphics/SVG/1.1/DTD/svg11.dtd">
<!-- Creator: CorelDRAW -->
<svg xmlns="http://www.w3.org/2000/svg" xml:space="preserve" width="50mm" height="50mm" style="shape-rendering:geometricPrecision; text-rendering:geometricPrecision; image-rendering:optimizeQuality; fill-rule:evenodd; clip-rule:evenodd"
viewBox="0 0 50 50"
 xmlns:xlink="http://www.w3.org/1999/xlink">
 <defs>
  <style type="text/css">
   <![CDATA[
    .fil1 {fill:none}
    .fil0 {fill:black}
   ]]>
  </style>
 </defs>
 <g id="Layer_x0020_1">
  <metadata id="CorelCorpID_0Corel-Layer"/>
  <path class="fil0" d="M47.7447 8.2031l-10.2447 0c-0.4048,0 -0.7325,0.3277 -0.7325,0.7324 0.0001,0.4048 0.3277,0.7325 0.7325,0.7325l10.2447 -0.0001c0.436,0 0.7904,0.3545 0.7904,0.7905l0 28.2043c0,0.436 -0.3544,0.7904 -0.7904,0.7904l-45.4895 0c-0.436,0 -0.7904,-0.3544 -0.7904,-0.7904l0 -28.2043c0,-0.4361 0.3544,-0.7904 0.7904,-0.7904l16.0919 -0.0001 0 1.4649 -14.685 0c-0.4048,0 -0.7324,0.3276 -0.7324,0.7324l0 19.3524c0,0.4044 0.3276,0.7324 0.7324,0.7324 0.4048,0 0.7324,-0.328 0.7324,-0.7324l0 -18.62 13.9526 0 0 3.9291 -3.1356 1.4981c-0.2503,0.1198 -0.4166,0.3784 -0.4166,0.6611l0 11.9446c0,0.2823 0.1621,0.5394 0.4166,0.6611l9.4727 4.5258c0.2051,0.0965 0.4367,0.0915 0.6316,0l5.3254 -2.5445c0.365,-0.1743 0.5195,-0.6119 0.3452,-0.9765 -0.1743,-0.3651 -0.6123,-0.5195 -0.9769,-0.3452l-4.2771 2.0434 0 -10.3213 8.0078 -3.8259 0 10.3215 -1.088 0.5196c-0.365,0.1743 -0.5195,0.6119 -0.3452,0.9765 0.1743,0.3651 0.6119,0.5196 0.9766,0.3452l1.5049 -0.7186c0.2544,-0.1217 0.4166,-0.3788 0.4166,-0.6611l0 -11.9446c0,-0.2793 -0.1625,-0.5394 -0.4167,-0.6611l-3.1356 -1.4981 0 -3.9291 13.9527 0 0 23.9258 -41.211 0 0 -2.1808c0,-0.4048 -0.3276,-0.7324 -0.7324,-0.7324 -0.4048,0 -0.7324,0.3276 -0.7324,0.7324l0 2.9133c0,0.4048 0.3276,0.7324 0.7324,0.7324l42.6758 0c0.4047,0 0.7324,-0.3276 0.7324,-0.7324l0 -25.3907c0,-0.4048 -0.3277,-0.7324 -0.7324,-0.7324l-14.6851 0 0 -1.4649 2.7222 0c0.4048,0 0.7324,-0.3276 0.7324,-0.7324 0,-0.4047 -0.3277,-0.7324 -0.7324,-0.7324l-2.7222 0 0 -1.4648 6.5674 0c0.4048,0 0.7324,-0.3277 0.7324,-0.7324l0 -1.7373c0.8526,-0.3025 1.4648,-1.1166 1.4648,-2.0713 0,-1.2116 -0.9857,-2.1973 -2.1972,-2.1973 -1.2115,0 -2.1973,0.9857 -2.1973,2.1973 0,0.9547 0.6123,1.7688 1.4649,2.0713l0 1.0048 -6.5674 0c-0.4048,0 -0.7324,0.3277 -0.7324,0.7325l0 2.1972 -4.4556 0 0 -3.9345c0.8525,-0.3025 1.4648,-1.1166 1.4648,-2.0713 0,-1.2116 -0.9857,-2.1973 -2.1972,-2.1973 -1.2116,0 -2.1973,0.9857 -2.1973,2.1973 0,0.9547 0.6123,1.7688 1.4649,2.0713l0 3.9345 -4.4556 0 0 -2.1972c0,-0.4048 -0.3277,-0.7325 -0.7324,-0.7325l-6.5674 0 0 -1.0048c0.8525,-0.3025 1.4648,-1.1166 1.4648,-2.0713 0,-1.2116 -0.9857,-2.1973 -2.1972,-2.1973 -1.2115,0 -2.1973,0.9857 -2.1973,2.1973 0,0.9547 0.6123,1.7688 1.4648,2.0713l0 1.7373c0,0.4047 0.3277,0.7324 0.7325,0.7324l6.5673 0 0 1.4648 -16.0919 0c-1.2436,0 -2.2552,1.0116 -2.2552,2.2553l0 28.2043c0,1.2436 1.0116,2.2553 2.2552,2.2553l15.8791 0c-0.2834,2.6867 -2.0599,4.2556 -2.62,4.6875l-3.112 0c-1.2115,0 -2.1972,0.9857 -2.1972,2.1972 0,1.2116 0.9857,2.1973 2.1972,2.1973l25.1953 0c1.2116,0 2.1973,-0.9857 2.1973,-2.1973 0,-1.2115 -0.9858,-2.1972 -2.1973,-2.1972l-3.1101 0c-0.5528,-0.4303 -2.3354,-2.0134 -2.6211,-4.6875l15.8783 0c1.2437,0 2.2553,-1.0117 2.2553,-2.2553l0 -28.2043c0,-1.2437 -1.0117,-2.2553 -2.2553,-2.2553zm-9.5245 -6.7383c0.404,0 0.7324,0.3284 0.7324,0.7325 0,0.4039 -0.3284,0.7324 -0.7324,0.7324 -0.404,0 -0.7324,-0.3284 -0.7324,-0.7324 0,-0.4041 0.3284,-0.7325 0.7324,-0.7325zm-13.2202 0c0.404,0 0.7324,0.3284 0.7324,0.7325 0,0.4039 -0.3284,0.7324 -0.7324,0.7324 -0.404,0 -0.7324,-0.3284 -0.7324,-0.7324 0,-0.4041 0.3284,-0.7325 0.7324,-0.7325zm-13.2202 0c0.404,0 0.7324,0.3284 0.7324,0.7325 0,0.4039 -0.3284,0.7324 -0.7324,0.7324 -0.404,0 -0.7325,-0.3284 -0.7325,-0.7324 0,-0.4041 0.3285,-0.7325 0.7325,-0.7325zm8.0322 11.1328l4.4556 0 0 1.1006 -4.4556 2.1289 0 -3.2295zm12.9616 6.0883l-7.7736 3.7136 -7.7737 -3.7136 7.7737 -3.714 7.7736 3.714zm-16.5139 1.1615l8.0079 3.8259 0 10.3213 -8.0079 -3.8257 0 -10.3215zm13.9283 -4.0203l-4.4556 -2.1289 0 -1.1006 4.4556 0 0 3.2295zm0 -6.1592l0 1.4649 -4.4556 0 0 -1.4649 4.4556 0zm-5.9204 0l0 1.4649 -4.4556 0 0 -1.4649 4.4556 0zm14.0625 38.1348c0,0.404 -0.3285,0.7324 -0.7325,0.7324l-25.1953 0c-0.404,0 -0.7324,-0.3284 -0.7324,-0.7324 0,-0.404 0.3284,-0.7324 0.7324,-0.7324l25.1953 0c0.4041,0 0.7325,0.3284 0.7325,0.7324zm-5.9433 -2.1972l-14.7736 0c0.8586,-1.003 1.8112,-2.5657 1.9939,-4.6875l10.7858 0c0.1827,2.1218 1.1352,3.6845 1.9939,4.6875z"/>
  <rect class="fil1" width="50" height="50"/>
 </g>
</svg>
