<?xml version="1.0" encoding="UTF-8"?>
<!DOCTYPE svg PUBLIC "-//W3C//DTD SVG 1.1//EN" "http://www.w3.org/Graphics/SVG/1.1/DTD/svg11.dtd">
<!-- Creator: CorelDRAW -->
<svg xmlns="http://www.w3.org/2000/svg" xml:space="preserve" width="50mm" height="50mm" style="shape-rendering:geometricPrecision; text-rendering:geometricPrecision; image-rendering:optimizeQuality; fill-rule:evenodd; clip-rule:evenodd"
viewBox="0 0 50 50"
 xmlns:xlink="http://www.w3.org/1999/xlink">
 <defs>
  <style type="text/css">
   <![CDATA[
    .fil1 {fill:none}
    .fil0 {fill:black}
   ]]>
  </style>
 </defs>
 <g id="Layer_x0020_1">
  <metadata id="CorelCorpID_0Corel-Layer"/>
  <g id="_120196320">
   <g>
    <path id="_118757624" class="fil0" d="M21.616 30.8196c-3.6019,0 -6.5323,2.9304 -6.5323,6.5324 0,3.6019 2.9304,6.5323 6.5323,6.5323 3.602,0 6.5323,-2.9304 6.5323,-6.5323 -0.0001,-3.602 -2.9303,-6.5324 -6.5323,-6.5324zm0 11.7259c-2.8637,0 -5.1936,-2.3298 -5.1936,-5.1936 0,-2.8639 2.3298,-5.1936 5.1936,-5.1936 2.8639,0 5.1936,2.3298 5.1936,5.1936 0,2.8636 -2.3298,5.1936 -5.1936,5.1936z"/>
   </g>
   <g>
    <path id="_118757864" class="fil0" d="M38.2233 15.7614c-2.4208,0 -4.3901,1.9695 -4.3901,4.3902 0,2.4207 1.9694,4.3901 4.3901,4.3901 2.4208,0 4.3902,-1.9694 4.3902,-4.3901 0,-2.4207 -1.9694,-4.3902 -4.3902,-4.3902zm0 7.3379c-1.6253,0 -2.9477,-1.3223 -2.9477,-2.9478 0,-1.6254 1.3223,-2.9477 2.9477,-2.9477 1.6254,0 2.9478,1.3223 2.9478,2.9477 0,1.6255 -1.3223,2.9478 -2.9478,2.9478z"/>
   </g>
   <g>
    <path id="_118758056" class="fil0" d="M43.5972 31.1963c-0.7061,2.7244 -2.0946,5.2635 -4.0155,7.3426l1.0595 0.9787c2.0817,-2.2532 3.5866,-5.0056 4.3522,-7.9595l-1.3962 -0.3618z"/>
   </g>
   <g>
    <path id="_118758248" class="fil0" d="M37.6453 40.3377c-0.4419,0.3516 -0.9061,0.685 -1.3801,0.9912l0.7827 1.2115c0.5136,-0.3318 1.0166,-0.6932 1.4956,-1.0742l-0.8982 -1.1285z"/>
   </g>
   <g>
    <rect id="_118758320" class="fil0" x="45.1491" y="46.9155" width="1.44229" height="1.58564"/>
   </g>
   <g>
    <rect id="_103410840" class="fil0" x="35.9356" y="46.1221" width="1.44229" height="1.58564"/>
   </g>
   <g>
    <rect id="_103411704" class="fil0" x="46.5924" y="39.3163" width="1.44229" height="1.58564"/>
   </g>
   <g>
    <rect id="_103412520" class="fil0" x="33.8338" y="5.13655" width="1.44229" height="1.58564"/>
   </g>
   <g>
    <rect id="_103413384" class="fil0" x="1.96505" y="19.9375" width="1.44229" height="1.58564"/>
   </g>
   <g>
    <rect id="_103414248" class="fil0" x="4.99903" y="39.5962" width="1.44229" height="1.58564"/>
   </g>
   <g>
    <rect id="_103415112" class="fil0" x="1.96505" y="46.9155" width="1.44229" height="1.58564"/>
   </g>
   <g>
    <rect id="_103415976" class="fil0" x="10.8838" y="14.099" width="1.44229" height="1.58564"/>
   </g>
   <g>
    <rect id="_103416840" class="fil0" x="3.56543" y="8.37502" width="1.44229" height="1.58564"/>
   </g>
   <g>
    <rect id="_103417704" class="fil0" x="8.99434" y="2.63936" width="1.44229" height="1.58564"/>
   </g>
   <g>
    <rect id="_119103656" class="fil0" x="41.1713" y="1.41486" width="1.44229" height="1.58564"/>
   </g>
   <g>
    <rect id="_119104424" class="fil0" x="45.1491" y="6.16155" width="1.44229" height="1.58564"/>
   </g>
   <g>
    <path id="_119104664" class="fil0" d="M48.0349 22.1536l0 -4.0041 -2.0867 0c-0.1851,-0.719 -0.4688,-1.4029 -0.8475,-2.0439l1.4763 -1.4763 -2.8313 -2.8314 -1.4764 1.4764c-0.6408,-0.3787 -1.3247,-0.6624 -2.0437,-0.8476l0 -2.0868 -4.0041 0.0001 0 2.0868c-0.7192,0.1851 -1.403,0.4688 -2.0439,0.8475l-1.4763 -1.4765 -2.8314 2.8315 1.4763 1.4763c-0.3787,0.6409 -0.6624,1.3248 -0.8475,2.0439l-0.5922 0c-1.3125,-1.1454 -2.8636,-2.0237 -4.5679,-2.5495 2.6865,-1.3598 4.5337,-4.1462 4.5337,-7.3574 -0.0002,-4.5451 -3.6978,-8.2426 -8.2428,-8.2426 -4.545,0 -8.2426,3.6975 -8.2426,8.2425 0,3.2113 1.8471,5.9975 4.5337,7.3574 -5.145,1.5873 -8.8944,6.3869 -8.8944,12.0462l0 7.3184 0 4.7999 2.654 0c0.249,1.0395 0.657,2.0234 1.218,2.9372l-1.9005 1.9005 3.3941 3.394 1.9005 -1.9005c0.9137,0.5609 1.8975,0.969 2.9372,1.218l0 2.6864 4.8 0 0 -2.6862c1.0396,-0.2491 2.0234,-0.6571 2.9372,-1.218l1.9005 1.9005 3.3942 -3.3941 -1.9006 -1.9005c0.561,-0.9137 0.969,-1.8976 1.218,-2.9372l2.654 0 0 -4.8 0 -7.3183c0,-0.1991 -0.0052,-0.3971 -0.0144,-0.5941 0.6291,0.3668 1.2991,0.6431 2.0029,0.8244l0 2.0869 4.0041 0 0 -2.0869c0.7189,-0.1852 1.403,-0.4689 2.0437,-0.8476l1.4764 1.4764 2.8314 -2.8314 -1.4764 -1.4764c0.3788,-0.641 0.6625,-1.325 0.8475,-2.0438l2.0869 0 0 -0.0001zm-21.8421 -4.6924c0.7929,0.3568 1.5367,0.8038 2.2188,1.3273l0 3.3651 2.0869 0c0.1852,0.7191 0.4689,1.403 0.8475,2.0438l-1.4763 1.4765 2.8314 2.8313 0.0893 -0.0893 0 6.5385 -1.2142 0c-0.2492,-1.0357 -0.6563,-2.0164 -1.2155,-2.9272l1.9006 -1.9005 -3.3941 -3.3941 -1.9005 1.9005c-0.9138,-0.5609 -1.8977,-0.9689 -2.9372,-1.2181l0 -2.6861 -1.6789 0 0 -2.8631 3.8422 -4.4046zm-4.5633 3.0372l-3.1146 -3.5706c0.9889,-0.2878 2.0339,-0.4427 3.1146,-0.4427 1.0806,0 2.1256,0.1549 3.1145,0.4427l-3.1145 3.5706zm0 -19.0561c3.7347,0 6.7749,3.0265 6.7991,6.7556 -4.3554,-0.1387 -7.0011,-1.5607 -8.1112,-2.3187 0.4667,-0.5776 0.6721,-0.9882 0.6947,-1.0347l-1.296 -0.6331c-0.0517,0.1035 -1.225,2.3747 -4.879,3.7207 0.163,-3.606 3.147,-6.4898 6.7924,-6.4898zm-6.695 7.984c2.0135,-0.6778 3.4243,-1.6269 4.3749,-2.4868 1.1759,0.8541 4.0796,2.5241 8.976,2.6975 -0.6452,3.083 -3.3841,5.4058 -6.6559,5.4058 -3.3457,0 -6.1328,-2.4295 -6.695,-5.6165zm2.1318 8.035l3.8421 4.4045 0 2.8631 -1.6788 0 0 2.6862c-1.0396,0.2491 -2.0234,0.6572 -2.9372,1.2181l-1.9005 -1.9005 -3.3941 3.3941 1.9005 1.9005c-0.5592,0.9107 -0.9661,1.8914 -1.2153,2.9272l-1.2144 0 0 -7.3084 -0.0001 0c0,-4.5294 2.7123,-8.437 6.5978,-10.1848zm15.7243 20.8608l-2.4017 0 -0.106 0.5947c-0.2229,1.2526 -0.7069,2.4193 -1.438,3.4679l-0.3454 0.4954 1.722 1.722 -1.3544 1.3544 -1.7219 -1.722 -0.4953 0.3454c-1.0485,0.7311 -2.2154,1.215 -3.468,1.438l-0.5947 0.106 0 2.4338 -1.9153 0 0 -2.4341 -0.5948 -0.1059c-1.2526,-0.2231 -2.4194,-0.7069 -3.4678,-1.438l-0.4954 -0.3454 -1.722 1.722 -1.3543 -1.3544 1.722 -1.722 -0.3454 -0.4954c-0.7311,-1.0485 -1.215,-2.2155 -1.438,-3.4679l-0.106 -0.5947 -2.4017 0 0 -1.9153 2.4017 0 0.106 -0.5947c0.223,-1.2526 0.7069,-2.4194 1.438,-3.468l0.3454 -0.4954 -1.722 -1.7219 1.3543 -1.3542 1.722 1.7219 0.4953 -0.3454c1.0485,-0.731 2.2153,-1.2148 3.4679,-1.4379l0.5948 -0.1059 0 -2.434 1.9154 0 0 2.4341 0.5947 0.1059c1.2527,0.2231 2.4195,0.7069 3.468,1.4379l0.4953 0.3454 1.7219 -1.7219 1.3544 1.3543 -1.722 1.7219 0.3454 0.4954c0.7312,1.0486 1.2151,2.2155 1.438,3.468l0.106 0.5947 2.4017 0 0 1.9153 -0.0001 0zm11.973 -17.6108l-0.106 0.5948c-0.1658,0.9311 -0.5255,1.7985 -1.069,2.5782l-0.3454 0.4954 1.2942 1.2942 -0.7916 0.7916 -1.2942 -1.2941 -0.4953 0.3454c-0.7796,0.5435 -1.6471,0.9033 -2.5782,1.069l-0.5948 0.106 0 1.8293 -1.1195 0 0 -1.8293 -0.5949 -0.1059c-0.9311,-0.1659 -1.7985,-0.5255 -2.5782,-1.0691l-0.4953 -0.3454 -1.2941 1.2941 -0.7916 -0.7915 1.2941 -1.2942 -0.3454 -0.4954c-0.5434,-0.7794 -0.9032,-1.647 -1.069,-2.5782l-0.106 -0.5947 -1.8294 -0.0001 0 -1.1195 1.8293 0 0.106 -0.5947c0.1659,-0.9314 0.5257,-1.7989 1.069,-2.5782l0.3454 -0.4955 -1.2941 -1.2942 0.7916 -0.7916 1.2941 1.2942 0.4953 -0.3454c0.7796,-0.5435 1.647,-0.9032 2.5783,-1.0691l0.5948 -0.1059 0 -1.8293 1.1195 -0.0001 0 1.8293 0.5948 0.106c0.9312,0.1658 1.7986,0.5256 2.5782,1.069l0.4953 0.3454 1.2942 -1.2941 0.7916 0.7916 -1.2942 1.2942 0.3454 0.4954c0.5435,0.7796 0.9033,1.647 1.069,2.5782l0.106 0.5948 1.8293 0 0 1.1195 -1.8292 0 0 -0.0001z"/>
   </g>
  </g>
  <rect class="fil1" width="50" height="50"/>
 </g>
</svg>
