<?xml version="1.0" encoding="UTF-8"?>
<!DOCTYPE svg PUBLIC "-//W3C//DTD SVG 1.1//EN" "http://www.w3.org/Graphics/SVG/1.1/DTD/svg11.dtd">
<!-- Creator: CorelDRAW -->
<svg xmlns="http://www.w3.org/2000/svg" xml:space="preserve" width="5.0799mm" height="5.08mm" style="shape-rendering:geometricPrecision; text-rendering:geometricPrecision; image-rendering:optimizeQuality; fill-rule:evenodd; clip-rule:evenodd"
viewBox="0 0 5.08 5.0801"
 xmlns:xlink="http://www.w3.org/1999/xlink">
 <defs>
  <style type="text/css">
   <![CDATA[
    .fil1 {fill:none}
    .fil0 {fill:#010002}
   ]]>
  </style>
 </defs>
 <g id="Layer_x0020_1">
  <metadata id="CorelCorpID_0Corel-Layer"/>
  <g id="_170264056">
   <g>
    <path id="_170263384" class="fil0" d="M0.689214 1.65653l-0.0130003 0c-0.166803,0 -0.302806,0.136403 -0.302806,0.302806l0 1.31853c0,0.167003 0.136003,0.303006 0.302806,0.303006l0.0132003 0c0.166803,0 0.302806,-0.136403 0.302806,-0.303006l0 -1.31853c-0.000200004,-0.166403 -0.136403,-0.302806 -0.303006,-0.302806z"/>
    <path id="_170264128" class="fil0" d="M1.13712 3.78677c0,0.153103 0.125202,0.277905 0.278405,0.277905l0.297406 0 0 0.712114c0,0.167303 0.136403,0.303306 0.302806,0.303306l0.0130003 0c0.167103,0 0.303306,-0.136203 0.303306,-0.303306l0 -0.712114 0.415608 0 0 0.712114c0,0.167303 0.136903,0.303306 0.303306,0.303306l0.0128003 0c0.167003,0 0.303006,-0.136203 0.303006,-0.303306l0 -0.712114 0.297606 0c0.153003,0 0.278105,-0.124802 0.278105,-0.277905l0 -2.08194 -2.80536 0 0 2.08194z"/>
    <path id="_170264752" class="fil0" d="M3.23856 0.442309l0.236205 -0.364607c0.0152003,-0.0230005 0.00850017,-0.0545011 -0.0147003,-0.0695014 -0.0230005,-0.0151003 -0.0545011,-0.00880017 -0.0694014,0.0148003l-0.244905 0.377207c-0.183804,-0.0752015 -0.389008,-0.117502 -0.605712,-0.117502 -0.216904,0 -0.421708,0.0423008 -0.605912,0.117502l-0.244405 -0.377207c-0.0150003,-0.0236005 -0.0467009,-0.0299006 -0.0699014,-0.0148003 -0.0232005,0.0150003 -0.0299006,0.0465009 -0.0147003,0.0695014l0.236405 0.364607c-0.426308,0.208904 -0.713714,0.602612 -0.713714,1.05432 0,0.0277005 0.00180004,0.0551011 0.00410008,0.0822016l2.81646 0c0.00240005,-0.0271005 0.00390008,-0.0545011 0.00390008,-0.0822016 0,-0.451709 -0.287606,-0.845417 -0.713714,-1.05432zm-1.35143 0.653013c-0.0749015,0 -0.135603,-0.0603012 -0.135603,-0.135403 0,-0.0751015 0.0607012,-0.135103 0.135603,-0.135103 0.0752015,0 0.135503,0.0600012 0.135503,0.135103 0,0.0751015 -0.0607012,0.135403 -0.135503,0.135403zm1.30563 0c-0.0748015,0 -0.135503,-0.0603012 -0.135503,-0.135403 0,-0.0751015 0.0607012,-0.135103 0.135503,-0.135103 0.0751015,0 0.135403,0.0600012 0.135403,0.135103 0,0.0751015 -0.0603012,0.135403 -0.135403,0.135403z"/>
    <path id="_170264896" class="fil0" d="M4.40349 1.65653l-0.0126002 0c-0.166803,0 -0.303206,0.136403 -0.303206,0.302806l0 1.31853c0,0.167003 0.136603,0.303006 0.303206,0.303006l0.0128003 0c0.167003,0 0.302806,-0.136403 0.302806,-0.303006l0.000100002 -1.31853c0,-0.166403 -0.136303,-0.302806 -0.303106,-0.302806z"/>
   </g>
  </g>
  <g id="_170264032">
  </g>
  <g id="_170264104">
  </g>
  <g id="_170263408">
  </g>
  <g id="_170265040">
  </g>
  <g id="_170265112">
  </g>
  <g id="_170265184">
  </g>
  <g id="_170265256">
  </g>
  <g id="_170265328">
  </g>
  <g id="_170265400">
  </g>
  <g id="_170265472">
  </g>
  <g id="_170265544">
  </g>
  <g id="_170265616">
  </g>
  <g id="_170265688">
  </g>
  <g id="_170265760">
  </g>
  <g id="_170265832">
  </g>
  <g id="_170264008">
  </g>
  <g id="_170265904">
  </g>
  <g id="_170265976">
  </g>
  <g id="_170266096">
  </g>
  <g id="_170266168">
  </g>
  <g id="_170266240">
  </g>
  <g id="_170266312">
  </g>
  <g id="_170266384">
  </g>
  <g id="_170266456">
  </g>
  <g id="_170266528">
  </g>
  <g id="_170266600">
  </g>
  <g id="_170266672">
  </g>
  <g id="_170266744">
  </g>
  <g id="_170266816">
  </g>
  <g id="_170266888">
  </g>
  <rect class="fil1" x="-3.09503e-005" y="4.98961e-005" width="5.08" height="5.08"/>
 </g>
</svg>
