<?xml version="1.0" encoding="UTF-8"?>
<!DOCTYPE svg PUBLIC "-//W3C//DTD SVG 1.1//EN" "http://www.w3.org/Graphics/SVG/1.1/DTD/svg11.dtd">
<!-- Creator: CorelDRAW -->
<svg xmlns="http://www.w3.org/2000/svg" xml:space="preserve" width="71.3319mm" height="100mm" style="shape-rendering:geometricPrecision; text-rendering:geometricPrecision; image-rendering:optimizeQuality; fill-rule:evenodd; clip-rule:evenodd"
viewBox="0 0 71.3319 100"
 xmlns:xlink="http://www.w3.org/1999/xlink">
 <defs>
  <style type="text/css">
   <![CDATA[
    .fil0 {fill:#F5F6FA}
   ]]>
  </style>
 </defs>
 <g id="Layer_x0020_1">
  <metadata id="CorelCorpID_0Corel-Layer"/>
  <g id="_100392320">
   <path id="_100399904" class="fil0" d="M0.332075 45.3832c-0.772608,2.06082 -0.169304,4.38557 1.5094,5.80954 3.18051,3.18278 9.72147,14.6722 12.9592,22.7684 2.20959,5.52203 7.06116,10.9418 10.742,14.5174 1.58414,1.559 2.47345,3.68997 2.46891,5.91329l0 0.609395c0,2.76102 2.23777,4.99878 4.99878,4.99878l26.6582 0c2.76102,0 4.99878,-2.23777 4.99878,-4.99878l0 -5.11854c-0.0152805,-0.423315 0.145663,-0.834395 0.444686,-1.13414 6.1497,-5.62346 6.2199,-15.0109 6.2199,-15.4075l0 -26.3768c0.0617865,-3.56795 -2.62831,-6.58447 -6.17948,-6.92923 -1.33472,-0.087697 -2.6649,0.228821 -3.81737,0.907642l0 -2.59094c0.0137303,-2.40098 -1.27222,-4.62126 -3.362,-5.80422 -2.08906,-1.18297 -4.65481,-1.14327 -6.7065,0.104472 -0.21354,-2.24768 -1.56354,-4.22922 -3.57637,-5.25047 -2.01354,-1.02125 -4.40921,-0.941193 -6.34956,0.21354l0 -2.75947c4.13538,-2.34684 6.68286,-6.7416 6.6653,-11.4963 0,-7.36168 -5.96821,-13.3291 -13.3298,-13.3291 -7.36162,0 -13.3291,5.96744 -13.3291,13.3291 -0.0175505,4.75474 2.52993,9.14944 6.66453,11.4963l0 26.8252c0.0472811,1.96704 -0.220405,3.92793 -0.793204,5.81031 -0.178494,0.556023 -0.63381,0.980058 -1.20124,1.11963 -0.533878,0.134978 -1.09981,-0.0137303 -1.49949,-0.393585 -1.30117,-1.24093 -2.45745,-2.62598 -3.44515,-4.12851 -2.89145,-4.32533 -10.1669,-12.4047 -14.721,-12.4047 -2.55811,-0.0533712 -4.91109,1.39269 -6.01931,3.69911l0 0.000110729zm24.3472 -32.0238c0,-5.52126 4.47559,-9.99679 9.99679,-9.99679 5.52126,0 9.99679,4.47559 9.99679,9.99679 0.0160003,2.85098 -1.19819,5.57003 -3.33226,7.46155l0 -7.46155c0,-3.68084 -2.98369,-6.66453 -6.66453,-6.66453 -3.68084,0 -6.66453,2.98369 -6.66453,6.66453l0 7.46155c-2.1333,-1.89152 -3.34827,-4.61057 -3.33226,-7.46155zm-6.38466 42.5789c1.1296,1.71303 2.45059,3.29185 3.93712,4.70668 1.22565,1.15933 2.95933,1.6116 4.59535,1.19819 1.6673,-0.415675 3.00584,-1.65583 3.54891,-3.28576 0.689507,-2.22559 1.01671,-4.54729 0.967878,-6.87657l0 -38.3215c0,-1.84042 1.49185,-3.33226 3.33226,-3.33226 1.84042,0 3.33226,1.49185 3.33226,3.33226l0 34.9892c0,0.920597 0.745923,1.66652 1.66652,1.66652 0.919822,0 1.66574,-0.745923 1.66574,-1.66652l0 -14.9949c0,-1.84042 1.49262,-3.33226 3.33226,-3.33226 1.84042,0 3.33304,1.49185 3.33304,3.33226l0 14.9949c0,0.920597 0.745923,1.66652 1.66574,1.66652 0.920597,0 1.66652,-0.745923 1.66652,-1.66652l0 -9.99679c0,-1.84042 1.49185,-3.33226 3.33226,-3.33226 1.84042,0 3.33226,1.49185 3.33226,3.33226l0 11.6633c0,0.919822 0.745923,1.66574 1.66574,1.66574 0.920597,0 1.66652,-0.745923 1.66652,-1.66574l0 -3.33226c-0.00226994,-0.884001 0.350068,-1.73213 0.977788,-2.35448 0.687181,-0.681091 1.63374,-1.03426 2.5993,-0.969428 1.8,0.234911 3.13168,1.79081 3.08744,3.60532l0 26.3768c0,0.0816069 -0.084652,8.33105 -5.13836,12.95 -0.987699,0.931282 -1.54145,2.23395 -1.52617,3.59159l0 5.11854c0,0.920597 -0.745923,1.66652 -1.66652,1.66652l-26.6582 5.53643e-005c-0.920597,0 -1.66652,-0.745923 -1.66652,-1.66652l0 -0.609395c0.00226994,-3.12326 -1.25234,-6.11615 -3.48025,-8.30436 -2.8228,-2.74042 -7.87114,-8.12437 -9.96706,-13.3657 -3.42915,-8.56751 -10.2134,-20.3994 -13.699,-23.885 -0.793204,-0.792429 -1.05862,-1.52617 -0.788664,-2.17908 0.60408,-1.04644 1.7344,-1.67721 2.94256,-1.64133 2.26445,0 8.4043,5.61355 11.9432,10.922zm0 0z"/>
   <path id="_100400048" class="fil0" d="M63.0008 71.6753c0.920597,0 1.66652,-0.745923 1.66652,-1.66652l0 -9.99679c0,-0.919822 -0.745923,-1.66574 -1.66652,-1.66574 -0.919822,0 -1.66574,0.745923 -1.66574,1.66574l0 9.99679c0,0.920597 0.745923,1.66652 1.66574,1.66652zm0 0z"/>
   <path id="_100400144" class="fil0" d="M61.335 81.6721c0.441585,0 0.865676,-0.175449 1.1776,-0.488147 1.26762,-1.17306 2.03873,-2.78693 2.15467,-4.51064 -0.0015502,-0.900002 -0.726102,-1.63142 -1.6261,-1.6421 -0.909912,-0.0175505 -1.6673,0.694822 -1.70616,1.60396 -0.125068,0.845855 -0.541518,1.62151 -1.17837,2.19281 -0.475911,0.476686 -0.61853,1.19288 -0.360754,1.81523 0.257776,0.623125 0.864901,1.02889 1.53913,1.02889zm0 0z"/>
   <path id="_100400240" class="fil0" d="M36.3426 93.3355l1.66574 0c0.920597,0 1.66652,-0.745923 1.66652,-1.66652 0,-0.919822 -0.745923,-1.66574 -1.66652,-1.66574l-1.66574 0c-0.920597,0 -1.66652,0.745923 -1.66652,1.66574 0,0.920597 0.745923,1.66652 1.66652,1.66652zm0 0z"/>
   <path id="_100400336" class="fil0" d="M44.6729 93.3355l11.6633 0c0.920597,0 1.66652,-0.745923 1.66652,-1.66652 0,-0.919822 -0.745923,-1.66574 -1.66652,-1.66574l-11.6633 0c-0.919822,0 -1.66574,0.745923 -1.66574,1.66574 0,0.920597 0.745923,1.66652 1.66574,1.66652zm0 0z"/>
   <path id="_100400432" class="fil0" d="M21.347 27.587c0.665091,0 1.26607,-0.394304 1.52999,-1.00447 0.263921,-0.61017 0.140348,-1.31872 -0.315023,-1.80305 -5.77294,-6.10164 -6.08642,-15.5509 -0.729923,-22.0217 0.395855,-0.456866 0.513282,-1.09217 0.307382,-1.66043 -0.206675,-0.568204 -0.704732,-0.980058 -1.30195,-1.07617 -0.597214,-0.0961124 -1.19897,0.138798 -1.57345,0.61399 -6.42508,7.7644 -6.05287,19.1013 0.868721,26.4271 0.315023,0.334843 0.754338,0.524743 1.21425,0.524743zm0 0z"/>
   <path id="_100400528" class="fil0" d="M50.227 23.1732c0.39281,0.20136 0.850395,0.238731 1.27067,0.102978 0.42099,-0.135753 0.770338,-0.43245 0.971698,-0.826035 3.64269,-7.09322 2.70609,-15.6752 -2.38116,-21.815 -0.373709,-0.475192 -0.976294,-0.710102 -1.57345,-0.61399 -0.596439,0.0961124 -1.0945,0.507967 -1.30117,1.07617 -0.206675,0.568204 -0.0892472,1.20356 0.307382,1.66043 4.23913,5.11472 5.01938,12.2643 1.98459,18.173 -0.42027,0.818395 -0.0968875,1.82209 0.721507,2.24236l-5.53643e-005 0zm0 0z"/>
  </g>
 </g>
</svg>
