<?xml version="1.0" encoding="UTF-8"?>
<!DOCTYPE svg PUBLIC "-//W3C//DTD SVG 1.1//EN" "http://www.w3.org/Graphics/SVG/1.1/DTD/svg11.dtd">
<!-- Creator: CorelDRAW -->
<svg xmlns="http://www.w3.org/2000/svg" xml:space="preserve" width="5.08mm" height="5.08mm" style="shape-rendering:geometricPrecision; text-rendering:geometricPrecision; image-rendering:optimizeQuality; fill-rule:evenodd; clip-rule:evenodd"
viewBox="0 0 5.08 5.08"
 xmlns:xlink="http://www.w3.org/1999/xlink">
 <defs>
  <style type="text/css">
   <![CDATA[
    .fil0 {fill:black}
   ]]>
  </style>
 </defs>
 <g id="Layer_x0020_1">
  <metadata id="CorelCorpID_0Corel-Layer"/>
  <g id="_170366136">
   <g>
    <path id="_170366328" class="fil0" d="M5.049 0.1807c0.0413,-0.0414 0.0413,-0.1084 0,-0.1497 -0.0414,-0.0413 -0.1083,-0.0413 -0.1497,0l-0.3526 0.3527c-0.2728,-0.2382 -0.6285,-0.3837 -1.0182,-0.3837l-1.977 0c-0.3897,0 -0.7454,0.1455 -1.0182,0.3837l-0.3526 -0.3527c-0.0414,-0.0413 -0.1084,-0.0413 -0.1497,0 -0.0413,0.0414 -0.0413,0.1083 0,0.1497l0.3527 0.3526c-0.2382,0.2728 -0.3837,0.6285 -0.3837,1.0182l0 1.977c0,0.3897 0.1455,0.7454 0.3837,1.0182l-0.3527 0.3526c-0.0413,0.0414 -0.0413,0.1084 0,0.1497 0.0207,0.0207 0.0478,0.031 0.0748,0.031 0.0271,0 0.0542,-0.0103 0.0749,-0.031l0.3526 -0.3527c0.2728,0.2382 0.6285,0.3837 1.0182,0.3837l1.977 0c0.3897,0 0.7454,-0.1455 1.0182,-0.3837l0.3526 0.3527c0.0207,0.0207 0.0478,0.031 0.0749,0.031 0.027,0 0.0541,-0.0103 0.0748,-0.031 0.0413,-0.0413 0.0413,-0.1083 0,-0.1497l-0.3527 -0.3526c0.2382,-0.2728 0.3837,-0.6285 0.3837,-1.0182l0 -1.977c0,-0.3897 -0.1455,-0.7454 -0.3837,-1.0182l0.3527 -0.3526zm-4.6257 4.0676c-0.1333,-0.2082 -0.2116,-0.4548 -0.2116,-0.7198l0 -1.977c0,-0.265 0.0783,-0.5116 0.2116,-0.7198l0 3.4166zm1.6003 -2.3744c0.1433,-0.1114 0.3211,-0.1806 0.5164,-0.1806 0.1953,0 0.3731,0.0692 0.5164,0.1806l-0.5164 0.5165 -0.5164 -0.5165zm1.0328 1.3322c-0.1433,0.1114 -0.3211,0.1806 -0.5164,0.1806 -0.1953,0 -0.3731,-0.0691 -0.5164,-0.1806l0.5164 -0.5164 0.5164 0.5164zm-0.6661 -0.6661l-0.5164 0.5164c-0.1114,-0.1434 -0.1806,-0.3211 -0.1806,-0.5164 0,-0.1952 0.0692,-0.373 0.1806,-0.5164l0.5164 0.5164zm-0.5163 0.8157c0.1825,0.1493 0.4124,0.2426 0.666,0.2426 0.2536,0 0.4835,-0.0933 0.666,-0.2426l0.602 0.602c-0.3372,0.3019 -0.7808,0.4873 -1.268,0.4873 -0.4872,0 -0.9308,-0.1854 -1.268,-0.4873l0.602 -0.602zm0.8157 -0.8157l0.5164 -0.5164c0.1114,0.1434 0.1806,0.3212 0.1806,0.5164 0,0.1953 -0.0692,0.373 -0.1806,0.5164l-0.5164 -0.5164zm0.5163 -0.8157c-0.1825,-0.1493 -0.4124,-0.2426 -0.666,-0.2426 -0.2536,0 -0.4835,0.0933 -0.666,0.2426l-0.602 -0.602c0.3372,-0.3019 0.7808,-0.4873 1.268,-0.4873 0.4872,0 0.9308,0.1854 1.268,0.4873l-0.602 0.602zm0.2505 -1.0893l0.8388 0 -0.3377 0.3377c-0.1494,-0.1352 -0.3177,-0.2491 -0.5011,-0.3377zm-1.905 -0.4233l1.977 0c0.265,0 0.5116,0.0783 0.7198,0.2116l-3.4166 0c0.2082,-0.1333 0.4548,-0.2116 0.7198,-0.2116zm0.072 0.4233c-0.1834,0.0886 -0.3517,0.2025 -0.5011,0.3377l-0.3377 -0.3377 0.8388 0zm-0.9885 0.1497l0.3377 0.3377c-0.1352,0.1494 -0.2491,0.3177 -0.3377,0.5011l0 -0.8388zm0.4873 0.4873l0.602 0.602c-0.1493,0.1825 -0.2426,0.4124 -0.2426,0.666 0,0.2536 0.0933,0.4835 0.2426,0.666l-0.602 0.602c-0.3019,-0.3372 -0.4873,-0.7808 -0.4873,-1.268 0,-0.4872 0.1854,-0.9308 0.4873,-1.268zm-0.4873 2.1845c0.0886,0.1834 0.2025,0.3517 0.3377,0.5011l-0.3377 0.3377 0 -0.8388zm0.4874 0.6508c0.1494,0.1352 0.3177,0.2491 0.5011,0.3377l-0.8388 0 0.3377 -0.3377zm2.4061 0.761l-1.977 0c-0.265,0 -0.5116,-0.0783 -0.7198,-0.2116l3.4166 0c-0.2082,0.1333 -0.4548,0.2116 -0.7198,0.2116zm-0.072 -0.4233c0.1834,-0.0886 0.3517,-0.2025 0.5011,-0.3377l0.3377 0.3377 -0.8388 0zm0.9885 -0.1497l-0.3377 -0.3377c0.1352,-0.1494 0.2491,-0.3177 0.3377,-0.5011l0 0.8388zm-0.4873 -0.4873l-0.602 -0.602c0.1493,-0.1825 0.2426,-0.4124 0.2426,-0.666 0,-0.2536 -0.0933,-0.4835 -0.2426,-0.666l0.602 -0.602c0.3019,0.3372 0.4873,0.7808 0.4873,1.268 0,0.4872 -0.1854,0.9308 -0.4873,1.268zm0.4873 -2.1845c-0.0886,-0.1834 -0.2025,-0.3517 -0.3377,-0.5011l0.3377 -0.3377 0 0.8388zm0.4233 -0.072l0 1.977c0,0.265 -0.0783,0.5116 -0.2116,0.7198l0 -3.4166c0.1333,0.2082 0.2116,0.4548 0.2116,0.7198z"/>
   </g>
  </g>
  <g id="_170366112">
  </g>
  <g id="_170366184">
  </g>
  <g id="_170366208">
  </g>
  <g id="_170366496">
  </g>
  <g id="_170366568">
  </g>
  <g id="_170366640">
  </g>
  <g id="_170366712">
  </g>
  <g id="_170366784">
  </g>
  <g id="_170366856">
  </g>
  <g id="_170366928">
  </g>
  <g id="_170367000">
  </g>
  <g id="_170367072">
  </g>
  <g id="_170367144">
  </g>
  <g id="_170367216">
  </g>
  <g id="_170367288">
  </g>
 </g>
</svg>
