<?xml version="1.0" encoding="UTF-8"?>
<!DOCTYPE svg PUBLIC "-//W3C//DTD SVG 1.1//EN" "http://www.w3.org/Graphics/SVG/1.1/DTD/svg11.dtd">
<!-- Creator: CorelDRAW -->
<svg xmlns="http://www.w3.org/2000/svg" xml:space="preserve" width="5.0798mm" height="5.08mm" style="shape-rendering:geometricPrecision; text-rendering:geometricPrecision; image-rendering:optimizeQuality; fill-rule:evenodd; clip-rule:evenodd"
viewBox="0 0 5.0798 5.08"
 xmlns:xlink="http://www.w3.org/1999/xlink">
 <defs>
  <style type="text/css">
   <![CDATA[
    .fil1 {fill:none}
    .fil0 {fill:black}
   ]]>
  </style>
 </defs>
 <g id="Layer_x0020_1">
  <metadata id="CorelCorpID_0Corel-Layer"/>
  <g id="XMLID_91_">
   <path id="XMLID_92_" class="fil0" d="M4.5746 4.0788c-0.149,-0.061 -0.2127,-0.142 -0.2065,-0.2628 0.0063,-0.141 -0.0737,-0.2443 -0.1117,-0.2851 0.023,-0.0876 0.09,-0.3909 0.0001,-0.6544 -0.0967,-0.282 -0.3918,-0.7126 -0.6964,-1.136 -0.1246,-0.1738 -0.1305,-0.3628 -0.1373,-0.5816 -0.0066,-0.2088 -0.0139,-0.4453 -0.1303,-0.7083 -0.1266,-0.2864 -0.3805,-0.4506 -0.6968,-0.4506 -0.1881,0 -0.3812,0.0588 -0.5298,0.1613 -0.3043,0.21 -0.2641,0.6679 -0.2375,0.9709 0.0037,0.0415 0.0071,0.0807 0.0091,0.1141 0.0177,0.2968 0.0016,0.4532 -0.0195,0.5007 -0.0136,0.0311 -0.0808,0.1195 -0.1519,0.2131 -0.0735,0.0968 -0.1568,0.2065 -0.2251,0.3088 -0.0815,0.123 -0.1473,0.3111 -0.2109,0.4929 -0.0466,0.1331 -0.0905,0.2588 -0.1333,0.3339 -0.0812,0.1445 -0.061,0.2793 -0.0441,0.3416 -0.0307,0.0213 -0.0751,0.0633 -0.1126,0.1425 -0.0452,0.0966 -0.1371,0.1485 -0.3281,0.1852 -0.0878,0.018 -0.1483,0.0549 -0.18,0.1097 -0.046,0.0798 -0.0209,0.1801 0.002,0.2486 0.0338,0.1007 0.0127,0.1645 -0.0256,0.2803 -0.0088,0.0267 -0.0188,0.0569 -0.029,0.0903 -0.016,0.0526 -0.0102,0.1005 0.0171,0.1423 0.0721,0.1102 0.2826,0.1491 0.4993,0.1747 0.1294,0.0154 0.271,0.0671 0.408,0.1172 0.1342,0.049 0.2729,0.0997 0.3991,0.1151 0.0191,0.0024 0.0381,0.0037 0.0564,0.0037 0.1905,0 0.2765,-0.1264 0.3038,-0.1783 0.0684,-0.014 0.3043,-0.0587 0.5475,-0.0647 0.2428,-0.0069 0.4777,0.041 0.5442,0.0559 0.0209,0.0401 0.0761,0.1315 0.164,0.1786 0.0483,0.0265 0.1156,0.0416 0.1844,0.0416 0.0001,0 0,0 0.0001,0 0.0735,0 0.2134,-0.0174 0.3242,-0.1339 0.1104,-0.1171 0.3864,-0.2665 0.588,-0.3756 0.0449,-0.0244 0.087,-0.0471 0.1239,-0.0677 0.1132,-0.0628 0.175,-0.1524 0.1695,-0.246 -0.0046,-0.0778 -0.0561,-0.146 -0.1343,-0.178zm-2.5062 -0.0225c-0.0141,-0.0993 -0.1418,-0.1977 -0.2897,-0.3117 -0.1209,-0.0933 -0.258,-0.1989 -0.2958,-0.2884 -0.078,-0.1846 -0.0165,-0.5091 0.0908,-0.6762 0.053,-0.0837 0.0963,-0.2106 0.1381,-0.3333 0.0452,-0.1326 0.092,-0.2696 0.1443,-0.3295 0.0828,-0.0937 0.1593,-0.2759 0.1728,-0.4195 0.0776,0.074 0.1979,0.168 0.309,0.168 0.0171,0 0.0337,-0.0023 0.0496,-0.0067 0.076,-0.022 0.1878,-0.0866 0.2959,-0.1491 0.0932,-0.0538 0.2082,-0.1203 0.2514,-0.1263 0.0742,0.1065 0.5052,1.0602 0.5492,1.3665 0.0349,0.2424 -0.0019,0.4427 -0.0204,0.5212 -0.0149,-0.0021 -0.0327,-0.0037 -0.0513,-0.0037 -0.1201,0 -0.1519,0.0655 -0.1601,0.1046 -0.0213,0.1017 -0.0236,0.4267 -0.0238,0.4997 -0.0434,0.0552 -0.2629,0.3149 -0.5781,0.3616 -0.1283,0.0186 -0.2482,0.0281 -0.3562,0.0281 -0.0924,0 -0.1513,-0.0071 -0.1758,-0.0108l-0.1583 -0.1812c0.0624,-0.0309 0.1248,-0.0959 0.1084,-0.2133zm0.2009 -2.9878c-0.0049,0.0021 -0.0098,0.0044 -0.0146,0.0068 -0.0004,-0.0107 -0.0016,-0.0216 -0.0033,-0.0325 -0.0173,-0.0995 -0.0833,-0.1718 -0.1569,-0.1718 -0.0054,0 -0.0109,0.0005 -0.0169,0.0014 -0.0438,0.0073 -0.0781,0.0402 -0.097,0.0868 0.0166,-0.1023 0.0745,-0.1781 0.1433,-0.1781 0.0808,0 0.149,0.1089 0.149,0.2377 0,0.0162 -0.0011,0.0324 -0.0036,0.0497zm0.6277 0.0767c0.0074,-0.0236 0.0114,-0.049 0.0114,-0.0755 0,-0.1168 -0.0741,-0.2083 -0.1687,-0.2083 -0.0925,0 -0.1677,0.0934 -0.1677,0.2083 0,0.0078 0.0004,0.0157 0.0011,0.0235 -0.0049,-0.0019 -0.0097,-0.0037 -0.0144,-0.0055 -0.0106,-0.0322 -0.016,-0.0658 -0.016,-0.1002 0,-0.1397 0.0893,-0.2533 0.1991,-0.2533 0.1097,0 0.199,0.1136 0.199,0.2533 0,0.0582 -0.016,0.1136 -0.0438,0.1577zm-0.0809 0.2719c-0.0016,0.007 -0.005,0.0102 -0.0422,0.0295 -0.0188,0.0098 -0.0421,0.022 -0.0714,0.0398l-0.0196 0.0118c-0.0785,0.0477 -0.2625,0.1593 -0.3125,0.1658 -0.0339,0.0046 -0.0549,-0.0086 -0.1021,-0.0407 -0.0106,-0.0072 -0.022,-0.0149 -0.034,-0.0226 -0.0851,-0.0559 -0.1398,-0.1173 -0.146,-0.1414 0.0277,-0.0214 0.0965,-0.0751 0.1317,-0.1068 0.0714,-0.0664 0.1433,-0.1111 0.1789,-0.1111 0.0019,0 0.0036,0.0002 0.0053,0.0005 0.0418,0.0074 0.1449,0.0485 0.2203,0.0786 0.0348,0.0139 0.0648,0.0259 0.086,0.0335 0.0666,0.0228 0.1014,0.0521 0.1056,0.0631zm0.5987 3.1041c0.0376,-0.1695 0.0809,-0.4002 0.0739,-0.5362 -0.0016,-0.0309 -0.0043,-0.0645 -0.007,-0.0971 -0.0049,-0.0608 -0.0123,-0.1511 -0.0047,-0.1779 0.0015,-0.0007 0.0032,-0.0013 0.005,-0.0018 0.0003,0.0777 0.0172,0.2328 0.1412,0.2869 0.037,0.0161 0.0792,0.0243 0.1256,0.0243 0.1242,0 0.2621,-0.061 0.3185,-0.1174 0.0333,-0.0333 0.0612,-0.074 0.0808,-0.1062 0.0043,0.0126 0.0069,0.029 0.0056,0.0501 -0.0074,0.1147 0.0483,0.2668 0.1544,0.3229l0.0154 0.0081c0.0378,0.0198 0.1381,0.0725 0.1397,0.0975 0,0 -0.0008,0.0029 -0.0064,0.0081 -0.0251,0.023 -0.1136,0.0681 -0.1991,0.1118 -0.1518,0.0775 -0.3238,0.1653 -0.4011,0.2466 -0.1087,0.1144 -0.2317,0.1913 -0.306,0.1913 -0.009,0 -0.0171,-0.0011 -0.0244,-0.0034 -0.0806,-0.0252 -0.1471,-0.1416 -0.1114,-0.3076zm-2.7501 -0.4326c-0.0082,-0.0385 -0.0147,-0.0689 -0.0077,-0.0983 0.0051,-0.0218 0.1128,-0.0452 0.1588,-0.0552 0.0647,-0.014 0.1315,-0.0286 0.1753,-0.0551 0.0591,-0.0358 0.0912,-0.1019 0.1194,-0.1602 0.0205,-0.0422 0.0416,-0.0857 0.0667,-0.1001 0.0014,-0.0008 0.0036,-0.0018 0.0077,-0.0018 0.0471,0 0.1459,0.099 0.2028,0.1876 0.0145,0.0224 0.0412,0.0671 0.0722,0.1189 0.0925,0.1549 0.2193,0.367 0.2855,0.4381 0.0596,0.0639 0.1562,0.1868 0.1324,0.2922 -0.0174,0.0817 -0.11,0.1482 -0.1318,0.1629 -0.0079,0.0018 -0.0177,0.0027 -0.0293,0.0027 -0.1267,0 -0.3774,-0.1054 -0.5122,-0.162l-0.0199 -0.0084c-0.0752,-0.0315 -0.198,-0.0514 -0.3168,-0.0706 -0.0945,-0.0153 -0.2239,-0.0363 -0.2454,-0.0552 -0.0174,-0.0195 0.0028,-0.0829 0.0206,-0.1388 0.0128,-0.0402 0.026,-0.0818 0.0333,-0.1253 0.0102,-0.0695 -0.0019,-0.126 -0.0116,-0.1714z"/>
  </g>
  <g id="_106291976">
  </g>
  <g id="_106292024">
  </g>
  <g id="_106292240">
  </g>
  <g id="_106292336">
  </g>
  <g id="_106292408">
  </g>
  <g id="_106292480">
  </g>
  <g id="_106292552">
  </g>
  <g id="_106292624">
  </g>
  <g id="_106292696">
  </g>
  <g id="_106292768">
  </g>
  <g id="_106292840">
  </g>
  <g id="_106292912">
  </g>
  <g id="_106292984">
  </g>
  <g id="_106293056">
  </g>
  <g id="_106293128">
  </g>
  <rect class="fil1" x="-4.99399e-005" y="5.00601e-005" width="5.0799" height="5.0799"/>
 </g>
</svg>
