<?xml version="1.0" encoding="UTF-8"?>
<!DOCTYPE svg PUBLIC "-//W3C//DTD SVG 1.1//EN" "http://www.w3.org/Graphics/SVG/1.1/DTD/svg11.dtd">
<!-- Creator: CorelDRAW -->
<svg xmlns="http://www.w3.org/2000/svg" xml:space="preserve" width="5.0798mm" height="5.08mm" style="shape-rendering:geometricPrecision; text-rendering:geometricPrecision; image-rendering:optimizeQuality; fill-rule:evenodd; clip-rule:evenodd"
viewBox="0 0 3.20814 3.20827"
 xmlns:xlink="http://www.w3.org/1999/xlink">
 <defs>
  <style type="text/css">
   <![CDATA[
    .fil1 {fill:none}
    .fil0 {fill:#030104}
   ]]>
  </style>
 </defs>
 <g id="Layer_x0020_1">
  <metadata id="CorelCorpID_0Corel-Layer"/>
  <g id="_107160928">
   <path id="_105962152" class="fil0" d="M2.47971 1.70461c-0.00416822,-0.406528 0.3315,-0.601108 0.346405,-0.610897 -0.18858,-0.275482 -0.481935,-0.313311 -0.586772,-0.317543 -0.249462,-0.0255777 -0.48724,0.146961 -0.614181,0.146961 -0.126436,0 -0.322153,-0.143488 -0.529301,-0.139762 -0.27245,0.00423138 -0.523301,0.158582 -0.663695,0.40217 -0.282934,0.490966 -0.0725018,1.21813 0.203169,1.61677 0.134836,0.194833 0.295691,0.413538 0.506565,0.405896 0.203169,-0.00814698 0.279839,-0.131552 0.525575,-0.131552 0.245736,0 0.314764,0.131552 0.529554,0.127573 0.218769,-0.00416822 0.357078,-0.198748 0.490713,-0.394023 0.154856,-0.226158 0.218516,-0.445368 0.222495,-0.456294 -0.00511555,-0.00277881 -0.426106,-0.163887 -0.430527,-0.649295z"/>
   <path id="_105963016" class="fil0" d="M2.07571 0.512376c0.111784,-0.13553 0.18757,-0.3243 0.166918,-0.512376 -0.161613,0.00650495 -0.356636,0.107174 -0.472651,0.242894 -0.10389,0.120184 -0.194328,0.311985 -0.170139,0.496334 0.179928,0.0142098 0.364025,-0.0915746 0.475872,-0.226852z"/>
  </g>
  <rect class="fil1" x="-3.15395e-005" y="3.16154e-005" width="3.2082" height="3.2082"/>
 </g>
</svg>
