<?xml version="1.0"?>
<svg xmlns="http://www.w3.org/2000/svg" viewBox="0 0 64 64" width="512px" height="512px"><g><g id="Add_mail" data-name="Add mail"><path d="M62,25a9,9,0,0,0-17.941-1H3a1,1,0,0,0-1,1V61a1,1,0,0,0,1,1H57a1,1,0,0,0,1-1V32.478A9,9,0,0,0,62,25Zm-9-7a7,7,0,1,1-7,7A7.008,7.008,0,0,1,53,18ZM21.744,43,4,58.773V27.227Zm1.5,1.338,4.759,4.231a3.02,3.02,0,0,0,3.987,0l4.757-4.227L54.369,60H5.631Zm7.419,2.731a1.012,1.012,0,0,1-1.334,0L5.63,26H44.059A8.991,8.991,0,0,0,47.5,32.109ZM56,58.773,38.257,43l11.037-9.809A8.872,8.872,0,0,0,56,33.475Z" data-original="#000000" class="active-path" data-old_color="#000000" fill="#E3E9ED"/><path d="M49,26h3v3a1,1,0,0,0,2,0V26h3a1,1,0,0,0,0-2H54V21a1,1,0,0,0-2,0v3H49a1,1,0,0,0,0,2Z" data-original="#000000" class="active-path" data-old_color="#000000" fill="#E3E9ED"/></g></g> </svg>
