<?xml version="1.0" encoding="UTF-8"?>
<!DOCTYPE svg PUBLIC "-//W3C//DTD SVG 1.1//EN" "http://www.w3.org/Graphics/SVG/1.1/DTD/svg11.dtd">
<!-- Creator: CorelDRAW -->
<svg xmlns="http://www.w3.org/2000/svg" xml:space="preserve" width="34.328mm" height="29.7298mm" style="shape-rendering:geometricPrecision; text-rendering:geometricPrecision; image-rendering:optimizeQuality; fill-rule:evenodd; clip-rule:evenodd"
viewBox="0 0 34.328 29.7298"
 xmlns:xlink="http://www.w3.org/1999/xlink">
 <defs>
  <style type="text/css">
   <![CDATA[
    .fil0 {fill:white}
   ]]>
  </style>
 </defs>
 <g id="Layer_x0020_1">
  <metadata id="CorelCorpID_0Corel-Layer"/>
  <polygon id="_110927448" class="fil0" points="20.9834,0.0012 27.1282,10.6446 25.1954,13.9925 18.9818,3.2299 6.7186,3.2299 8.5826,0.0012 "/>
  <polygon id="_110927520" class="fil0" points="2.3826,18.9898 8.5276,8.3465 12.3934,8.3465 6.1794,19.1088 12.311,29.7291 8.5828,29.7292 "/>
  <polygon id="_110927592" class="fil0" points="28.1276,25.6044 15.8377,25.6041 13.9048,22.2563 26.3322,22.2565 32.4639,11.6363 34.328,14.8649 "/>
  <polygon id="_110927664" class="fil0" points="13.3464,29.7298 7.2016,19.0862 9.1344,15.7384 15.3478,26.501 27.6111,26.501 25.7471,29.7298 "/>
  <polygon id="_110927736" class="fil0" points="31.9467,10.7394 25.8016,21.3827 21.9358,21.3828 28.1498,10.6203 22.0182,0.0001 25.7464,0 "/>
  <polygon id="_110928072" class="fil0" points="6.2005,4.1262 18.4903,4.1264 20.4233,7.4742 7.9957,7.474 1.8642,18.0942 0,14.8655 "/>
 </g>
</svg>
